  0
SECTION
  2
HEADER
  9
$ACADVER
  1
AC1027
  9
$ACADMAINTVER
 70
105
  9
$DWGCODEPAGE
  3
ANSI_1252
  9
$LASTSAVEDBY
  1
ezdxf
  9
$REQUIREDVERSIONS
160
0
  9
$INSBASE
 10
0.0
 20
0.0
 30
0.0
  9
$EXTMIN
 10
1e+20
 20
1e+20
 30
1e+20
  9
$EXTMAX
 10
-1e+20
 20
-1e+20
 30
-1e+20
  9
$LIMMIN
 10
0.0
 20
0.0
  9
$LIMMAX
 10
420.0
 20
297.0
  9
$ORTHOMODE
 70
0
  9
$REGENMODE
 70
1
  9
$FILLMODE
 70
1
  9
$QTEXTMODE
 70
0
  9
$MIRRTEXT
 70
1
  9
$LTSCALE
 40
1.0
  9
$ATTMODE
 70
1
  9
$TEXTSIZE
 40
2.5
  9
$TRACEWID
 40
1.0
  9
$TEXTSTYLE
  7
OpenSans
  9
$CLAYER
  8
0
  9
$CELTYPE
  6
ByLayer
  9
$CECOLOR
 62
256
  9
$CELTSCALE
 40
1.0
  9
$DISPSILH
 70
0
  9
$DIMSCALE
 40
1.0
  9
$DIMASZ
 40
0.175
  9
$DIMEXO
 40
0.125
  9
$DIMDLI
 40
3.75
  9
$DIMRND
 40
0.0
  9
$DIMDLE
 40
0.0
  9
$DIMEXE
 40
0.375
  9
$DIMTP
 40
0.0
  9
$DIMTM
 40
0.0
  9
$DIMTXT
 40
0.25
  9
$DIMCEN
 40
2.5
  9
$DIMTSZ
 40
0.0
  9
$DIMTOL
 70
0
  9
$DIMLIM
 70
0
  9
$DIMTIH
 70
0
  9
$DIMTOH
 70
0
  9
$DIMSE1
 70
0
  9
$DIMSE2
 70
0
  9
$DIMTAD
 70
1
  9
$DIMZIN
 70
12
  9
$DIMBLK
  1
ARCHTICK
  9
$DIMASO
 70
1
  9
$DIMSHO
 70
1
  9
$DIMPOST
  1

  9
$DIMAPOST
  1

  9
$DIMALT
 70
0
  9
$DIMALTD
 70
3
  9
$DIMALTF
 40
0.03937007874
  9
$DIMLFAC
 40
100.0
  9
$DIMTOFL
 70
1
  9
$DIMTVP
 40
0.0
  9
$DIMTIX
 70
0
  9
$DIMSOXD
 70
0
  9
$DIMSAH
 70
0
  9
$DIMBLK1
  1

  9
$DIMBLK2
  1

  9
$DIMSTYLE
  2
EZDXF
  9
$DIMCLRD
 70
0
  9
$DIMCLRE
 70
0
  9
$DIMCLRT
 70
0
  9
$DIMTFAC
 40
0.5
  9
$DIMGAP
 40
0.1
  9
$DIMJUST
 70
0
  9
$DIMSD1
 70
0
  9
$DIMSD2
 70
0
  9
$DIMTOLJ
 70
0
  9
$DIMTZIN
 70
8
  9
$DIMALTZ
 70
0
  9
$DIMALTTZ
 70
0
  9
$DIMUPT
 70
1
  9
$DIMDEC
 70
2
  9
$DIMTDEC
 70
2
  9
$DIMALTU
 70
2
  9
$DIMALTTD
 70
3
  9
$DIMTXSTY
  7
OpenSansCondensed-Light
  9
$DIMAUNIT
 70
0
  9
$DIMADEC
 70
2
  9
$DIMALTRND
 40
0.0
  9
$DIMAZIN
 70
3
  9
$DIMDSEP
 70
46
  9
$DIMATFIT
 70
3
  9
$DIMFRAC
 70
0
  9
$DIMLDRBLK
  1

  9
$DIMLUNIT
 70
2
  9
$DIMLWD
 70
-2
  9
$DIMLWE
 70
-2
  9
$DIMTMOVE
 70
2
  9
$DIMFXL
 40
1.0
  9
$DIMFXLON
 70
0
  9
$DIMJOGANG
 40
0.785398163397
  9
$DIMTFILL
 70
0
  9
$DIMTFILLCLR
 70
0
  9
$DIMARCSYM
 70
0
  9
$DIMLTYPE
  6

  9
$DIMLTEX1
  6

  9
$DIMLTEX2
  6

  9
$DIMTXTDIRECTION
 70
0
  9
$LUNITS
 70
2
  9
$LUPREC
 70
4
  9
$SKETCHINC
 40
1.0
  9
$FILLETRAD
 40
10.0
  9
$AUNITS
 70
0
  9
$AUPREC
 70
2
  9
$MENU
  1
.
  9
$ELEVATION
 40
0.0
  9
$PELEVATION
 40
0.0
  9
$THICKNESS
 40
0.0
  9
$LIMCHECK
 70
0
  9
$CHAMFERA
 40
0.0
  9
$CHAMFERB
 40
0.0
  9
$CHAMFERC
 40
0.0
  9
$CHAMFERD
 40
0.0
  9
$SKPOLY
 70
0
  9
$TDCREATE
 40
2461323.376087963
  9
$TDUCREATE
 40
2458532.153996898
  9
$TDUPDATE
 40
2461323.376087963
  9
$TDUUPDATE
 40
2458532.1544311
  9
$TDINDWG
 40
0.0
  9
$TDUSRTIMER
 40
0.0
  9
$USRTIMER
 70
1
  9
$ANGBASE
 50
0.0
  9
$ANGDIR
 70
0
  9
$PDMODE
 70
0
  9
$PDSIZE
 40
0.0
  9
$PLINEWID
 40
0.0
  9
$SPLFRAME
 70
0
  9
$SPLINETYPE
 70
6
  9
$SPLINESEGS
 70
8
  9
$HANDSEED
  5
2B7
  9
$SURFTAB1
 70
6
  9
$SURFTAB2
 70
6
  9
$SURFTYPE
 70
6
  9
$SURFU
 70
6
  9
$SURFV
 70
6
  9
$UCSBASE
  2

  9
$UCSNAME
  2

  9
$UCSORG
 10
0.0
 20
0.0
 30
0.0
  9
$UCSXDIR
 10
1.0
 20
0.0
 30
0.0
  9
$UCSYDIR
 10
0.0
 20
1.0
 30
0.0
  9
$UCSORTHOREF
  2

  9
$UCSORTHOVIEW
 70
0
  9
$UCSORGTOP
 10
0.0
 20
0.0
 30
0.0
  9
$UCSORGBOTTOM
 10
0.0
 20
0.0
 30
0.0
  9
$UCSORGLEFT
 10
0.0
 20
0.0
 30
0.0
  9
$UCSORGRIGHT
 10
0.0
 20
0.0
 30
0.0
  9
$UCSORGFRONT
 10
0.0
 20
0.0
 30
0.0
  9
$UCSORGBACK
 10
0.0
 20
0.0
 30
0.0
  9
$PUCSBASE
  2

  9
$PUCSNAME
  2

  9
$PUCSORG
 10
0.0
 20
0.0
 30
0.0
  9
$PUCSXDIR
 10
1.0
 20
0.0
 30
0.0
  9
$PUCSYDIR
 10
0.0
 20
1.0
 30
0.0
  9
$PUCSORTHOREF
  2

  9
$PUCSORTHOVIEW
 70
0
  9
$PUCSORGTOP
 10
0.0
 20
0.0
 30
0.0
  9
$PUCSORGBOTTOM
 10
0.0
 20
0.0
 30
0.0
  9
$PUCSORGLEFT
 10
0.0
 20
0.0
 30
0.0
  9
$PUCSORGRIGHT
 10
0.0
 20
0.0
 30
0.0
  9
$PUCSORGFRONT
 10
0.0
 20
0.0
 30
0.0
  9
$PUCSORGBACK
 10
0.0
 20
0.0
 30
0.0
  9
$USERI1
 70
0
  9
$USERI2
 70
0
  9
$USERI3
 70
0
  9
$USERI4
 70
0
  9
$USERI5
 70
0
  9
$USERR1
 40
0.0
  9
$USERR2
 40
0.0
  9
$USERR3
 40
0.0
  9
$USERR4
 40
0.0
  9
$USERR5
 40
0.0
  9
$WORLDVIEW
 70
1
  9
$SHADEDGE
 70
3
  9
$SHADEDIF
 70
70
  9
$TILEMODE
 70
1
  9
$MAXACTVP
 70
64
  9
$PINSBASE
 10
0.0
 20
0.0
 30
0.0
  9
$PLIMCHECK
 70
0
  9
$PEXTMIN
 10
1e+20
 20
1e+20
 30
1e+20
  9
$PEXTMAX
 10
-1e+20
 20
-1e+20
 30
-1e+20
  9
$PLIMMIN
 10
0.0
 20
0.0
  9
$PLIMMAX
 10
420.0
 20
297.0
  9
$UNITMODE
 70
0
  9
$VISRETAIN
 70
1
  9
$PLINEGEN
 70
0
  9
$PSLTSCALE
 70
1
  9
$TREEDEPTH
 70
3020
  9
$CMLSTYLE
  2
Standard
  9
$CMLJUST
 70
0
  9
$CMLSCALE
 40
20.0
  9
$PROXYGRAPHICS
 70
1
  9
$MEASUREMENT
 70
1
  9
$CELWEIGHT
370
-1
  9
$ENDCAPS
280
0
  9
$JOINSTYLE
280
0
  9
$LWDISPLAY
290
0
  9
$INSUNITS
 70
4
  9
$HYPERLINKBASE
  1

  9
$STYLESHEET
  1

  9
$XEDIT
290
1
  9
$CEPSNTYPE
380
0
  9
$PSTYLEMODE
290
1
  9
$FINGERPRINTGUID
  2
{DD047EFC-4BB7-459A-A205-B1841DE14CFF}
  9
$VERSIONGUID
  2
{0F29DFFE-AC30-41F2-9DA8-D28D82C4F77C}
  9
$EXTNAMES
290
1
  9
$PSVPSCALE
 40
0.0
  9
$OLESTARTUP
290
0
  9
$SORTENTS
280
127
  9
$INDEXCTL
280
0
  9
$HIDETEXT
280
1
  9
$XCLIPFRAME
280
1
  9
$HALOGAP
280
0
  9
$OBSCOLOR
 70
257
  9
$OBSLTYPE
280
0
  9
$INTERSECTIONDISPLAY
280
0
  9
$INTERSECTIONCOLOR
 70
257
  9
$DIMASSOC
280
2
  9
$PROJECTNAME
  1

  9
$CAMERADISPLAY
290
0
  9
$LENSLENGTH
 40
50.0
  9
$CAMERAHEIGHT
 40
0.0
  9
$STEPSPERSEC
 40
24.0
  9
$STEPSIZE
 40
100.0
  9
$3DDWFPREC
 40
2.0
  9
$PSOLWIDTH
 40
0.005
  9
$PSOLHEIGHT
 40
0.08
  9
$LOFTANG1
 40
1.570796326795
  9
$LOFTANG2
 40
1.570796326795
  9
$LOFTMAG1
 40
0.0
  9
$LOFTMAG2
 40
0.0
  9
$LOFTPARAM
 70
7
  9
$LOFTNORMALS
280
1
  9
$LATITUDE
 40
37.795
  9
$LONGITUDE
 40
-122.394
  9
$NORTHDIRECTION
 40
0.0
  9
$TIMEZONE
 70
-8000
  9
$LIGHTGLYPHDISPLAY
280
1
  9
$TILEMODELIGHTSYNCH
280
1
  9
$CMATERIAL
347
20
  9
$SOLIDHIST
280
0
  9
$SHOWHIST
280
1
  9
$DWFFRAME
280
2
  9
$DGNFRAME
280
2
  9
$REALWORLDSCALE
290
1
  9
$INTERFERECOLOR
 62
256
  9
$CSHADOW
280
0
  9
$SHADOWPLANELOCATION
 40
0.0
  0
ENDSEC
  0
SECTION
  2
CLASSES
  0
CLASS
  1
ACDBDICTIONARYWDFLT
  2
AcDbDictionaryWithDefault
  3
ObjectDBX Classes
 90
0
 91
0
280
0
281
0
  0
CLASS
  1
SUN
  2
AcDbSun
  3
SCENEOE
 90
1153
 91
0
280
0
281
0
  0
CLASS
  1
VISUALSTYLE
  2
AcDbVisualStyle
  3
ObjectDBX Classes
 90
4095
 91
0
280
0
281
0
  0
CLASS
  1
MATERIAL
  2
AcDbMaterial
  3
ObjectDBX Classes
 90
1153
 91
0
280
0
281
0
  0
CLASS
  1
SCALE
  2
AcDbScale
  3
ObjectDBX Classes
 90
1153
 91
0
280
0
281
0
  0
CLASS
  1
TABLESTYLE
  2
AcDbTableStyle
  3
ObjectDBX Classes
 90
4095
 91
0
280
0
281
0
  0
CLASS
  1
MLEADERSTYLE
  2
AcDbMLeaderStyle
  3
ACDB_MLEADERSTYLE_CLASS
 90
4095
 91
0
280
0
281
0
  0
CLASS
  1
DICTIONARYVAR
  2
AcDbDictionaryVar
  3
ObjectDBX Classes
 90
0
 91
0
280
0
281
0
  0
CLASS
  1
CELLSTYLEMAP
  2
AcDbCellStyleMap
  3
ObjectDBX Classes
 90
1152
 91
0
280
0
281
0
  0
CLASS
  1
MENTALRAYRENDERSETTINGS
  2
AcDbMentalRayRenderSettings
  3
SCENEOE
 90
1024
 91
0
280
0
281
0
  0
CLASS
  1
ACDBDETAILVIEWSTYLE
  2
AcDbDetailViewStyle
  3
ObjectDBX Classes
 90
1025
 91
0
280
0
281
0
  0
CLASS
  1
ACDBSECTIONVIEWSTYLE
  2
AcDbSectionViewStyle
  3
ObjectDBX Classes
 90
1025
 91
0
280
0
281
0
  0
CLASS
  1
RASTERVARIABLES
  2
AcDbRasterVariables
  3
ISM
 90
0
 91
0
280
0
281
0
  0
CLASS
  1
ACDBPLACEHOLDER
  2
AcDbPlaceHolder
  3
ObjectDBX Classes
 90
0
 91
0
280
0
281
0
  0
CLASS
  1
LAYOUT
  2
AcDbLayout
  3
ObjectDBX Classes
 90
0
 91
0
280
0
281
0
  0
ENDSEC
  0
SECTION
  2
TABLES
  0
TABLE
  2
VPORT
  5
8
330
0
100
AcDbSymbolTable
 70
1
  0
VPORT
  5
23
330
8
100
AcDbSymbolTableRecord
100
AcDbViewportTableRecord
  2
*Active
 70
0
 10
0.0
 20
0.0
 11
1.0
 21
1.0
 12
0.0
 22
0.0
 13
0.0
 23
0.0
 14
0.5
 24
0.5
 15
0.5
 25
0.5
 16
0.0
 26
0.0
 36
1.0
 17
0.0
 27
0.0
 37
0.0
 40
1000.0
 41
1.34
 42
50.0
 43
0.0
 44
0.0
 50
0.0
 51
0.0
 71
0
 72
1000
 73
1
 74
3
 75
0
 76
0
 77
0
 78
0
281
0
 65
0
146
0.0
  0
ENDTAB
  0
TABLE
  2
LTYPE
  5
2
330
0
100
AcDbSymbolTable
 70
21
  0
LTYPE
  5
24
330
2
100
AcDbSymbolTableRecord
100
AcDbLinetypeTableRecord
  2
ByBlock
 70
0
  3

 72
65
 73
0
 40
0.0
  0
LTYPE
  5
25
330
2
100
AcDbSymbolTableRecord
100
AcDbLinetypeTableRecord
  2
ByLayer
 70
0
  3

 72
65
 73
0
 40
0.0
  0
LTYPE
  5
26
330
2
100
AcDbSymbolTableRecord
100
AcDbLinetypeTableRecord
  2
Continuous
 70
0
  3

 72
65
 73
0
 40
0.0
  0
LTYPE
  5
2F
330
2
100
AcDbSymbolTableRecord
100
AcDbLinetypeTableRecord
  2
CENTER
 70
0
  3
Center ____ _ ____ _ ____ _ ____ _ ____ _ ____
 72
65
 73
4
 40
5.08
 49
3.175
 74
0
 49
-0.635
 74
0
 49
0.635
 74
0
 49
-0.635
 74
0
  0
LTYPE
  5
30
330
2
100
AcDbSymbolTableRecord
100
AcDbLinetypeTableRecord
  2
CENTERX2
 70
0
  3
Center (2x) ________  __  ________  __  ________
 72
65
 73
4
 40
8.89
 49
6.35
 74
0
 49
-0.635
 74
0
 49
1.27
 74
0
 49
-0.635
 74
0
  0
LTYPE
  5
31
330
2
100
AcDbSymbolTableRecord
100
AcDbLinetypeTableRecord
  2
CENTER2
 70
0
  3
Center (.5x) ____ _ ____ _ ____ _ ____ _ ____
 72
65
 73
4
 40
2.54
 49
1.587
 74
0
 49
-0.318
 74
0
 49
0.318
 74
0
 49
-0.318
 74
0
  0
LTYPE
  5
32
330
2
100
AcDbSymbolTableRecord
100
AcDbLinetypeTableRecord
  2
DASHED
 70
0
  3
Dashed __ __ __ __ __ __ __ __ __ __ __ __ __ _
 72
65
 73
2
 40
1.524
 49
1.27
 74
0
 49
-0.254
 74
0
  0
LTYPE
  5
33
330
2
100
AcDbSymbolTableRecord
100
AcDbLinetypeTableRecord
  2
DASHEDX2
 70
0
  3
Dashed (2x) ____  ____  ____  ____  ____  ____
 72
65
 73
2
 40
3.048
 49
2.54
 74
0
 49
-0.508
 74
0
  0
LTYPE
  5
34
330
2
100
AcDbSymbolTableRecord
100
AcDbLinetypeTableRecord
  2
DASHED2
 70
0
  3
Dashed (.5x) _ _ _ _ _ _ _ _ _ _ _ _ _ _
 72
65
 73
2
 40
0.762
 49
0.635
 74
0
 49
-0.127
 74
0
  0
LTYPE
  5
35
330
2
100
AcDbSymbolTableRecord
100
AcDbLinetypeTableRecord
  2
PHANTOM
 70
0
  3
Phantom ______  __  __  ______  __  __  ______
 72
65
 73
6
 40
6.35
 49
3.175
 74
0
 49
-0.635
 74
0
 49
0.635
 74
0
 49
-0.635
 74
0
 49
0.635
 74
0
 49
-0.635
 74
0
  0
LTYPE
  5
36
330
2
100
AcDbSymbolTableRecord
100
AcDbLinetypeTableRecord
  2
PHANTOMX2
 70
0
  3
Phantom (2x)____________    ____    ____    ____________
 72
65
 73
6
 40
10.795
 49
6.35
 74
0
 49
-0.635
 74
0
 49
1.27
 74
0
 49
-0.635
 74
0
 49
1.27
 74
0
 49
-0.635
 74
0
  0
LTYPE
  5
37
330
2
100
AcDbSymbolTableRecord
100
AcDbLinetypeTableRecord
  2
PHANTOM2
 70
0
  3
Phantom (.5x) ___ _ _ ___ _ _ ___ _ _ ___ _ _ ___
 72
65
 73
6
 40
3.175
 49
1.587
 74
0
 49
-0.318
 74
0
 49
0.318
 74
0
 49
-0.318
 74
0
 49
0.318
 74
0
 49
-0.318
 74
0
  0
LTYPE
  5
38
330
2
100
AcDbSymbolTableRecord
100
AcDbLinetypeTableRecord
  2
DASHDOT
 70
0
  3
Dash dot __ . __ . __ . __ . __ . __ . __ . __
 72
65
 73
4
 40
3.556
 49
2.54
 74
0
 49
-0.508
 74
0
 49
0.0
 74
0
 49
-0.508
 74
0
  0
LTYPE
  5
39
330
2
100
AcDbSymbolTableRecord
100
AcDbLinetypeTableRecord
  2
DASHDOTX2
 70
0
  3
Dash dot (2x) ____  .  ____  .  ____  .  ____
 72
65
 73
4
 40
6.096
 49
5.08
 74
0
 49
-0.508
 74
0
 49
0.0
 74
0
 49
-0.508
 74
0
  0
LTYPE
  5
3A
330
2
100
AcDbSymbolTableRecord
100
AcDbLinetypeTableRecord
  2
DASHDOT2
 70
0
  3
Dash dot (.5x) _ . _ . _ . _ . _ . _ . _ . _
 72
65
 73
4
 40
1.778
 49
1.27
 74
0
 49
-0.254
 74
0
 49
0.0
 74
0
 49
-0.254
 74
0
  0
LTYPE
  5
3B
330
2
100
AcDbSymbolTableRecord
100
AcDbLinetypeTableRecord
  2
DOT
 70
0
  3
Dot .  .  .  .  .  .  .  .  .  .  .  .  .  .  .  .
 72
65
 73
2
 40
0.508
 49
0.0
 74
0
 49
-0.508
 74
0
  0
LTYPE
  5
3C
330
2
100
AcDbSymbolTableRecord
100
AcDbLinetypeTableRecord
  2
DOTX2
 70
0
  3
Dot (2x) .    .    .    .    .    .    .    . 
 72
65
 73
2
 40
1.016
 49
0.0
 74
0
 49
-1.016
 74
0
  0
LTYPE
  5
3D
330
2
100
AcDbSymbolTableRecord
100
AcDbLinetypeTableRecord
  2
DOT2
 70
0
  3
Dot (.5) . . . . . . . . . . . . . . . . . . . 
 72
65
 73
2
 40
0.254
 49
0.0
 74
0
 49
-0.254
 74
0
  0
LTYPE
  5
3E
330
2
100
AcDbSymbolTableRecord
100
AcDbLinetypeTableRecord
  2
DIVIDE
 70
0
  3
Divide __ . . __ . . __ . . __ . . __ . . __
 72
65
 73
6
 40
4.064
 49
2.54
 74
0
 49
-0.508
 74
0
 49
0.0
 74
0
 49
-0.508
 74
0
 49
0.0
 74
0
 49
-0.508
 74
0
  0
LTYPE
  5
3F
330
2
100
AcDbSymbolTableRecord
100
AcDbLinetypeTableRecord
  2
DIVIDEX2
 70
0
  3
Divide (2x) ____  . .  ____  . .  ____  . .  ____
 72
65
 73
6
 40
6.604
 49
5.08
 74
0
 49
-0.508
 74
0
 49
0.0
 74
0
 49
-0.508
 74
0
 49
0.0
 74
0
 49
-0.508
 74
0
  0
LTYPE
  5
40
330
2
100
AcDbSymbolTableRecord
100
AcDbLinetypeTableRecord
  2
DIVIDE2
 70
0
  3
Divide(.5x) _ . _ . _ . _ . _ . _ . _ . _
 72
65
 73
6
 40
2.032
 49
1.27
 74
0
 49
-0.254
 74
0
 49
0.0
 74
0
 49
-0.254
 74
0
 49
0.0
 74
0
 49
-0.254
 74
0
  0
ENDTAB
  0
TABLE
  2
LAYER
  5
1
330
0
100
AcDbSymbolTable
 70
10
  0
LAYER
  5
27
330
1
100
AcDbSymbolTableRecord
100
AcDbLayerTableRecord
  2
0
 70
0
 62
7
  6
Continuous
370
-3
390
13
347
21
  0
LAYER
  5
28
330
1
100
AcDbSymbolTableRecord
100
AcDbLayerTableRecord
  2
Defpoints
 70
0
 62
7
  6
Continuous
290
0
370
-3
390
13
347
21
  0
LAYER
  5
8A
330
1
100
AcDbSymbolTableRecord
100
AcDbLayerTableRecord
  2
TOP_PLATE
 70
0
 62
1
  6
Continuous
370
-3
390
13
347
21
  0
LAYER
  5
106
330
1
100
AcDbSymbolTableRecord
100
AcDbLayerTableRecord
  2
LOWER_PLATE
 70
0
 62
2
  6
Continuous
370
-3
390
13
347
21
  0
LAYER
  5
1A1
330
1
100
AcDbSymbolTableRecord
100
AcDbLayerTableRecord
  2
BELLY_PLATE
 70
0
 62
3
  6
Continuous
370
-3
390
13
347
21
  0
LAYER
  5
1EA
330
1
100
AcDbSymbolTableRecord
100
AcDbLayerTableRecord
  2
CHIN_PLATE
 70
0
 62
4
  6
Continuous
370
-3
390
13
347
21
  0
LAYER
  5
217
330
1
100
AcDbSymbolTableRecord
100
AcDbLayerTableRecord
  2
TAIL_PLATE
 70
0
 62
5
  6
Continuous
370
-3
390
13
347
21
  0
LAYER
  5
232
330
1
100
AcDbSymbolTableRecord
100
AcDbLayerTableRecord
  2
ARM
 70
0
 62
6
  6
Continuous
370
-3
390
13
347
21
  0
LAYER
  5
286
330
1
100
AcDbSymbolTableRecord
100
AcDbLayerTableRecord
  2
ARM_BRACE
 70
0
 62
7
  6
Continuous
370
-3
390
13
347
21
  0
LAYER
  5
2A3
330
1
100
AcDbSymbolTableRecord
100
AcDbLayerTableRecord
  2
STANDOFFS
 70
0
 62
1
  6
Continuous
370
-3
390
13
347
21
  0
ENDTAB
  0
TABLE
  2
STYLE
  5
5
330
0
100
AcDbSymbolTable
 70
26
  0
STYLE
  5
29
330
5
100
AcDbSymbolTableRecord
100
AcDbTextStyleTableRecord
  2
Standard
 70
0
 40
0.0
 41
1.0
 50
0.0
 71
0
 42
2.5
  3
txt
  4

  0
STYLE
  5
41
330
5
100
AcDbSymbolTableRecord
100
AcDbTextStyleTableRecord
  2
OpenSans-Light
 70
0
 40
0.0
 41
1.0
 50
0.0
 71
0
 42
2.5
  3
OpenSans-Light.ttf
  4

  0
STYLE
  5
42
330
5
100
AcDbSymbolTableRecord
100
AcDbTextStyleTableRecord
  2
OpenSans-Light-Italic
 70
0
 40
0.0
 41
1.0
 50
0.0
 71
0
 42
2.5
  3
OpenSans-LightItalic.ttf
  4

  0
STYLE
  5
43
330
5
100
AcDbSymbolTableRecord
100
AcDbTextStyleTableRecord
  2
OpenSans
 70
0
 40
0.0
 41
1.0
 50
0.0
 71
0
 42
2.5
  3
OpenSans-Regular.ttf
  4

  0
STYLE
  5
44
330
5
100
AcDbSymbolTableRecord
100
AcDbTextStyleTableRecord
  2
OpenSans-Italic
 70
0
 40
0.0
 41
1.0
 50
0.0
 71
0
 42
2.5
  3
OpenSans-Italic.ttf
  4

  0
STYLE
  5
45
330
5
100
AcDbSymbolTableRecord
100
AcDbTextStyleTableRecord
  2
OpenSans-SemiBold
 70
0
 40
0.0
 41
1.0
 50
0.0
 71
0
 42
2.5
  3
OpenSans-SemiBold.ttf
  4

  0
STYLE
  5
46
330
5
100
AcDbSymbolTableRecord
100
AcDbTextStyleTableRecord
  2
OpenSans-SemiBoldItalic
 70
0
 40
0.0
 41
1.0
 50
0.0
 71
0
 42
2.5
  3
OpenSans-SemiBoldItalic.ttf
  4

  0
STYLE
  5
47
330
5
100
AcDbSymbolTableRecord
100
AcDbTextStyleTableRecord
  2
OpenSans-Bold
 70
0
 40
0.0
 41
1.0
 50
0.0
 71
0
 42
2.5
  3
OpenSans-Bold.ttf
  4

  0
STYLE
  5
48
330
5
100
AcDbSymbolTableRecord
100
AcDbTextStyleTableRecord
  2
OpenSans-BoldItalic
 70
0
 40
0.0
 41
1.0
 50
0.0
 71
0
 42
2.5
  3
OpenSans-BoldItalic.ttf
  4

  0
STYLE
  5
49
330
5
100
AcDbSymbolTableRecord
100
AcDbTextStyleTableRecord
  2
OpenSans-ExtraBold
 70
0
 40
0.0
 41
1.0
 50
0.0
 71
0
 42
2.5
  3
OpenSans-ExtraBold.ttf
  4

  0
STYLE
  5
4A
330
5
100
AcDbSymbolTableRecord
100
AcDbTextStyleTableRecord
  2
OpenSans-ExtraBoldItalic
 70
0
 40
0.0
 41
1.0
 50
0.0
 71
0
 42
2.5
  3
OpenSans-ExtraBoldItalic.ttf
  4

  0
STYLE
  5
4B
330
5
100
AcDbSymbolTableRecord
100
AcDbTextStyleTableRecord
  2
OpenSansCondensed-Bold
 70
0
 40
0.0
 41
1.0
 50
0.0
 71
0
 42
2.5
  3
OpenSansCondensed-Bold.ttf
  4

  0
STYLE
  5
4C
330
5
100
AcDbSymbolTableRecord
100
AcDbTextStyleTableRecord
  2
OpenSansCondensed-Light
 70
0
 40
0.0
 41
1.0
 50
0.0
 71
0
 42
2.5
  3
OpenSansCondensed-Light.ttf
  4

  0
STYLE
  5
4D
330
5
100
AcDbSymbolTableRecord
100
AcDbTextStyleTableRecord
  2
OpenSansCondensed-Italic
 70
0
 40
0.0
 41
1.0
 50
0.0
 71
0
 42
2.5
  3
OpenSansCondensed-LightItalic.ttf
  4

  0
STYLE
  5
4E
330
5
100
AcDbSymbolTableRecord
100
AcDbTextStyleTableRecord
  2
LiberationSans
 70
0
 40
0.0
 41
1.0
 50
0.0
 71
0
 42
2.5
  3
LiberationSans-Regular.ttf
  4

  0
STYLE
  5
4F
330
5
100
AcDbSymbolTableRecord
100
AcDbTextStyleTableRecord
  2
LiberationSans-Bold
 70
0
 40
0.0
 41
1.0
 50
0.0
 71
0
 42
2.5
  3
LiberationSans-Bold.ttf
  4

  0
STYLE
  5
50
330
5
100
AcDbSymbolTableRecord
100
AcDbTextStyleTableRecord
  2
LiberationSans-BoldItalic
 70
0
 40
0.0
 41
1.0
 50
0.0
 71
0
 42
2.5
  3
LiberationSans-BoldItalic.ttf
  4

  0
STYLE
  5
51
330
5
100
AcDbSymbolTableRecord
100
AcDbTextStyleTableRecord
  2
LiberationSans-Italic
 70
0
 40
0.0
 41
1.0
 50
0.0
 71
0
 42
2.5
  3
LiberationSans-Italic.ttf
  4

  0
STYLE
  5
52
330
5
100
AcDbSymbolTableRecord
100
AcDbTextStyleTableRecord
  2
LiberationSerif
 70
0
 40
0.0
 41
1.0
 50
0.0
 71
0
 42
2.5
  3
LiberationSerif-Regular.ttf
  4

  0
STYLE
  5
53
330
5
100
AcDbSymbolTableRecord
100
AcDbTextStyleTableRecord
  2
LiberationSerif-Bold
 70
0
 40
0.0
 41
1.0
 50
0.0
 71
0
 42
2.5
  3
LiberationSerif-Bold.ttf
  4

  0
STYLE
  5
54
330
5
100
AcDbSymbolTableRecord
100
AcDbTextStyleTableRecord
  2
LiberationSerif-BoldItalic
 70
0
 40
0.0
 41
1.0
 50
0.0
 71
0
 42
2.5
  3
LiberationSerif-BoldItalic.ttf
  4

  0
STYLE
  5
55
330
5
100
AcDbSymbolTableRecord
100
AcDbTextStyleTableRecord
  2
LiberationSerif-Italic
 70
0
 40
0.0
 41
1.0
 50
0.0
 71
0
 42
2.5
  3
LiberationSerif-Italic.ttf
  4

  0
STYLE
  5
56
330
5
100
AcDbSymbolTableRecord
100
AcDbTextStyleTableRecord
  2
LiberationMono
 70
0
 40
0.0
 41
1.0
 50
0.0
 71
0
 42
2.5
  3
LiberationMono-Regular.ttf
  4

  0
STYLE
  5
57
330
5
100
AcDbSymbolTableRecord
100
AcDbTextStyleTableRecord
  2
LiberationMono-Bold
 70
0
 40
0.0
 41
1.0
 50
0.0
 71
0
 42
2.5
  3
LiberationMono-Bold.ttf
  4

  0
STYLE
  5
58
330
5
100
AcDbSymbolTableRecord
100
AcDbTextStyleTableRecord
  2
LiberationMono-BoldItalic
 70
0
 40
0.0
 41
1.0
 50
0.0
 71
0
 42
2.5
  3
LiberationMono-BoldItalic.ttf
  4

  0
STYLE
  5
59
330
5
100
AcDbSymbolTableRecord
100
AcDbTextStyleTableRecord
  2
LiberationMono-Italic
 70
0
 40
0.0
 41
1.0
 50
0.0
 71
0
 42
2.5
  3
LiberationMono-Italic.ttf
  4

  0
ENDTAB
  0
TABLE
  2
VIEW
  5
7
330
0
100
AcDbSymbolTable
 70
0
  0
ENDTAB
  0
TABLE
  2
UCS
  5
6
330
0
100
AcDbSymbolTable
 70
0
  0
ENDTAB
  0
TABLE
  2
APPID
  5
3
330
0
100
AcDbSymbolTable
 70
3
  0
APPID
  5
2A
330
3
100
AcDbSymbolTableRecord
100
AcDbRegAppTableRecord
  2
ACAD
 70
0
  0
APPID
  5
2B4
330
3
100
AcDbSymbolTableRecord
100
AcDbRegAppTableRecord
  2
HATCHBACKGROUNDCOLOR
 70
0
  0
APPID
  5
2B5
330
3
100
AcDbSymbolTableRecord
100
AcDbRegAppTableRecord
  2
EZDXF
 70
0
  0
ENDTAB
  0
TABLE
  2
DIMSTYLE
  5
4
330
0
100
AcDbSymbolTable
 70
12
100
AcDbDimStyleTable
  0
DIMSTYLE
105
2B
330
4
100
AcDbSymbolTableRecord
100
AcDbDimStyleTableRecord
  2
Standard
 70
0
 40
1.0
 41
2.5
 42
0.625
 43
3.75
 44
1.25
 45
0.0
 46
0.0
 47
0.0
 48
0.0
 49
2.5
140
2.5
141
2.5
142
0.0
143
0.03937007874
144
1.0
145
0.0
146
1.0
147
0.625
148
0.0
 69
0
 70
0
 71
0
 72
0
 73
0
 74
0
 75
0
 76
0
 77
1
 78
8
 79
3
170
0
171
3
172
1
173
0
174
0
175
0
176
0
177
0
178
0
179
2
271
2
272
2
273
2
274
3
275
0
276
0
277
2
278
44
279
0
280
0
281
0
282
0
283
0
284
8
285
0
286
0
288
0
289
3
290
0
371
-2
372
-2
  0
DIMSTYLE
105
73
330
4
100
AcDbSymbolTableRecord
100
AcDbDimStyleTableRecord
  2
EZDXF
 70
0
 40
1.0
 41
0.175
 42
0.125
 43
3.75
 44
0.375
 45
0.0
 46
0.0
 47
0.0
 48
0.0
 49
2.5
140
0.25
141
2.5
142
0.0
143
0.03937007874
144
100.0
145
0.0
146
0.5
147
0.1
148
0.0
 69
0
 70
0
 71
0
 72
0
 73
0
 74
0
 75
0
 76
0
 77
1
 78
12
 79
3
170
0
171
3
172
1
173
0
174
0
175
0
176
0
177
0
178
0
179
2
271
2
272
2
273
2
274
3
275
0
276
0
277
2
278
46
279
2
280
0
281
0
282
0
283
0
284
8
285
0
286
0
288
1
289
3
290
0
340
4C
342
74
371
-2
372
-2
  0
DIMSTYLE
105
7C
330
4
100
AcDbSymbolTableRecord
100
AcDbDimStyleTableRecord
  2
EZ_M_100_H25_CM
 70
0
 40
1.0
 41
0.25
 42
0.125
 43
3.75
 44
0.375
 45
0.0
 46
0.0
 47
0.0
 48
0.0
 49
2.5
140
0.25
141
2.5
142
0.125
143
0.03937007874
144
100.0
145
0.0
146
0.5
147
0.1
148
0.0
 69
0
 70
0
 71
0
 72
0
 73
0
 74
0
 75
0
 76
0
 77
1
 78
12
 79
3
170
0
171
3
172
1
173
0
174
0
175
0
176
0
177
0
178
0
179
2
271
2
272
2
273
2
274
3
275
0
276
0
277
2
278
46
279
2
280
0
281
0
282
0
283
0
284
8
285
0
286
0
288
1
289
3
290
0
340
4C
371
-2
372
-2
  0
DIMSTYLE
105
7D
330
4
100
AcDbSymbolTableRecord
100
AcDbDimStyleTableRecord
  2
EZ_M_50_H25_CM
 70
0
 40
1.0
 41
0.125
 42
0.0625
 43
3.75
 44
0.1875
 45
0.0
 46
0.0
 47
0.0
 48
0.0
 49
2.5
140
0.125
141
2.5
142
0.0625
143
0.03937007874
144
100.0
145
0.0
146
0.5
147
0.05
148
0.0
 69
0
 70
0
 71
0
 72
0
 73
0
 74
0
 75
0
 76
0
 77
1
 78
12
 79
3
170
0
171
3
172
1
173
0
174
0
175
0
176
0
177
0
178
0
179
2
271
2
272
2
273
2
274
3
275
0
276
0
277
2
278
46
279
2
280
0
281
0
282
0
283
0
284
8
285
0
286
0
288
1
289
3
290
0
340
4C
371
-2
372
-2
  0
DIMSTYLE
105
7E
330
4
100
AcDbSymbolTableRecord
100
AcDbDimStyleTableRecord
  2
EZ_M_25_H25_CM
 70
0
 40
1.0
 41
0.0625
 42
0.03125
 43
3.75
 44
0.09375
 45
0.0
 46
0.0
 47
0.0
 48
0.0
 49
2.5
140
0.0625
141
2.5
142
0.03125
143
0.03937007874
144
100.0
145
0.0
146
0.5
147
0.025
148
0.0
 69
0
 70
0
 71
0
 72
0
 73
0
 74
0
 75
0
 76
0
 77
1
 78
12
 79
3
170
0
171
3
172
1
173
0
174
0
175
0
176
0
177
0
178
0
179
2
271
2
272
2
273
2
274
3
275
0
276
0
277
2
278
46
279
2
280
0
281
0
282
0
283
0
284
8
285
0
286
0
288
1
289
3
290
0
340
4C
371
-2
372
-2
  0
DIMSTYLE
105
7F
330
4
100
AcDbSymbolTableRecord
100
AcDbDimStyleTableRecord
  2
EZ_M_20_H25_CM
 70
0
 40
1.0
 41
0.05
 42
0.025
 43
3.75
 44
0.07500000000000001
 45
0.0
 46
0.0
 47
0.0
 48
0.0
 49
2.5
140
0.05
141
2.5
142
0.025
143
0.03937007874
144
100.0
145
0.0
146
0.5
147
0.020000000000000004
148
0.0
 69
0
 70
0
 71
0
 72
0
 73
0
 74
0
 75
0
 76
0
 77
1
 78
12
 79
3
170
0
171
3
172
1
173
0
174
0
175
0
176
0
177
0
178
0
179
2
271
2
272
2
273
2
274
3
275
0
276
0
277
2
278
46
279
2
280
0
281
0
282
0
283
0
284
8
285
0
286
0
288
1
289
3
290
0
340
4C
371
-2
372
-2
  0
DIMSTYLE
105
80
330
4
100
AcDbSymbolTableRecord
100
AcDbDimStyleTableRecord
  2
EZ_M_10_H25_CM
 70
0
 40
1.0
 41
0.025
 42
0.0125
 43
3.75
 44
0.037500000000000006
 45
0.0
 46
0.0
 47
0.0
 48
0.0
 49
2.5
140
0.025
141
2.5
142
0.0125
143
0.03937007874
144
100.0
145
0.0
146
0.5
147
0.010000000000000002
148
0.0
 69
0
 70
0
 71
0
 72
0
 73
0
 74
0
 75
0
 76
0
 77
1
 78
12
 79
3
170
0
171
3
172
1
173
0
174
0
175
0
176
0
177
0
178
0
179
2
271
2
272
2
273
2
274
3
275
0
276
0
277
2
278
46
279
2
280
0
281
0
282
0
283
0
284
8
285
0
286
0
288
1
289
3
290
0
340
4C
371
-2
372
-2
  0
DIMSTYLE
105
81
330
4
100
AcDbSymbolTableRecord
100
AcDbDimStyleTableRecord
  2
EZ_M_5_H25_CM
 70
0
 40
1.0
 41
0.0125
 42
0.00625
 43
3.75
 44
0.018750000000000003
 45
0.0
 46
0.0
 47
0.0
 48
0.0
 49
2.5
140
0.0125
141
2.5
142
0.00625
143
0.03937007874
144
100.0
145
0.0
146
0.5
147
0.005000000000000001
148
0.0
 69
0
 70
0
 71
0
 72
0
 73
0
 74
0
 75
0
 76
0
 77
1
 78
12
 79
3
170
0
171
3
172
1
173
0
174
0
175
0
176
0
177
0
178
0
179
2
271
2
272
2
273
2
274
3
275
0
276
0
277
2
278
46
279
2
280
0
281
0
282
0
283
0
284
8
285
0
286
0
288
1
289
3
290
0
340
4C
371
-2
372
-2
  0
DIMSTYLE
105
82
330
4
100
AcDbSymbolTableRecord
100
AcDbDimStyleTableRecord
  2
EZ_M_1_H25_CM
 70
0
 40
1.0
 41
0.0025
 42
0.00125
 43
3.75
 44
0.00375
 45
0.0
 46
0.0
 47
0.0
 48
0.0
 49
2.5
140
0.0025
141
2.5
142
0.00125
143
0.03937007874
144
100.0
145
0.0
146
0.5
147
0.001
148
0.0
 69
0
 70
0
 71
0
 72
0
 73
0
 74
0
 75
0
 76
0
 77
1
 78
12
 79
3
170
0
171
3
172
1
173
0
174
0
175
0
176
0
177
0
178
0
179
2
271
2
272
2
273
2
274
3
275
0
276
0
277
2
278
46
279
2
280
0
281
0
282
0
283
0
284
8
285
0
286
0
288
1
289
3
290
0
340
4C
371
-2
372
-2
  0
DIMSTYLE
105
83
330
4
100
AcDbSymbolTableRecord
100
AcDbDimStyleTableRecord
  2
EZ_RADIUS
 70
0
 40
1.0
 41
0.25
 42
0.125
 43
3.75
 44
0.375
 45
0.0
 46
0.0
 47
0.0
 48
0.0
 49
2.5
140
0.25
141
0.0
142
0.0
143
0.03937007874
144
100.0
145
0.0
146
0.5
147
0.1
148
0.0
 69
0
 70
0
 71
0
 72
0
 73
0
 74
0
 75
0
 76
0
 77
1
 78
12
 79
3
170
0
171
3
172
0
173
0
174
0
175
0
176
0
177
0
178
0
179
2
271
2
272
2
273
2
274
3
275
0
276
0
277
2
278
46
279
1
280
0
281
0
282
0
283
0
284
8
285
0
286
0
288
1
289
3
290
0
340
4C
342
84
371
-2
372
-2
  0
DIMSTYLE
105
88
330
4
100
AcDbSymbolTableRecord
100
AcDbDimStyleTableRecord
  2
EZ_RADIUS_INSIDE
 70
0
 40
1.0
 41
0.25
 42
0.125
 43
3.75
 44
0.375
 45
0.0
 46
0.0
 47
0.0
 48
0.0
 49
2.5
140
0.25
141
0.0
142
0.0
143
0.03937007874
144
100.0
145
0.0
146
0.5
147
0.1
148
0.0
 69
0
 70
0
 71
0
 72
0
 73
0
 74
0
 75
0
 76
0
 77
0
 78
12
 79
3
170
0
171
3
172
0
173
0
174
1
175
0
176
0
177
0
178
0
179
2
271
2
272
2
273
2
274
3
275
0
276
0
277
2
278
46
279
0
280
0
281
0
282
0
283
0
284
8
285
0
286
0
288
1
289
0
290
0
340
4C
342
84
371
-2
372
-2
  0
DIMSTYLE
105
89
330
4
100
AcDbSymbolTableRecord
100
AcDbDimStyleTableRecord
  2
EZ_CURVED
 70
0
 40
1.0
 41
0.25
 42
0.125
 43
3.75
 44
0.375
 45
0.0
 46
0.0
 47
0.0
 48
0.0
 49
2.5
140
0.25
141
2.5
142
0.0
143
0.03937007874
144
100.0
145
0.0
146
0.5
147
0.1
148
0.0
 69
0
 70
0
 71
0
 72
0
 73
0
 74
0
 75
0
 76
0
 77
1
 78
12
 79
2
 90
2
170
0
171
3
172
1
173
0
174
0
175
0
176
0
177
0
178
0
179
2
271
2
272
2
273
2
274
3
275
0
276
0
277
2
278
46
279
2
280
0
281
0
282
0
283
0
284
8
285
0
286
0
288
1
289
3
290
0
340
4C
371
-2
372
-2
  0
ENDTAB
  0
TABLE
  2
BLOCK_RECORD
  5
9
330
0
100
AcDbSymbolTable
 70
5
  0
BLOCK_RECORD
  5
17
330
9
100
AcDbSymbolTableRecord
100
AcDbBlockTableRecord
  2
*Model_Space
340
1A
 70
0
280
1
281
0
  0
BLOCK_RECORD
  5
1B
330
9
100
AcDbSymbolTableRecord
100
AcDbBlockTableRecord
  2
*Paper_Space
340
1E
 70
0
280
1
281
0
  0
BLOCK_RECORD
  5
74
330
9
100
AcDbSymbolTableRecord
100
AcDbBlockTableRecord
  2
_ARCHTICK
340
0
 70
0
280
1
281
0
  0
BLOCK_RECORD
  5
78
330
9
100
AcDbSymbolTableRecord
100
AcDbBlockTableRecord
  2
_CLOSEDFILLED
340
0
 70
0
280
1
281
0
  0
BLOCK_RECORD
  5
84
330
9
100
AcDbSymbolTableRecord
100
AcDbBlockTableRecord
  2
_CLOSEDBLANK
340
0
 70
0
280
1
281
0
  0
ENDTAB
  0
ENDSEC
  0
SECTION
  2
BLOCKS
  0
BLOCK
  5
18
330
17
100
AcDbEntity
  8
0
100
AcDbBlockBegin
  2
*Model_Space
 70
0
 10
0.0
 20
0.0
 30
0.0
  3
*Model_Space
  1

  0
ENDBLK
  5
19
330
17
100
AcDbEntity
  8
0
100
AcDbBlockEnd
  0
BLOCK
  5
1C
330
1B
100
AcDbEntity
  8
0
100
AcDbBlockBegin
  2
*Paper_Space
 70
0
 10
0.0
 20
0.0
 30
0.0
  3
*Paper_Space
  1

  0
ENDBLK
  5
1D
330
1B
100
AcDbEntity
  8
0
100
AcDbBlockEnd
  0
BLOCK
  5
75
330
74
100
AcDbEntity
  8
0
100
AcDbBlockBegin
  2
_ARCHTICK
 70
0
 10
0.0
 20
0.0
 30
0.0
  3
_ARCHTICK
  1

  0
LWPOLYLINE
  5
77
330
74
100
AcDbEntity
  8
0
  6
BYBLOCK
 62
0
100
AcDbPolyline
 90
2
 70
0
 43
0.15
 10
-0.5
 20
-0.5
 10
0.5
 20
0.5
  0
ENDBLK
  5
76
330
74
100
AcDbEntity
  8
0
100
AcDbBlockEnd
  0
BLOCK
  5
79
330
78
100
AcDbEntity
  8
0
100
AcDbBlockBegin
  2
_CLOSEDFILLED
 70
0
 10
0.0
 20
0.0
 30
0.0
  3
_CLOSEDFILLED
  1

  0
SOLID
  5
7B
330
78
100
AcDbEntity
  8
0
  6
BYBLOCK
 62
0
100
AcDbTrace
 10
-1.0
 20
0.16439898372402537
 30
0.0
 11
0.0
 21
0.0
 31
0.0
 12
-1.0
 22
-0.16439898372402537
 32
0.0
 13
-1.0
 23
-0.16439898372402537
 33
0.0
  0
ENDBLK
  5
7A
330
78
100
AcDbEntity
  8
0
100
AcDbBlockEnd
  0
BLOCK
  5
85
330
84
100
AcDbEntity
  8
0
100
AcDbBlockBegin
  2
_CLOSEDBLANK
 70
0
 10
0.0
 20
0.0
 30
0.0
  3
_CLOSEDBLANK
  1

  0
LWPOLYLINE
  5
87
330
84
100
AcDbEntity
  8
0
  6
BYBLOCK
 62
0
100
AcDbPolyline
 90
3
 70
1
 10
-1.0
 20
0.16439898372402537
 10
0.0
 20
0.0
 10
-1.0
 20
-0.16439898372402537
  0
ENDBLK
  5
86
330
84
100
AcDbEntity
  8
0
100
AcDbBlockEnd
  0
ENDSEC
  0
SECTION
  2
ENTITIES
  0
ARC
  5
8B
330
17
100
AcDbEntity
  8
TOP_PLATE
100
AcDbCircle
 10
1.4295473537e-14
 20
-114.2314
 30
0.0
 40
1.662811601489
100
AcDbArc
 50
54.09500247955775
 51
89.99999999999999
  0
LINE
  5
8C
330
17
100
AcDbEntity
  8
TOP_PLATE
100
AcDbLine
 10
0.975144238871
 20
-112.8845384126
 30
0.0
 11
5.359222817021
 21
-115.3980615865
 31
0.0
  0
ARC
  5
8D
330
17
100
AcDbEntity
  8
TOP_PLATE
100
AcDbCircle
 10
4.221014713784
 20
-117.0451324281
 30
0.0
 40
2.002088920004
100
AcDbArc
 50
-353.83454955580635
 51
-304.6464072297271
  0
LINE
  5
8E
330
17
100
AcDbEntity
  8
TOP_PLATE
100
AcDbLine
 10
6.211523365707
 20
-116.8301083592
 30
0.0
 11
7.392647696567
 21
-124.4390743609
 31
0.0
  0
ARC
  5
8F
330
17
100
AcDbEntity
  8
TOP_PLATE
100
AcDbCircle
 10
8.297045
 20
-124.012383
 30
0.0
 40
1.0
100
AcDbArc
 50
-154.74223190744618
 51
-46.741882776670764
  0
LINE
  5
90
330
17
100
AcDbEntity
  8
TOP_PLATE
100
AcDbLine
 10
8.982331173382
 20
-124.7406568911
 30
0.0
 11
12.0
 21
-122.016273
 31
0.0
  0
ARC
  5
91
330
17
100
AcDbEntity
  8
TOP_PLATE
100
AcDbCircle
 10
10.714577440247
 20
-120.48405603
 30
0.0
 40
2.0
100
AcDbArc
 50
-50.005708799901186
 51
-19.61629430395388
  0
LINE
  5
92
330
17
100
AcDbEntity
  8
TOP_PLATE
100
AcDbLine
 10
12.598501472007
 20
-121.1554949644
 30
0.0
 11
15.6035
 21
-109.080269
 31
0.0
  0
ARC
  5
93
330
17
100
AcDbEntity
  8
TOP_PLATE
100
AcDbCircle
 10
13.662810891445
 20
-108.5968170541
 30
0.0
 40
2.0
100
AcDbArc
 50
-373.9884310955382
 51
-317.9928805085698
  0
LINE
  5
94
330
17
100
AcDbEntity
  8
TOP_PLATE
100
AcDbLine
 10
15.148934240498
 20
-107.2583711675
 30
0.0
 11
11.884009766726
 21
-103.6258193248
 31
0.0
  0
ARC
  5
95
330
17
100
AcDbEntity
  8
TOP_PLATE
100
AcDbCircle
 10
13.297326
 20
-102.141556
 30
0.0
 40
2.049512232892
100
AcDbArc
 50
-195.94432223653615
 51
-133.59739593334007
  0
LINE
  5
96
330
17
100
AcDbEntity
  8
TOP_PLATE
100
AcDbLine
 10
11.326660356552
 20
-101.5785486159
 30
0.0
 11
16.835003
 21
-58.026443
 31
0.0
  0
ARC
  5
97
330
17
100
AcDbEntity
  8
TOP_PLATE
100
AcDbCircle
 10
10.325990838356
 20
-57.02041812756
 30
0.0
 40
6.586298305148
100
AcDbArc
 50
-8.786043484984361
 51
7.6353770129283305
  0
LINE
  5
98
330
17
100
AcDbEntity
  8
TOP_PLATE
100
AcDbLine
 10
16.853892982414
 20
-56.14530729915
 30
0.0
 11
16.323631700186
 21
-51.2453046529
 31
0.0
  0
ARC
  5
99
330
17
100
AcDbEntity
  8
TOP_PLATE
100
AcDbCircle
 10
6.318623026338
 20
-52.32801197188
 30
0.0
 40
10.063421570338
100
AcDbArc
 50
6.1763153629981105
 51
26.295621455467284
  0
LINE
  5
9A
330
17
100
AcDbEntity
  8
TOP_PLATE
100
AcDbLine
 10
15.340684623541
 20
-47.86988924604
 30
0.0
 11
14.085518009057
 21
-45.56173072965
 31
0.0
  0
ARC
  5
9B
330
17
100
AcDbEntity
  8
TOP_PLATE
100
AcDbCircle
 10
19.8675781185
 20
-42.41747145942
 30
0.0
 40
6.581685609905
100
AcDbArc
 50
-170.56118715074552
 51
-151.46284371365078
  0
LINE
  5
9C
330
17
100
AcDbEntity
  8
TOP_PLATE
100
AcDbLine
 10
13.375000000009
 20
-43.49682999255
 30
0.0
 11
13.433010314252
 21
10.500148398353
 31
0.0
  0
ARC
  5
9D
330
17
100
AcDbEntity
  8
TOP_PLATE
100
AcDbCircle
 10
15.557945743444
 20
10.497865526687
 30
0.0
 40
2.124936655465
100
AcDbArc
 50
137.4711963114066
 51
179.93844572427318
  0
ARC
  5
9E
330
17
100
AcDbEntity
  8
TOP_PLATE
100
AcDbCircle
 10
8.331018995191
 20
17.126810585652002
 30
0.0
 40
7.681764258674
100
AcDbArc
 50
-42.52880368860963
 51
-3.3058876785992766
  0
LINE
  5
9F
330
17
100
AcDbEntity
  8
TOP_PLATE
100
AcDbLine
 10
16.0
 20
16.683829238721998
 30
0.0
 11
16.353
 21
22.795035305215
 31
0.0
  0
ARC
  5
A0
330
17
100
AcDbEntity
  8
TOP_PLATE
100
AcDbCircle
 10
14.372864281587
 20
23.076215917392
 30
0.0
 40
2.0
100
AcDbArc
 50
-8.08200614608532
 51
38.575798247065364
  0
ARC
  5
A1
330
17
100
AcDbEntity
  8
TOP_PLATE
100
AcDbCircle
 10
17.5
 20
25.570413623795
 30
0.0
 40
2.0
100
AcDbArc
 50
-180.0
 51
-141.42420175297474
  0
LINE
  5
A2
330
17
100
AcDbEntity
  8
TOP_PLATE
100
AcDbLine
 10
15.5
 20
25.570413623795
 30
0.0
 11
15.5
 21
57.154051015349
 31
0.0
  0
ARC
  5
A3
330
17
100
AcDbEntity
  8
TOP_PLATE
100
AcDbCircle
 10
17.5
 20
57.154051015349
 30
0.0
 40
2.0
100
AcDbArc
 50
-219.7628187858632
 51
-180.0
  0
LINE
  5
A4
330
17
100
AcDbEntity
  8
TOP_PLATE
100
AcDbLine
 10
15.962602497736
 20
58.433273013296
 30
0.0
 11
18.903741412287
 21
61.967999298727
 31
0.0
  0
ARC
  5
A5
330
17
100
AcDbEntity
  8
TOP_PLATE
100
AcDbCircle
 10
14.504032815473
 20
65.628863852826
 30
0.0
 40
5.72357973827
100
AcDbArc
 50
-39.762818785851266
 51
11.44732342096296
  0
ARC
  5
A6
330
17
100
AcDbEntity
  8
TOP_PLATE
100
AcDbCircle
 10
9.182209357026
 20
64.551220984212
 30
0.0
 40
11.153415746397
100
AcDbArc
 50
-348.5526765790395
 51
-286.24473117274675
  0
LINE
  5
A7
330
17
100
AcDbEntity
  8
TOP_PLATE
100
AcDbLine
 10
12.302274000013
 20
75.259343108822
 30
0.0
 11
10.580462690127
 21
75.259343108822
 31
0.0
  0
ARC
  5
A8
330
17
100
AcDbEntity
  8
TOP_PLATE
100
AcDbCircle
 10
10.580462690127
 20
74.310721108586
 30
0.0
 40
0.948622000236
100
AcDbArc
 50
90.0
 51
168.4904802020286
  0
ARC
  5
A9
330
17
100
AcDbEntity
  8
TOP_PLATE
100
AcDbCircle
 10
0.000320999914709
 20
76.465106000255
 30
0.0
 40
9.84863563522
100
AcDbArc
 50
-90.00186746073484
 51
-11.509519797996433
  0
ARC
  5
AA
330
17
100
AcDbEntity
  8
TOP_PLATE
100
AcDbCircle
 10
-0.0003209999147239
 20
76.465106000255
 30
0.0
 40
9.84863563522
100
AcDbArc
 50
-168.49048020200348
 51
-89.9981325392651
  0
ARC
  5
AB
330
17
100
AcDbEntity
  8
TOP_PLATE
100
AcDbCircle
 10
-10.58046269012
 20
74.310721108586
 30
0.0
 40
0.948622000236
100
AcDbArc
 50
11.509519798055464
 51
90.0
  0
LINE
  5
AC
330
17
100
AcDbEntity
  8
TOP_PLATE
100
AcDbLine
 10
-10.58046269012
 20
75.259343108822
 30
0.0
 11
-12.30227400001
 21
75.259343108822
 31
0.0
  0
ARC
  5
AD
330
17
100
AcDbEntity
  8
TOP_PLATE
100
AcDbCircle
 10
-9.182209357026
 20
64.551220984212
 30
0.0
 40
11.153415746397
100
AcDbArc
 50
-253.7552688272679
 51
-191.44732342096563
  0
ARC
  5
AE
330
17
100
AcDbEntity
  8
TOP_PLATE
100
AcDbCircle
 10
-14.50403281547
 20
65.628863852826
 30
0.0
 40
5.72357973827
100
AcDbArc
 50
-191.447323420967
 51
-140.23718121412315
  0
LINE
  5
AF
330
17
100
AcDbEntity
  8
TOP_PLATE
100
AcDbLine
 10
-18.90374141228
 20
61.967999298727
 30
0.0
 11
-15.96260249773
 21
58.433273013296
 31
0.0
  0
ARC
  5
B0
330
17
100
AcDbEntity
  8
TOP_PLATE
100
AcDbCircle
 10
-17.5
 20
57.154051015349
 30
0.0
 40
2.0
100
AcDbArc
 50
0.0
 51
39.762818785753296
  0
LINE
  5
B1
330
17
100
AcDbEntity
  8
TOP_PLATE
100
AcDbLine
 10
-15.5
 20
57.154051015349
 30
0.0
 11
-15.5
 21
25.570413623795
 31
0.0
  0
ARC
  5
B2
330
17
100
AcDbEntity
  8
TOP_PLATE
100
AcDbCircle
 10
-17.5
 20
25.570413623795
 30
0.0
 40
2.0
100
AcDbArc
 50
-38.57579824697163
 51
0.0
  0
ARC
  5
B3
330
17
100
AcDbEntity
  8
TOP_PLATE
100
AcDbCircle
 10
-14.37286428158
 20
23.076215917392
 30
0.0
 40
2.0
100
AcDbArc
 50
-218.5757982469941
 51
-171.91799385394307
  0
LINE
  5
B4
330
17
100
AcDbEntity
  8
TOP_PLATE
100
AcDbLine
 10
-16.353
 20
22.795035305215
 30
0.0
 11
-16.054
 21
16.861941940032
 31
0.0
  0
ARC
  5
B5
330
17
100
AcDbEntity
  8
TOP_PLATE
100
AcDbCircle
 10
-8.187589710489
 20
17.25837201989
 30
0.0
 40
7.876393060986
100
AcDbArc
 50
-177.11500287347678
 51
-137.47119631139276
  0
ARC
  5
B6
330
17
100
AcDbEntity
  8
TOP_PLATE
100
AcDbCircle
 10
-15.55794574344
 20
10.497865526687
 30
0.0
 40
2.124936655465
100
AcDbArc
 50
0.061554275726905416
 51
42.5288036886663
  0
LINE
  5
B7
330
17
100
AcDbEntity
  8
TOP_PLATE
100
AcDbLine
 10
-13.43301031425
 20
10.500148398353
 30
0.0
 11
-13.375
 21
-43.49682999244
 31
0.0
  0
ARC
  5
B8
330
17
100
AcDbEntity
  8
TOP_PLATE
100
AcDbCircle
 10
-19.8675781185
 20
-42.41747145942
 30
0.0
 40
6.581685609905
100
AcDbArc
 50
-28.53715628632014
 51
-9.438812848297005
  0
LINE
  5
B9
330
17
100
AcDbEntity
  8
TOP_PLATE
100
AcDbLine
 10
-14.08551800905
 20
-45.56173072965
 30
0.0
 11
-15.34068462354
 21
-47.86988924604
 31
0.0
  0
ARC
  5
BA
330
17
100
AcDbEntity
  8
TOP_PLATE
100
AcDbCircle
 10
-6.318623026338
 20
-52.32801197188
 30
0.0
 40
10.063421570338
100
AcDbArc
 50
153.70437854453016
 51
173.82368463699822
  0
LINE
  5
BB
330
17
100
AcDbEntity
  8
TOP_PLATE
100
AcDbLine
 10
-16.32363170018
 20
-51.2453046529
 30
0.0
 11
-16.85389298241
 21
-56.14530729915
 31
0.0
  0
ARC
  5
BC
330
17
100
AcDbEntity
  8
TOP_PLATE
100
AcDbCircle
 10
-10.32599083835
 20
-57.02041812756
 30
0.0
 40
6.586298305148
100
AcDbArc
 50
-187.63537701292603
 51
-171.2139565150236
  0
LINE
  5
BD
330
17
100
AcDbEntity
  8
TOP_PLATE
100
AcDbLine
 10
-16.835003
 20
-58.026443
 30
0.0
 11
-11.32666035655
 21
-101.5785486159
 31
0.0
  0
ARC
  5
BE
330
17
100
AcDbEntity
  8
TOP_PLATE
100
AcDbCircle
 10
-13.297326
 20
-102.141556
 30
0.0
 40
2.049512232892
100
AcDbArc
 50
-46.40260406653837
 51
15.944322236520833
  0
LINE
  5
BF
330
17
100
AcDbEntity
  8
TOP_PLATE
100
AcDbLine
 10
-11.88400976672
 20
-103.6258193248
 30
0.0
 11
-15.14893424049
 21
-107.2583711675
 31
0.0
  0
ARC
  5
C0
330
17
100
AcDbEntity
  8
TOP_PLATE
100
AcDbCircle
 10
-13.66281089144
 20
-108.5968170541
 30
0.0
 40
2.0
100
AcDbArc
 50
-222.00711949148763
 51
-166.0115689044962
  0
LINE
  5
C1
330
17
100
AcDbEntity
  8
TOP_PLATE
100
AcDbLine
 10
-15.6035
 20
-109.080269
 30
0.0
 11
-12.598501472
 21
-121.1554949644
 31
0.0
  0
ARC
  5
C2
330
17
100
AcDbEntity
  8
TOP_PLATE
100
AcDbCircle
 10
-10.71457744024
 20
-120.48405603
 30
0.0
 40
2.0
100
AcDbArc
 50
199.61629430395345
 51
230.00570879974717
  0
LINE
  5
C3
330
17
100
AcDbEntity
  8
TOP_PLATE
100
AcDbLine
 10
-12.0
 20
-122.016273
 30
0.0
 11
-8.982331173382
 21
-124.740657
 31
0.0
  0
ARC
  5
C4
330
17
100
AcDbEntity
  8
TOP_PLATE
100
AcDbCircle
 10
-8.297045
 20
-124.0123831088
 30
0.0
 40
1.0
100
AcDbArc
 50
-133.25811721940335
 51
-25.257768097735948
  0
LINE
  5
C5
330
17
100
AcDbEntity
  8
TOP_PLATE
100
AcDbLine
 10
-7.392647696567
 20
-124.4390744698
 30
0.0
 11
-6.211523365707
 21
-116.8301083592
 31
0.0
  0
ARC
  5
C6
330
17
100
AcDbEntity
  8
TOP_PLATE
100
AcDbCircle
 10
-4.221014713784
 20
-117.0451324281
 30
0.0
 40
2.002088920004
100
AcDbArc
 50
-235.35359277027277
 51
-186.16545044419354
  0
LINE
  5
C7
330
17
100
AcDbEntity
  8
TOP_PLATE
100
AcDbLine
 10
-5.359222817021
 20
-115.3980615865
 30
0.0
 11
-0.975144238871
 21
-112.8845384126
 31
0.0
  0
ARC
  5
C8
330
17
100
AcDbEntity
  8
TOP_PLATE
100
AcDbCircle
 10
1.4295473537e-14
 20
-114.2314
 30
0.0
 40
1.662811601489
100
AcDbArc
 50
-270.00000000000006
 51
-234.0950024795569
  0
CIRCLE
  5
C9
330
17
100
AcDbEntity
  8
TOP_PLATE
100
AcDbCircle
 10
-9.5
 20
-117.0416472779
 30
0.0
 40
1.5
  0
LINE
  5
CA
330
17
100
AcDbEntity
  8
TOP_PLATE
100
AcDbLine
 10
-4.893152
 20
-103.700002
 30
0.0
 11
-4.893152
 21
-105.600002
 31
0.0
  0
ARC
  5
CB
330
17
100
AcDbEntity
  8
TOP_PLATE
100
AcDbCircle
 10
-5.943152
 20
-105.600002
 30
0.0
 40
1.05
100
AcDbArc
 50
-180.0
 51
0.0
  0
LINE
  5
CC
330
17
100
AcDbEntity
  8
TOP_PLATE
100
AcDbLine
 10
-6.993152
 20
-105.600002
 30
0.0
 11
-6.993152
 21
-103.700002
 31
0.0
  0
ARC
  5
CD
330
17
100
AcDbEntity
  8
TOP_PLATE
100
AcDbCircle
 10
-5.943152
 20
-103.700002
 30
0.0
 40
1.05
100
AcDbArc
 50
0.0
 51
180.0
  0
CIRCLE
  5
CE
330
17
100
AcDbEntity
  8
TOP_PLATE
100
AcDbCircle
 10
1.312821393179e-14
 20
-104.700002
 30
0.0
 40
3.95
  0
ARC
  5
CF
330
17
100
AcDbEntity
  8
TOP_PLATE
100
AcDbCircle
 10
6.774440523626
 20
-67.66227532116
 30
0.0
 40
2.0
100
AcDbArc
 50
-384.7624352372112
 51
-298.918810804221
  0
LINE
  5
D0
330
17
100
AcDbEntity
  8
TOP_PLATE
100
AcDbLine
 10
8.590545100169
 20
-68.49998897573
 30
0.0
 11
4.377366
 21
-91.5
 31
0.0
  0
ARC
  5
D1
330
17
100
AcDbEntity
  8
TOP_PLATE
100
AcDbCircle
 10
2.410656393059
 20
-91.13660858297
 30
0.0
 40
2.0
100
AcDbArc
 50
-52.581428571479705
 51
-10.468545631034942
  0
LINE
  5
D2
330
17
100
AcDbEntity
  8
TOP_PLATE
100
AcDbLine
 10
3.625923
 20
-92.725044
 30
0.0
 11
1.259743652169
 21
-94.72491210487
 31
0.0
  0
ARC
  5
D3
330
17
100
AcDbEntity
  8
TOP_PLATE
100
AcDbCircle
 10
-0.05710079850494
 20
-93.21961456195
 30
0.0
 40
2.0
100
AcDbArc
 50
-88.36396030516948
 51
-48.820346547632624
  0
ARC
  5
D4
330
17
100
AcDbEntity
  8
TOP_PLATE
100
AcDbCircle
 10
0.05710079850496
 20
-93.21961456195
 30
0.0
 40
2.0
100
AcDbArc
 50
228.82034654763208
 51
268.36396030516954
  0
LINE
  5
D5
330
17
100
AcDbEntity
  8
TOP_PLATE
100
AcDbLine
 10
-1.259743652169
 20
-94.72491210487
 30
0.0
 11
-3.625923
 21
-92.725044
 31
0.0
  0
ARC
  5
D6
330
17
100
AcDbEntity
  8
TOP_PLATE
100
AcDbCircle
 10
-2.410656393059
 20
-91.13660858297
 30
0.0
 40
2.0
100
AcDbArc
 50
190.46854563103577
 51
232.5814285714803
  0
LINE
  5
D7
330
17
100
AcDbEntity
  8
TOP_PLATE
100
AcDbLine
 10
-4.377366
 20
-91.5
 30
0.0
 11
-8.590545100169
 21
-68.49998897573
 31
0.0
  0
ARC
  5
D8
330
17
100
AcDbEntity
  8
TOP_PLATE
100
AcDbCircle
 10
-6.774440523626
 20
-67.66227532116
 30
0.0
 40
2.0
100
AcDbArc
 50
-241.08118919577856
 51
-155.23756476278868
  0
LINE
  5
D9
330
17
100
AcDbEntity
  8
TOP_PLATE
100
AcDbLine
 10
-7.741580086372
 20
-65.91166369485
 30
0.0
 11
-1.281666281306
 21
-61.35653241754
 31
0.0
  0
ARC
  5
DA
330
17
100
AcDbEntity
  8
TOP_PLATE
100
AcDbCircle
 10
-0.009833889263439
 20
-62.90004865217
 30
0.0
 40
2.0
100
AcDbArc
 50
-270.2817213106702
 51
-230.51202981749833
  0
ARC
  5
DB
330
17
100
AcDbEntity
  8
TOP_PLATE
100
AcDbCircle
 10
0.009833889263455
 20
-62.90004865217
 30
0.0
 40
2.0
100
AcDbArc
 50
-309.48797018250133
 51
-269.71827868932985
  0
LINE
  5
DC
330
17
100
AcDbEntity
  8
TOP_PLATE
100
AcDbLine
 10
1.281666281306
 20
-61.35653241754
 30
0.0
 11
7.741580086372
 21
-65.91166369485
 31
0.0
  0
CIRCLE
  5
DD
330
17
100
AcDbEntity
  8
TOP_PLATE
100
AcDbCircle
 10
-12.0
 20
-55.062035
 30
0.0
 40
1.5
  0
CIRCLE
  5
DE
330
17
100
AcDbEntity
  8
TOP_PLATE
100
AcDbCircle
 10
9.5
 20
-117.0416472779
 30
0.0
 40
1.5
  0
LINE
  5
DF
330
17
100
AcDbEntity
  8
TOP_PLATE
100
AcDbLine
 10
6.993152
 20
-103.700002
 30
0.0
 11
6.993152
 21
-105.600002
 31
0.0
  0
ARC
  5
E0
330
17
100
AcDbEntity
  8
TOP_PLATE
100
AcDbCircle
 10
5.943152
 20
-105.600002
 30
0.0
 40
1.05
100
AcDbArc
 50
-180.0
 51
0.0
  0
LINE
  5
E1
330
17
100
AcDbEntity
  8
TOP_PLATE
100
AcDbLine
 10
4.893152
 20
-105.600002
 30
0.0
 11
4.893152
 21
-103.700002
 31
0.0
  0
ARC
  5
E2
330
17
100
AcDbEntity
  8
TOP_PLATE
100
AcDbCircle
 10
5.943152
 20
-103.700002
 30
0.0
 40
1.05
100
AcDbArc
 50
0.0
 51
180.0
  0
CIRCLE
  5
E3
330
17
100
AcDbEntity
  8
TOP_PLATE
100
AcDbCircle
 10
12.0
 20
-55.062035
 30
0.0
 40
1.5
  0
CIRCLE
  5
E4
330
17
100
AcDbEntity
  8
TOP_PLATE
100
AcDbCircle
 10
-12.0
 20
16.966576
 30
0.0
 40
1.5
  0
CIRCLE
  5
E5
330
17
100
AcDbEntity
  8
TOP_PLATE
100
AcDbCircle
 10
-15.7
 20
66.400001
 30
0.0
 40
1.5
  0
LINE
  5
E6
330
17
100
AcDbEntity
  8
TOP_PLATE
100
AcDbLine
 10
-12.223085
 20
62.603035
 30
0.0
 11
-12.223085
 21
65.853035
 31
0.0
  0
ARC
  5
E7
330
17
100
AcDbEntity
  8
TOP_PLATE
100
AcDbCircle
 10
-12.223085
 20
66.603035
 30
0.0
 40
0.75
100
AcDbArc
 50
-270.0
 51
-90.0
  0
LINE
  5
E8
330
17
100
AcDbEntity
  8
TOP_PLATE
100
AcDbLine
 10
-12.223085
 20
67.353035
 30
0.0
 11
-9.723085
 21
67.353035
 31
0.0
  0
ARC
  5
E9
330
17
100
AcDbEntity
  8
TOP_PLATE
100
AcDbCircle
 10
-9.723085
 20
66.603035
 30
0.0
 40
0.75
100
AcDbArc
 50
-90.0
 51
90.0
  0
LINE
  5
EA
330
17
100
AcDbEntity
  8
TOP_PLATE
100
AcDbLine
 10
-9.723085
 20
65.853035
 30
0.0
 11
-9.723085
 21
62.603035
 31
0.0
  0
ARC
  5
EB
330
17
100
AcDbEntity
  8
TOP_PLATE
100
AcDbCircle
 10
-9.723085
 20
61.853035
 30
0.0
 40
0.75
100
AcDbArc
 50
-90.0
 51
90.0
  0
LINE
  5
EC
330
17
100
AcDbEntity
  8
TOP_PLATE
100
AcDbLine
 10
-9.723085
 20
61.103035
 30
0.0
 11
-12.223085
 21
61.103035
 31
0.0
  0
ARC
  5
ED
330
17
100
AcDbEntity
  8
TOP_PLATE
100
AcDbCircle
 10
-12.223085
 20
61.853035
 30
0.0
 40
0.75
100
AcDbArc
 50
-270.0
 51
-90.0
  0
LINE
  5
EE
330
17
100
AcDbEntity
  8
TOP_PLATE
100
AcDbLine
 10
-1.078508419365
 20
27.224597922861
 30
0.0
 11
-3.348064322684
 21
29.750734802803
 31
0.0
  0
ARC
  5
EF
330
17
100
AcDbEntity
  8
TOP_PLATE
100
AcDbCircle
 10
-2.16468177122
 20
30.778817246018
 30
0.0
 40
1.567592987084
100
AcDbArc
 50
-180.0
 51
-139.01700088777278
  0
LINE
  5
F0
330
17
100
AcDbEntity
  8
TOP_PLATE
100
AcDbLine
 10
-3.732274758304
 20
30.778817246018
 30
0.0
 11
-3.732274758304
 21
54.253581658597
 31
0.0
  0
ARC
  5
F1
330
17
100
AcDbEntity
  8
TOP_PLATE
100
AcDbCircle
 10
-0.671987389308
 20
54.253581658597
 30
0.0
 40
3.060287368996
100
AcDbArc
 50
139.56136122742979
 51
180.0
  0
LINE
  5
F2
330
17
100
AcDbEntity
  8
TOP_PLATE
100
AcDbLine
 10
-3.001175347684
 20
56.238586000002
 30
0.0
 11
-0.967940765458
 21
58.630104846193
 31
0.0
  0
ARC
  5
F3
330
17
100
AcDbEntity
  8
TOP_PLATE
100
AcDbCircle
 10
0.0462146562776
 20
57.767884638936
 30
0.0
 40
1.33114045286
100
AcDbArc
 50
91.98959995512557
 51
139.62929456399328
  0
ARC
  5
F4
330
17
100
AcDbEntity
  8
TOP_PLATE
100
AcDbCircle
 10
-0.0467680440999
 20
57.766740382775
 30
0.0
 40
1.33230333066
100
AcDbArc
 50
40.39278112826099
 51
87.98832435263664
  0
LINE
  5
F5
330
17
100
AcDbEntity
  8
TOP_PLATE
100
AcDbLine
 10
0.967940765458
 20
58.630104846193
 30
0.0
 11
3.002763333222
 21
56.238586000002
 31
0.0
  0
ARC
  5
F6
330
17
100
AcDbEntity
  8
TOP_PLATE
100
AcDbCircle
 10
0.671987389307
 20
54.255446499082
 30
0.0
 40
3.060287368996
100
AcDbArc
 50
0.0
 51
40.39278112826136
  0
LINE
  5
F7
330
17
100
AcDbEntity
  8
TOP_PLATE
100
AcDbLine
 10
3.732274758304
 20
54.255446499082
 30
0.0
 11
3.732274758304
 21
30.778817246018
 31
0.0
  0
ARC
  5
F8
330
17
100
AcDbEntity
  8
TOP_PLATE
100
AcDbCircle
 10
2.16468177122
 20
30.778817246018
 30
0.0
 40
1.567592987084
100
AcDbArc
 50
-40.982999112227134
 51
0.0
  0
LINE
  5
F9
330
17
100
AcDbEntity
  8
TOP_PLATE
100
AcDbLine
 10
3.348064322684
 20
29.750734802803
 30
0.0
 11
0.967940765458
 21
27.203189803108
 31
0.0
  0
ARC
  5
FA
330
17
100
AcDbEntity
  8
TOP_PLATE
100
AcDbCircle
 10
-0.123389795741
 20
28.222799497046
 30
0.0
 40
1.493521450057
100
AcDbArc
 50
-85.03131298453229
 51
-43.054079037086524
  0
ARC
  5
FB
330
17
100
AcDbEntity
  8
TOP_PLATE
100
AcDbCircle
 10
0.01992706871301
 20
28.211464773259
 30
0.0
 40
1.476640342766
100
AcDbArc
 50
-138.06254060395798
 51
-90.54171652149222
  0
CIRCLE
  5
FC
330
17
100
AcDbEntity
  8
TOP_PLATE
100
AcDbCircle
 10
12.0
 20
16.966576
 30
0.0
 40
1.5
  0
ARC
  5
FD
330
17
100
AcDbEntity
  8
TOP_PLATE
100
AcDbCircle
 10
12.223085
 20
66.603035
 30
0.0
 40
0.75
100
AcDbArc
 50
-90.0
 51
90.0
  0
LINE
  5
FE
330
17
100
AcDbEntity
  8
TOP_PLATE
100
AcDbLine
 10
12.223085
 20
65.853035
 30
0.0
 11
12.223085
 21
62.603035
 31
0.0
  0
ARC
  5
FF
330
17
100
AcDbEntity
  8
TOP_PLATE
100
AcDbCircle
 10
12.223085
 20
61.853035
 30
0.0
 40
0.75
100
AcDbArc
 50
-90.0
 51
90.0
  0
LINE
  5
100
330
17
100
AcDbEntity
  8
TOP_PLATE
100
AcDbLine
 10
12.223085
 20
61.103035
 30
0.0
 11
9.723085
 21
61.103035
 31
0.0
  0
ARC
  5
101
330
17
100
AcDbEntity
  8
TOP_PLATE
100
AcDbCircle
 10
9.723085
 20
61.853035
 30
0.0
 40
0.75
100
AcDbArc
 50
-270.0
 51
-90.0
  0
LINE
  5
102
330
17
100
AcDbEntity
  8
TOP_PLATE
100
AcDbLine
 10
9.723085
 20
62.603035
 30
0.0
 11
9.723085
 21
65.853035
 31
0.0
  0
ARC
  5
103
330
17
100
AcDbEntity
  8
TOP_PLATE
100
AcDbCircle
 10
9.723085
 20
66.603035
 30
0.0
 40
0.75
100
AcDbArc
 50
-270.0
 51
-90.0
  0
LINE
  5
104
330
17
100
AcDbEntity
  8
TOP_PLATE
100
AcDbLine
 10
9.723085
 20
67.353035
 30
0.0
 11
12.223085
 21
67.353035
 31
0.0
  0
CIRCLE
  5
105
330
17
100
AcDbEntity
  8
TOP_PLATE
100
AcDbCircle
 10
15.7
 20
66.400001
 30
0.0
 40
1.5
  0
ARC
  5
107
330
17
100
AcDbEntity
  8
LOWER_PLATE
100
AcDbCircle
 10
-21.4123820787
 20
-48.25223762822
 30
0.0
 40
2.882477990097
100
AcDbArc
 50
154.52635752854084
 51
204.55171427997414
  0
LINE
  5
108
330
17
100
AcDbEntity
  8
LOWER_PLATE
100
AcDbLine
 10
-24.03424544654
 20
-49.44994871348
 30
0.0
 11
-18.6808267908
 21
-61.16891202516
 31
0.0
  0
ARC
  5
109
330
17
100
AcDbEntity
  8
LOWER_PLATE
100
AcDbCircle
 10
-20.5
 20
-61.99994080621
 30
0.0
 40
2.0
100
AcDbArc
 50
0.0
 51
24.551714279863745
  0
LINE
  5
10A
330
17
100
AcDbEntity
  8
LOWER_PLATE
100
AcDbLine
 10
-18.5
 20
-61.99994080621
 30
0.0
 11
-18.5
 21
-70.41262085945
 31
0.0
  0
ARC
  5
10B
330
17
100
AcDbEntity
  8
LOWER_PLATE
100
AcDbCircle
 10
-16.5
 20
-70.41262085945
 30
0.0
 40
2.0
100
AcDbArc
 50
180.0
 51
215.28983596615618
  0
LINE
  5
10C
330
17
100
AcDbEntity
  8
LOWER_PLATE
100
AcDbLine
 10
-18.13248017357
 20
-71.56804653118
 30
0.0
 11
-14.42210387453
 21
-76.81037054465
 31
0.0
  0
ARC
  5
10D
330
17
100
AcDbEntity
  8
LOWER_PLATE
100
AcDbCircle
 10
-16.05458404811
 20
-77.96579621638
 30
0.0
 40
2.0
100
AcDbArc
 50
2.9737495473358138
 51
35.28983596599062
  0
LINE
  5
10E
330
17
100
AcDbEntity
  8
LOWER_PLATE
100
AcDbLine
 10
-14.05727723207
 20
-77.86203937273
 30
0.0
 11
-13.31462352138
 21
-92.15803437555
 31
0.0
  0
ARC
  5
10F
330
17
100
AcDbEntity
  8
LOWER_PLATE
100
AcDbCircle
 10
-15.31193033742
 20
-92.2617912192
 30
0.0
 40
2.0
100
AcDbArc
 50
-40.905039178727435
 51
2.9737495473358138
  0
LINE
  5
110
330
17
100
AcDbEntity
  8
LOWER_PLATE
100
AcDbLine
 10
-13.80033857418
 20
-93.57140579659
 30
0.0
 11
-18.02204174902
 21
-98.44420719645
 31
0.0
  0
ARC
  5
111
330
17
100
AcDbEntity
  8
LOWER_PLATE
100
AcDbCircle
 10
-16.51044998577
 20
-99.75382177383
 30
0.0
 40
2.0
100
AcDbArc
 50
139.09496082167658
 51
185.85962417782636
  0
LINE
  5
112
330
17
100
AcDbEntity
  8
LOWER_PLATE
100
AcDbLine
 10
-18.5
 20
-99.95800488016
 30
0.0
 11
-18.17687627366
 21
-103.1065063691
 31
0.0
  0
ARC
  5
113
330
17
100
AcDbEntity
  8
LOWER_PLATE
100
AcDbCircle
 10
-16.18732625944
 20
-102.9023232628
 30
0.0
 40
2.0
100
AcDbArc
 50
185.8596241770009
 51
231.92609693694837
  0
LINE
  5
114
330
17
100
AcDbEntity
  8
LOWER_PLATE
100
AcDbLine
 10
-17.42068101936
 20
-104.4767552353
 30
0.0
 11
-15.51326400583
 21
-105.9709587918
 31
0.0
  0
ARC
  5
115
330
17
100
AcDbEntity
  8
LOWER_PLATE
100
AcDbCircle
 10
-16.74661876575
 20
-107.5453907643
 30
0.0
 40
2.0
100
AcDbArc
 50
6.164196508669079
 51
51.926096936948056
  0
LINE
  5
116
330
17
100
AcDbEntity
  8
LOWER_PLATE
100
AcDbLine
 10
-14.75818225084
 20
-107.3306345626
 30
0.0
 11
-13.20119978833
 21
-121.7467992957
 31
0.0
  0
ARC
  5
117
330
17
100
AcDbEntity
  8
LOWER_PLATE
100
AcDbCircle
 10
-11.21276327343
 20
-121.532043094
 30
0.0
 40
2.0
100
AcDbArc
 50
186.1641965087002
 51
261.4408952626327
  0
LINE
  5
118
330
17
100
AcDbEntity
  8
LOWER_PLATE
100
AcDbLine
 10
-11.51042242071
 20
-123.5097688161
 30
0.0
 11
-8.450739490322
 21
-123.9702687741
 31
0.0
  0
ARC
  5
119
330
17
100
AcDbEntity
  8
LOWER_PLATE
100
AcDbCircle
 10
-8.153080343038
 20
-121.992543052
 30
0.0
 40
2.0
100
AcDbArc
 50
261.44089526251923
 51
311.77440295987753
  0
LINE
  5
11A
330
17
100
AcDbEntity
  8
LOWER_PLATE
100
AcDbLine
 10
-6.820681622296
 20
-123.4840904528
 30
0.0
 11
-5.666446213275
 21
-122.4530124049
 31
0.0
  0
ARC
  5
11B
330
17
100
AcDbEntity
  8
LOWER_PLATE
100
AcDbCircle
 10
-3.97482743206
 20
-124.3466869913
 30
0.0
 40
2.539208053689
100
AcDbArc
 50
96.24190378471356
 51
131.77440295812542
  0
LINE
  5
11C
330
17
100
AcDbEntity
  8
LOWER_PLATE
100
AcDbLine
 10
-4.250906402971
 20
-121.8225320947
 30
0.0
 11
0.0
 21
-121.35759
 31
0.0
  0
LINE
  5
11D
330
17
100
AcDbEntity
  8
LOWER_PLATE
100
AcDbLine
 10
0.0
 20
-121.35759
 30
0.0
 11
4.250906402971
 21
-121.8225320947
 31
0.0
  0
ARC
  5
11E
330
17
100
AcDbEntity
  8
LOWER_PLATE
100
AcDbCircle
 10
3.97482743206
 20
-124.3466869913
 30
0.0
 40
2.539208053688
100
AcDbArc
 50
48.225597041874636
 51
83.75809621528654
  0
LINE
  5
11F
330
17
100
AcDbEntity
  8
LOWER_PLATE
100
AcDbLine
 10
5.666446213275
 20
-122.4530124049
 30
0.0
 11
6.820681622296
 21
-123.4840904528
 31
0.0
  0
ARC
  5
120
330
17
100
AcDbEntity
  8
LOWER_PLATE
100
AcDbCircle
 10
8.153080343038
 20
-121.992543052
 30
0.0
 40
2.0
100
AcDbArc
 50
228.2255970401225
 51
278.55910473750913
  0
LINE
  5
121
330
17
100
AcDbEntity
  8
LOWER_PLATE
100
AcDbLine
 10
8.450739490323
 20
-123.9702687741
 30
0.0
 11
11.510422420715
 21
-123.5097688161
 31
0.0
  0
ARC
  5
122
330
17
100
AcDbEntity
  8
LOWER_PLATE
100
AcDbCircle
 10
11.21276327343
 20
-121.532043094
 30
0.0
 40
2.0
100
AcDbArc
 50
278.5591047375091
 51
353.8358034913244
  0
LINE
  5
123
330
17
100
AcDbEntity
  8
LOWER_PLATE
100
AcDbLine
 10
13.201199788338
 20
-121.7467992957
 30
0.0
 11
14.758182250849
 21
-107.3306345626
 31
0.0
  0
ARC
  5
124
330
17
100
AcDbEntity
  8
LOWER_PLATE
100
AcDbCircle
 10
16.746618765758
 20
-107.5453907643
 30
0.0
 40
2.0
100
AcDbArc
 50
128.0739030631874
 51
173.83580349132762
  0
LINE
  5
125
330
17
100
AcDbEntity
  8
LOWER_PLATE
100
AcDbLine
 10
15.513264005832
 20
-105.9709587918
 30
0.0
 11
17.420681019367
 21
-104.4767552353
 31
0.0
  0
ARC
  5
126
330
17
100
AcDbEntity
  8
LOWER_PLATE
100
AcDbCircle
 10
16.187326259442
 20
-102.9023232628
 30
0.0
 40
2.0
100
AcDbArc
 50
308.0739030631644
 51
354.14037582300193
  0
LINE
  5
127
330
17
100
AcDbEntity
  8
LOWER_PLATE
100
AcDbLine
 10
18.176876273663
 20
-103.1065063691
 30
0.0
 11
18.5
 21
-99.95800488017
 31
0.0
  0
ARC
  5
128
330
17
100
AcDbEntity
  8
LOWER_PLATE
100
AcDbCircle
 10
16.510449985779
 20
-99.75382177383
 30
0.0
 40
2.0
100
AcDbArc
 50
-5.859624178137409
 51
40.90503917843645
  0
LINE
  5
129
330
17
100
AcDbEntity
  8
LOWER_PLATE
100
AcDbLine
 10
18.022041749023
 20
-98.44420719645
 30
0.0
 11
13.800338574184
 21
-93.57140579659
 31
0.0
  0
ARC
  5
12A
330
17
100
AcDbEntity
  8
LOWER_PLATE
100
AcDbCircle
 10
15.311930337428
 20
-92.2617912192
 30
0.0
 40
2.0
100
AcDbArc
 50
177.02625045266254
 51
220.9050391786525
  0
LINE
  5
12B
330
17
100
AcDbEntity
  8
LOWER_PLATE
100
AcDbLine
 10
13.314623521389
 20
-92.15803437555
 30
0.0
 11
14.057277232071
 21
-77.86203937273
 31
0.0
  0
ARC
  5
12C
330
17
100
AcDbEntity
  8
LOWER_PLATE
100
AcDbCircle
 10
16.05458404811
 20
-77.96579621638
 30
0.0
 40
2.0
100
AcDbArc
 50
144.71016403391013
 51
177.02625045266254
  0
LINE
  5
12D
330
17
100
AcDbEntity
  8
LOWER_PLATE
100
AcDbLine
 10
14.422103874536
 20
-76.81037054465
 30
0.0
 11
18.132480173574
 21
-71.56804653118
 31
0.0
  0
ARC
  5
12E
330
17
100
AcDbEntity
  8
LOWER_PLATE
100
AcDbCircle
 10
16.5
 20
-70.41262085945
 30
0.0
 40
2.0
100
AcDbArc
 50
324.71016403391013
 51
360.0
  0
LINE
  5
12F
330
17
100
AcDbEntity
  8
LOWER_PLATE
100
AcDbLine
 10
18.5
 20
-70.41262085945
 30
0.0
 11
18.5
 21
-61.99994080621
 31
0.0
  0
ARC
  5
130
330
17
100
AcDbEntity
  8
LOWER_PLATE
100
AcDbCircle
 10
20.5
 20
-61.99994080621
 30
0.0
 40
2.0
100
AcDbArc
 50
155.44828572008876
 51
180.0000000000002
  0
LINE
  5
131
330
17
100
AcDbEntity
  8
LOWER_PLATE
100
AcDbLine
 10
18.680826790804
 20
-61.16891202516
 30
0.0
 11
24.034245446543
 21
-49.44994871348
 31
0.0
  0
ARC
  5
132
330
17
100
AcDbEntity
  8
LOWER_PLATE
100
AcDbCircle
 10
21.412382078701
 20
-48.25223762822
 30
0.0
 40
2.882477990097
100
AcDbArc
 50
-24.551714279957622
 51
25.473642471425052
  0
LINE
  5
133
330
17
100
AcDbEntity
  8
LOWER_PLATE
100
AcDbLine
 10
24.014634883385
 20
-47.01249583901
 30
0.0
 11
20.148899597713
 21
-37.500001
 31
0.0
  0
ARC
  5
134
330
17
100
AcDbEntity
  8
LOWER_PLATE
100
AcDbCircle
 10
22.027831
 20
-36.73643144815
 30
0.0
 40
2.028157211611
100
AcDbArc
 50
178.97078285007333
 51
202.11608759829204
  0
LINE
  5
135
330
17
100
AcDbEntity
  8
LOWER_PLATE
100
AcDbLine
 10
20.000001
 20
-36.70000115705
 30
0.0
 11
20.000001
 21
-32.539999
 31
0.0
  0
ARC
  5
136
330
17
100
AcDbEntity
  8
LOWER_PLATE
100
AcDbCircle
 10
17.922417
 20
-32.539999
 30
0.0
 40
2.077584
100
AcDbArc
 50
0.0
 51
43.8770308076285
  0
LINE
  5
137
330
17
100
AcDbEntity
  8
LOWER_PLATE
100
AcDbLine
 10
19.419999860023
 20
-31.09999870332
 30
0.0
 11
17.862006779203
 21
-29.4
 31
0.0
  0
ARC
  5
138
330
17
100
AcDbEntity
  8
LOWER_PLATE
100
AcDbCircle
 10
20.280509
 20
-27.183522
 30
0.0
 40
3.280537717583
100
AcDbArc
 50
179.7638268483538
 51
222.50423673833285
  0
LINE
  5
139
330
17
100
AcDbEntity
  8
LOWER_PLATE
100
AcDbLine
 10
16.999999151983
 20
-27.16999966477
 30
0.0
 11
16.999999151983
 21
-11.0
 31
0.0
  0
ARC
  5
13A
330
17
100
AcDbEntity
  8
LOWER_PLATE
100
AcDbCircle
 10
20.290621458303
 20
-10.81329066572
 30
0.0
 40
3.295914977416
100
AcDbArc
 50
139.084640052327
 51
183.24747052072536
  0
LINE
  5
13B
330
17
100
AcDbEntity
  8
LOWER_PLATE
100
AcDbLine
 10
17.799971290248
 20
-8.654652836272
 30
0.0
 11
19.4
 21
-6.921073
 31
0.0
  0
ARC
  5
13C
330
17
100
AcDbEntity
  8
LOWER_PLATE
100
AcDbCircle
 10
17.737052
 20
-5.386234807289
 30
0.0
 40
2.262990130007
100
AcDbArc
 50
317.29415842979324
 51
359.65148476182793
  0
LINE
  5
13D
330
17
100
AcDbEntity
  8
LOWER_PLATE
100
AcDbLine
 10
20.000000265151
 20
-5.399999899366
 30
0.0
 11
20.000000265151
 21
-1.27
 31
0.0
  0
ARC
  5
13E
330
17
100
AcDbEntity
  8
LOWER_PLATE
100
AcDbCircle
 10
21.997387
 20
-1.27
 30
0.0
 40
1.997386734849
100
AcDbArc
 50
161.79317493820596
 51
180.0
  0
LINE
  5
13F
330
17
100
AcDbEntity
  8
LOWER_PLATE
100
AcDbLine
 10
20.099999752588
 20
-0.645920356117
 30
0.0
 11
23.899608507717
 21
8.64
 31
0.0
  0
ARC
  5
140
330
17
100
AcDbEntity
  8
LOWER_PLATE
100
AcDbCircle
 10
20.99080486685
 20
10.170372173468
 30
0.0
 40
3.286818767509
100
AcDbArc
 50
-27.749638151613027
 51
27.73497746179737
  0
LINE
  5
141
330
17
100
AcDbEntity
  8
LOWER_PLATE
100
AcDbLine
 10
23.9
 20
11.7
 30
0.0
 11
18.095762879205
 21
24.531777612813
 31
0.0
  0
ARC
  5
142
330
17
100
AcDbEntity
  8
LOWER_PLATE
100
AcDbCircle
 10
20.0
 20
25.393127
 30
0.0
 40
2.08998607149
100
AcDbArc
 50
182.7046854306206
 51
204.3388116115916
  0
LINE
  5
143
330
17
100
AcDbEntity
  8
LOWER_PLATE
100
AcDbLine
 10
17.912342132373
 20
25.294504453101
 30
0.0
 11
16.32584485437
 21
58.877732918992
 31
0.0
  0
ARC
  5
144
330
17
100
AcDbEntity
  8
LOWER_PLATE
100
AcDbCircle
 10
18.874704153322
 20
58.998142972597
 30
0.0
 40
2.551701845213
100
AcDbArc
 50
139.81461552075828
 51
182.70468543062094
  0
LINE
  5
145
330
17
100
AcDbEntity
  8
LOWER_PLATE
100
AcDbLine
 10
16.925304345616
 20
60.644661328576
 30
0.0
 11
19.046368338504
 21
63.155900711273
 31
0.0
  0
ARC
  5
146
330
17
100
AcDbEntity
  8
LOWER_PLATE
100
AcDbCircle
 10
16.059525623776
 20
65.678672764897
 30
0.0
 40
3.909681347254
100
AcDbArc
 50
-40.18538447923555
 51
5.191181719069732
  0
ARC
  5
147
330
17
100
AcDbEntity
  8
LOWER_PLATE
100
AcDbCircle
 10
1.104721552036
 20
64.876427671306
 30
0.0
 40
18.883864849341
100
AcDbArc
 50
3.509599600997717
 51
53.36442763261773
  0
ARC
  5
148
330
17
100
AcDbEntity
  8
LOWER_PLATE
100
AcDbCircle
 10
11.241759296183
 20
78.508270966921
 30
0.0
 40
1.896025496955
100
AcDbArc
 50
53.36442763260287
 51
152.59267512051454
  0
ARC
  5
149
330
17
100
AcDbEntity
  8
LOWER_PLATE
100
AcDbCircle
 10
6.007524075084
 20
81.222289815594
 30
0.0
 40
4.0
100
AcDbArc
 50
309.0926751205135
 51
332.592675120512
  0
ARC
  5
14A
330
17
100
AcDbEntity
  8
LOWER_PLATE
100
AcDbCircle
 10
7.268677255027
 20
79.670035758837
 30
0.0
 40
2.0
100
AcDbArc
 50
262.09267512052816
 51
309.09267512052446
  0
LINE
  5
14B
330
17
100
AcDbEntity
  8
LOWER_PLATE
100
AcDbLine
 10
6.993534905274
 20
77.689051991268
 30
0.0
 11
0.0
 21
78.66039646083
 31
0.0
  0
LINE
  5
14C
330
17
100
AcDbEntity
  8
LOWER_PLATE
100
AcDbLine
 10
0.0
 20
78.66039646083
 30
0.0
 11
-6.993534905274
 21
77.689051991268
 31
0.0
  0
ARC
  5
14D
330
17
100
AcDbEntity
  8
LOWER_PLATE
100
AcDbCircle
 10
-7.268677255027
 20
79.670035758837
 30
0.0
 40
2.0
100
AcDbArc
 50
230.90732487947548
 51
277.9073248794718
  0
ARC
  5
14E
330
17
100
AcDbEntity
  8
LOWER_PLATE
100
AcDbCircle
 10
-6.007524075084
 20
81.222289815594
 30
0.0
 40
4.0
100
AcDbArc
 50
207.407324879488
 51
230.9073248794865
  0
ARC
  5
14F
330
17
100
AcDbEntity
  8
LOWER_PLATE
100
AcDbCircle
 10
-11.24175929618
 20
78.508270966921
 30
0.0
 40
1.896025496956
100
AcDbArc
 50
27.40732487952735
 51
126.63557236743407
  0
ARC
  5
150
330
17
100
AcDbEntity
  8
LOWER_PLATE
100
AcDbCircle
 10
-1.104721552036
 20
64.876427671294
 30
0.0
 40
18.883864849352
100
AcDbArc
 50
126.63557236735687
 51
176.49040039892986
  0
ARC
  5
151
330
17
100
AcDbEntity
  8
LOWER_PLATE
100
AcDbCircle
 10
-16.05952562377
 20
65.678672764911
 30
0.0
 40
3.909681347263
100
AcDbArc
 50
174.80881828096884
 51
220.1853844791892
  0
LINE
  5
152
330
17
100
AcDbEntity
  8
LOWER_PLATE
100
AcDbLine
 10
-19.04636833851
 20
63.155900711281
 30
0.0
 11
-16.92530434561
 21
60.644661328576
 31
0.0
  0
ARC
  5
153
330
17
100
AcDbEntity
  8
LOWER_PLATE
100
AcDbCircle
 10
-18.87470415332
 20
58.998142972597
 30
0.0
 40
2.551701845213
100
AcDbArc
 50
-2.7046854306229875
 51
40.18538447918385
  0
LINE
  5
154
330
17
100
AcDbEntity
  8
LOWER_PLATE
100
AcDbLine
 10
-16.32584485437
 20
58.877732918992
 30
0.0
 11
-17.91234213237
 21
25.294504453101
 31
0.0
  0
ARC
  5
155
330
17
100
AcDbEntity
  8
LOWER_PLATE
100
AcDbCircle
 10
-20.0
 20
25.393127
 30
0.0
 40
2.08998607149
100
AcDbArc
 50
335.66118838846495
 51
357.2953145693833
  0
LINE
  5
156
330
17
100
AcDbEntity
  8
LOWER_PLATE
100
AcDbLine
 10
-18.0957628792
 20
24.531777612813
 30
0.0
 11
-23.9
 21
11.7
 31
0.0
  0
ARC
  5
157
330
17
100
AcDbEntity
  8
LOWER_PLATE
100
AcDbCircle
 10
-20.99080486685
 20
10.170372173468
 30
0.0
 40
3.286818767509
100
AcDbArc
 50
152.26502253820266
 51
207.7496381516699
  0
LINE
  5
158
330
17
100
AcDbEntity
  8
LOWER_PLATE
100
AcDbLine
 10
-23.89960850771
 20
8.64
 30
0.0
 11
-20.09999975258
 21
-0.645920356117
 31
0.0
  0
ARC
  5
159
330
17
100
AcDbEntity
  8
LOWER_PLATE
100
AcDbCircle
 10
-21.997387
 20
-1.27
 30
0.0
 40
1.997386734849
100
AcDbArc
 50
0.0
 51
18.20682506172244
  0
LINE
  5
15A
330
17
100
AcDbEntity
  8
LOWER_PLATE
100
AcDbLine
 10
-20.00000026515
 20
-1.27
 30
0.0
 11
-20.00000026515
 21
-5.399999899366
 31
0.0
  0
ARC
  5
15B
330
17
100
AcDbEntity
  8
LOWER_PLATE
100
AcDbCircle
 10
-17.737052
 20
-5.386234807289
 30
0.0
 40
2.262990130007
100
AcDbArc
 50
180.34851523817224
 51
222.70584157020676
  0
LINE
  5
15C
330
17
100
AcDbEntity
  8
LOWER_PLATE
100
AcDbLine
 10
-19.4
 20
-6.921073
 30
0.0
 11
-17.79997129024
 21
-8.654652836272
 31
0.0
  0
ARC
  5
15D
330
17
100
AcDbEntity
  8
LOWER_PLATE
100
AcDbCircle
 10
-20.2906214583
 20
-10.81329066572
 30
0.0
 40
3.295914977416
100
AcDbArc
 50
-3.247470520725358
 51
40.91535994761608
  0
LINE
  5
15E
330
17
100
AcDbEntity
  8
LOWER_PLATE
100
AcDbLine
 10
-16.99999915198
 20
-11.0
 30
0.0
 11
-16.99999915198
 21
-27.16999966477
 31
0.0
  0
ARC
  5
15F
330
17
100
AcDbEntity
  8
LOWER_PLATE
100
AcDbCircle
 10
-20.280509
 20
-27.183522
 30
0.0
 40
3.280537717583
100
AcDbArc
 50
-42.504236738297436
 51
0.23617315164594288
  0
LINE
  5
160
330
17
100
AcDbEntity
  8
LOWER_PLATE
100
AcDbLine
 10
-17.8620067792
 20
-29.4
 30
0.0
 11
-19.41999986002
 21
-31.09999870332
 31
0.0
  0
ARC
  5
161
330
17
100
AcDbEntity
  8
LOWER_PLATE
100
AcDbCircle
 10
-17.922417
 20
-32.539999
 30
0.0
 40
2.077584
100
AcDbArc
 50
136.12296919231414
 51
180.0
  0
LINE
  5
162
330
17
100
AcDbEntity
  8
LOWER_PLATE
100
AcDbLine
 10
-20.000001
 20
-32.539999
 30
0.0
 11
-20.000001
 21
-36.70000115705
 31
0.0
  0
ARC
  5
163
330
17
100
AcDbEntity
  8
LOWER_PLATE
100
AcDbCircle
 10
-22.027831
 20
-36.73643144815
 30
0.0
 40
2.028157211611
100
AcDbArc
 50
-22.11608759826018
 51
1.0292171499266942
  0
LINE
  5
164
330
17
100
AcDbEntity
  8
LOWER_PLATE
100
AcDbLine
 10
-20.14889959771
 20
-37.500001
 30
0.0
 11
-24.01463488338
 21
-47.01249583901
 31
0.0
  0
CIRCLE
  5
165
330
17
100
AcDbEntity
  8
LOWER_PLATE
100
AcDbCircle
 10
-15.0
 20
-99.5
 30
0.0
 40
1.5
  0
CIRCLE
  5
166
330
17
100
AcDbEntity
  8
LOWER_PLATE
100
AcDbCircle
 10
-9.5
 20
-117.036461
 30
0.0
 40
1.5
  0
CIRCLE
  5
167
330
17
100
AcDbEntity
  8
LOWER_PLATE
100
AcDbCircle
 10
-10.0
 20
-94.0
 30
0.0
 40
1.0
  0
CIRCLE
  5
168
330
17
100
AcDbEntity
  8
LOWER_PLATE
100
AcDbCircle
 10
-10.0
 20
-74.0
 30
0.0
 40
1.0
  0
CIRCLE
  5
169
330
17
100
AcDbEntity
  8
LOWER_PLATE
100
AcDbCircle
 10
-15.0
 20
-69.0
 30
0.0
 40
1.5
  0
CIRCLE
  5
16A
330
17
100
AcDbEntity
  8
LOWER_PLATE
100
AcDbCircle
 10
-18.571
 20
-46.059999
 30
0.0
 40
3.0
  0
CIRCLE
  5
16B
330
17
100
AcDbEntity
  8
LOWER_PLATE
100
AcDbCircle
 10
-15.25
 20
-34.559999
 30
0.0
 40
3.0
  0
CIRCLE
  5
16C
330
17
100
AcDbEntity
  8
LOWER_PLATE
100
AcDbCircle
 10
-12.0
 20
-55.059999
 30
0.0
 40
1.5
  0
CIRCLE
  5
16D
330
17
100
AcDbEntity
  8
LOWER_PLATE
100
AcDbCircle
 10
-10.0
 20
-29.059999
 30
0.0
 40
2.0
  0
CIRCLE
  5
16E
330
17
100
AcDbEntity
  8
LOWER_PLATE
100
AcDbCircle
 10
9.5
 20
-117.036461
 30
0.0
 40
1.5
  0
CIRCLE
  5
16F
330
17
100
AcDbEntity
  8
LOWER_PLATE
100
AcDbCircle
 10
10.0
 20
-94.0
 30
0.0
 40
1.0
  0
CIRCLE
  5
170
330
17
100
AcDbEntity
  8
LOWER_PLATE
100
AcDbCircle
 10
10.0
 20
-74.0
 30
0.0
 40
1.0
  0
CIRCLE
  5
171
330
17
100
AcDbEntity
  8
LOWER_PLATE
100
AcDbCircle
 10
15.5
 20
-99.5
 30
0.0
 40
1.5
  0
CIRCLE
  5
172
330
17
100
AcDbEntity
  8
LOWER_PLATE
100
AcDbCircle
 10
12.0
 20
-55.059999
 30
0.0
 40
1.5
  0
CIRCLE
  5
173
330
17
100
AcDbEntity
  8
LOWER_PLATE
100
AcDbCircle
 10
10.0
 20
-29.059999
 30
0.0
 40
2.0
  0
CIRCLE
  5
174
330
17
100
AcDbEntity
  8
LOWER_PLATE
100
AcDbCircle
 10
15.5
 20
-69.5
 30
0.0
 40
1.5
  0
CIRCLE
  5
175
330
17
100
AcDbEntity
  8
LOWER_PLATE
100
AcDbCircle
 10
15.25
 20
-34.559999
 30
0.0
 40
3.0
  0
CIRCLE
  5
176
330
17
100
AcDbEntity
  8
LOWER_PLATE
100
AcDbCircle
 10
18.571
 20
-46.059999
 30
0.0
 40
3.0
  0
CIRCLE
  5
177
330
17
100
AcDbEntity
  8
LOWER_PLATE
100
AcDbCircle
 10
-15.25
 20
-4.059999
 30
0.0
 40
3.0
  0
CIRCLE
  5
178
330
17
100
AcDbEntity
  8
LOWER_PLATE
100
AcDbCircle
 10
-18.571
 20
7.940001
 30
0.0
 40
3.0
  0
CIRCLE
  5
179
330
17
100
AcDbEntity
  8
LOWER_PLATE
100
AcDbCircle
 10
-10.0
 20
-9.059999
 30
0.0
 40
2.0
  0
CIRCLE
  5
17A
330
17
100
AcDbEntity
  8
LOWER_PLATE
100
AcDbCircle
 10
-12.0
 20
16.940001
 30
0.0
 40
1.5
  0
CIRCLE
  5
17B
330
17
100
AcDbEntity
  8
LOWER_PLATE
100
AcDbCircle
 10
-15.7
 20
66.400001
 30
0.0
 40
1.5
  0
LINE
  5
17C
330
17
100
AcDbEntity
  8
LOWER_PLATE
100
AcDbLine
 10
-9.721695
 20
53.693302
 30
0.0
 11
-9.721695
 21
49.693302
 31
0.0
  0
ARC
  5
17D
330
17
100
AcDbEntity
  8
LOWER_PLATE
100
AcDbCircle
 10
-9.721695
 20
48.943302
 30
0.0
 40
0.75
100
AcDbArc
 50
-90.0
 51
90.0
  0
LINE
  5
17E
330
17
100
AcDbEntity
  8
LOWER_PLATE
100
AcDbLine
 10
-9.721695
 20
48.193302
 30
0.0
 11
-12.221695
 21
48.193302
 31
0.0
  0
ARC
  5
17F
330
17
100
AcDbEntity
  8
LOWER_PLATE
100
AcDbCircle
 10
-12.221695
 20
48.943302
 30
0.0
 40
0.75
100
AcDbArc
 50
90.0
 51
270.0
  0
LINE
  5
180
330
17
100
AcDbEntity
  8
LOWER_PLATE
100
AcDbLine
 10
-12.221695
 20
49.693302
 30
0.0
 11
-12.221695
 21
53.693302
 31
0.0
  0
ARC
  5
181
330
17
100
AcDbEntity
  8
LOWER_PLATE
100
AcDbCircle
 10
-12.221695
 20
54.443302
 30
0.0
 40
0.75
100
AcDbArc
 50
90.0
 51
270.0
  0
LINE
  5
182
330
17
100
AcDbEntity
  8
LOWER_PLATE
100
AcDbLine
 10
-12.221695
 20
55.193302
 30
0.0
 11
-9.721695
 21
55.193302
 31
0.0
  0
ARC
  5
183
330
17
100
AcDbEntity
  8
LOWER_PLATE
100
AcDbCircle
 10
-9.721695
 20
54.443302
 30
0.0
 40
0.75
100
AcDbArc
 50
-90.0
 51
90.0
  0
LINE
  5
184
330
17
100
AcDbEntity
  8
LOWER_PLATE
100
AcDbLine
 10
-9.721695
 20
76.700001
 30
0.0
 11
-9.721695
 21
72.700001
 31
0.0
  0
ARC
  5
185
330
17
100
AcDbEntity
  8
LOWER_PLATE
100
AcDbCircle
 10
-9.721695
 20
71.950001
 30
0.0
 40
0.75
100
AcDbArc
 50
-90.0
 51
90.0
  0
LINE
  5
186
330
17
100
AcDbEntity
  8
LOWER_PLATE
100
AcDbLine
 10
-9.721695
 20
71.200001
 30
0.0
 11
-12.221695
 21
71.200001
 31
0.0
  0
ARC
  5
187
330
17
100
AcDbEntity
  8
LOWER_PLATE
100
AcDbCircle
 10
-12.221695
 20
71.950001
 30
0.0
 40
0.75
100
AcDbArc
 50
90.0
 51
270.0
  0
LINE
  5
188
330
17
100
AcDbEntity
  8
LOWER_PLATE
100
AcDbLine
 10
-12.221695
 20
72.700001
 30
0.0
 11
-12.221695
 21
76.700001
 31
0.0
  0
ARC
  5
189
330
17
100
AcDbEntity
  8
LOWER_PLATE
100
AcDbCircle
 10
-12.221695
 20
77.450001
 30
0.0
 40
0.75
100
AcDbArc
 50
90.0
 51
270.0
  0
LINE
  5
18A
330
17
100
AcDbEntity
  8
LOWER_PLATE
100
AcDbLine
 10
-12.221695
 20
78.200001
 30
0.0
 11
-9.721695
 21
78.200001
 31
0.0
  0
ARC
  5
18B
330
17
100
AcDbEntity
  8
LOWER_PLATE
100
AcDbCircle
 10
-9.721695
 20
77.450001
 30
0.0
 40
0.75
100
AcDbArc
 50
-90.0
 51
90.0
  0
CIRCLE
  5
18C
330
17
100
AcDbEntity
  8
LOWER_PLATE
100
AcDbCircle
 10
10.0
 20
-9.059999
 30
0.0
 40
2.0
  0
CIRCLE
  5
18D
330
17
100
AcDbEntity
  8
LOWER_PLATE
100
AcDbCircle
 10
12.0
 20
16.940001
 30
0.0
 40
1.5
  0
CIRCLE
  5
18E
330
17
100
AcDbEntity
  8
LOWER_PLATE
100
AcDbCircle
 10
15.25
 20
-4.059999
 30
0.0
 40
3.0
  0
CIRCLE
  5
18F
330
17
100
AcDbEntity
  8
LOWER_PLATE
100
AcDbCircle
 10
18.571
 20
7.940001
 30
0.0
 40
3.0
  0
LINE
  5
190
330
17
100
AcDbEntity
  8
LOWER_PLATE
100
AcDbLine
 10
12.221695
 20
48.193302
 30
0.0
 11
9.721695
 21
48.193302
 31
0.0
  0
ARC
  5
191
330
17
100
AcDbEntity
  8
LOWER_PLATE
100
AcDbCircle
 10
9.721695
 20
48.943302
 30
0.0
 40
0.75
100
AcDbArc
 50
90.0
 51
270.0
  0
LINE
  5
192
330
17
100
AcDbEntity
  8
LOWER_PLATE
100
AcDbLine
 10
9.721695
 20
49.693302
 30
0.0
 11
9.721695
 21
53.693302
 31
0.0
  0
ARC
  5
193
330
17
100
AcDbEntity
  8
LOWER_PLATE
100
AcDbCircle
 10
9.721695
 20
54.443302
 30
0.0
 40
0.75
100
AcDbArc
 50
90.0
 51
270.0
  0
LINE
  5
194
330
17
100
AcDbEntity
  8
LOWER_PLATE
100
AcDbLine
 10
9.721695
 20
55.193302
 30
0.0
 11
12.221695
 21
55.193302
 31
0.0
  0
ARC
  5
195
330
17
100
AcDbEntity
  8
LOWER_PLATE
100
AcDbCircle
 10
12.221695
 20
54.443302
 30
0.0
 40
0.75
100
AcDbArc
 50
-90.0
 51
90.0
  0
LINE
  5
196
330
17
100
AcDbEntity
  8
LOWER_PLATE
100
AcDbLine
 10
12.221695
 20
53.693302
 30
0.0
 11
12.221695
 21
49.693302
 31
0.0
  0
ARC
  5
197
330
17
100
AcDbEntity
  8
LOWER_PLATE
100
AcDbCircle
 10
12.221695
 20
48.943302
 30
0.0
 40
0.75
100
AcDbArc
 50
-90.0
 51
90.0
  0
LINE
  5
198
330
17
100
AcDbEntity
  8
LOWER_PLATE
100
AcDbLine
 10
12.221695
 20
71.200001
 30
0.0
 11
9.721695
 21
71.200001
 31
0.0
  0
ARC
  5
199
330
17
100
AcDbEntity
  8
LOWER_PLATE
100
AcDbCircle
 10
9.721695
 20
71.950001
 30
0.0
 40
0.75
100
AcDbArc
 50
90.0
 51
270.0
  0
LINE
  5
19A
330
17
100
AcDbEntity
  8
LOWER_PLATE
100
AcDbLine
 10
9.721695
 20
72.700001
 30
0.0
 11
9.721695
 21
76.700001
 31
0.0
  0
ARC
  5
19B
330
17
100
AcDbEntity
  8
LOWER_PLATE
100
AcDbCircle
 10
9.721695
 20
77.450001
 30
0.0
 40
0.75
100
AcDbArc
 50
90.0
 51
270.0
  0
LINE
  5
19C
330
17
100
AcDbEntity
  8
LOWER_PLATE
100
AcDbLine
 10
9.721695
 20
78.200001
 30
0.0
 11
12.221695
 21
78.200001
 31
0.0
  0
ARC
  5
19D
330
17
100
AcDbEntity
  8
LOWER_PLATE
100
AcDbCircle
 10
12.221695
 20
77.450001
 30
0.0
 40
0.75
100
AcDbArc
 50
-90.0
 51
90.0
  0
LINE
  5
19E
330
17
100
AcDbEntity
  8
LOWER_PLATE
100
AcDbLine
 10
12.221695
 20
76.700001
 30
0.0
 11
12.221695
 21
72.700001
 31
0.0
  0
ARC
  5
19F
330
17
100
AcDbEntity
  8
LOWER_PLATE
100
AcDbCircle
 10
12.221695
 20
71.950001
 30
0.0
 40
0.75
100
AcDbArc
 50
-90.0
 51
90.0
  0
CIRCLE
  5
1A0
330
17
100
AcDbEntity
  8
LOWER_PLATE
100
AcDbCircle
 10
15.7
 20
66.400001
 30
0.0
 40
1.5
  0
LINE
  5
1A2
330
17
100
AcDbEntity
  8
BELLY_PLATE
100
AcDbLine
 10
5.999998490909
 20
20.4
 30
0.0
 11
0.0
 21
20.4
 31
0.0
  0
LINE
  5
1A3
330
17
100
AcDbEntity
  8
BELLY_PLATE
100
AcDbLine
 10
0.0
 20
20.4
 30
0.0
 11
-5.999998490909
 21
20.4
 31
0.0
  0
ARC
  5
1A4
330
17
100
AcDbEntity
  8
BELLY_PLATE
100
AcDbCircle
 10
-5.999998490909
 20
24.517927576319998
 30
0.0
 40
4.11792757632
100
AcDbArc
 50
231.77546654662186
 51
270.0
  0
ARC
  5
1A5
330
17
100
AcDbEntity
  8
BELLY_PLATE
100
AcDbCircle
 10
-12.0
 20
16.9
 30
0.0
 40
5.579125515581
100
AcDbArc
 50
51.77546654662049
 51
119.02210824752564
  0
LINE
  5
1A6
330
17
100
AcDbEntity
  8
BELLY_PLATE
100
AcDbLine
 10
-14.70669637698
 20
21.778569077244995
 30
0.0
 11
-17.99921207444
 21
21.778569077244995
 31
0.0
  0
ARC
  5
1A7
330
17
100
AcDbEntity
  8
BELLY_PLATE
100
AcDbCircle
 10
-17.99921207444
 20
19.778569077244995
 30
0.0
 40
2.0
100
AcDbArc
 50
90.0
 51
155.62490888242746
  0
LINE
  5
1A8
330
17
100
AcDbEntity
  8
BELLY_PLATE
100
AcDbLine
 10
-19.82093841162
 20
20.603986033947997
 30
0.0
 11
-24.01359854105
 21
11.350627087762
 31
0.0
  0
ARC
  5
1A9
330
17
100
AcDbEntity
  8
BELLY_PLATE
100
AcDbCircle
 10
-21.22337669796
 20
10.086388669926997
 30
0.0
 40
3.063272222768
100
AcDbArc
 50
155.62490888247223
 51
202.9626980363661
  0
LINE
  5
1AA
330
17
100
AcDbEntity
  8
BELLY_PLATE
100
AcDbLine
 10
-24.04391229139
 20
8.891308891420998
 30
0.0
 11
-20.14942692554
 21
-0.6099072943010029
 31
0.0
  0
ARC
  5
1AB
330
17
100
AcDbEntity
  8
BELLY_PLATE
100
AcDbCircle
 10
-22.0
 20
-1.368444897913001
 30
0.0
 40
2.0
100
AcDbArc
 50
0.0
 51
22.28839791569999
  0
LINE
  5
1AC
330
17
100
AcDbEntity
  8
BELLY_PLATE
100
AcDbLine
 10
-20.0
 20
-1.368444897913001
 30
0.0
 11
-20.0
 21
-5.556217610212002
 31
0.0
  0
ARC
  5
1AD
330
17
100
AcDbEntity
  8
BELLY_PLATE
100
AcDbCircle
 10
-17.908355699
 20
-5.556217610212002
 30
0.0
 40
2.091644300995
100
AcDbArc
 50
180.0
 51
223.75113042995116
  0
LINE
  5
1AE
330
17
100
AcDbEntity
  8
BELLY_PLATE
100
AcDbLine
 10
-19.41925562613
 20
-7.0026467623220015
 30
0.0
 11
-17.8670549188
 21
-8.691729838704001
 31
0.0
  0
ARC
  5
1AF
330
17
100
AcDbEntity
  8
BELLY_PLATE
100
AcDbCircle
 10
-20.30067459971
 20
-10.928130311192001
 30
0.0
 40
3.30514626373
100
AcDbArc
 50
-2.980752026734166
 51
42.5817839044673
  0
LINE
  5
1B0
330
17
100
AcDbEntity
  8
BELLY_PLATE
100
AcDbLine
 10
-17.0
 20
-11.099999480845002
 30
0.0
 11
-17.0
 21
-19.1
 31
0.0
  0
LINE
  5
1B1
330
17
100
AcDbEntity
  8
BELLY_PLATE
100
AcDbLine
 10
-17.0
 20
-19.1
 30
0.0
 11
-17.0
 21
-27.100000519155003
 31
0.0
  0
ARC
  5
1B2
330
17
100
AcDbEntity
  8
BELLY_PLATE
100
AcDbCircle
 10
-20.30067459971
 20
-27.271869688808003
 30
0.0
 40
3.30514626373
100
AcDbArc
 50
-42.58178390439073
 51
2.980752026734166
  0
LINE
  5
1B3
330
17
100
AcDbEntity
  8
BELLY_PLATE
100
AcDbLine
 10
-17.8670549188
 20
-29.50827016129
 30
0.0
 11
-19.41925562613
 21
-31.19735323767
 31
0.0
  0
ARC
  5
1B4
330
17
100
AcDbEntity
  8
BELLY_PLATE
100
AcDbCircle
 10
-17.908355699
 20
-32.64378238978
 30
0.0
 40
2.091644300995
100
AcDbArc
 50
136.24886957004884
 51
180.0
  0
LINE
  5
1B5
330
17
100
AcDbEntity
  8
BELLY_PLATE
100
AcDbLine
 10
-20.0
 20
-32.64378238978
 30
0.0
 11
-20.0
 21
-36.83155510208
 31
0.0
  0
ARC
  5
1B6
330
17
100
AcDbEntity
  8
BELLY_PLATE
100
AcDbCircle
 10
-22.0
 20
-36.83155510208
 30
0.0
 40
2.0
100
AcDbArc
 50
337.711602084353
 51
360.0
  0
LINE
  5
1B7
330
17
100
AcDbEntity
  8
BELLY_PLATE
100
AcDbLine
 10
-20.14942692554
 20
-37.59009270569
 30
0.0
 11
-24.04391229139
 21
-47.09130889142
 31
0.0
  0
ARC
  5
1B8
330
17
100
AcDbEntity
  8
BELLY_PLATE
100
AcDbCircle
 10
-21.22337669796
 20
-48.28638866992
 30
0.0
 40
3.063272222768
100
AcDbArc
 50
157.0373019637373
 51
204.37509111761293
  0
LINE
  5
1B9
330
17
100
AcDbEntity
  8
BELLY_PLATE
100
AcDbLine
 10
-24.01359854105
 20
-49.550627087760006
 30
0.0
 11
-19.82093841162
 21
-58.80398603394
 31
0.0
  0
ARC
  5
1BA
330
17
100
AcDbEntity
  8
BELLY_PLATE
100
AcDbCircle
 10
-17.99921207444
 20
-57.97856907724
 30
0.0
 40
2.0
100
AcDbArc
 50
204.37509111749418
 51
270.0
  0
LINE
  5
1BB
330
17
100
AcDbEntity
  8
BELLY_PLATE
100
AcDbLine
 10
-17.99921207444
 20
-59.97856907724
 30
0.0
 11
-14.70669637698
 21
-59.97856907724
 31
0.0
  0
ARC
  5
1BC
330
17
100
AcDbEntity
  8
BELLY_PLATE
100
AcDbCircle
 10
-12.0
 20
-55.1
 30
0.0
 40
5.579125515581
100
AcDbArc
 50
240.9778917524495
 51
308.2245334534049
  0
ARC
  5
1BD
330
17
100
AcDbEntity
  8
BELLY_PLATE
100
AcDbCircle
 10
-5.999998490909
 20
-62.71792757632
 30
0.0
 40
4.11792757632
100
AcDbArc
 50
90.0
 51
128.2245334533437
  0
LINE
  5
1BE
330
17
100
AcDbEntity
  8
BELLY_PLATE
100
AcDbLine
 10
-5.999998490909
 20
-58.6
 30
0.0
 11
0.0
 21
-58.6
 31
0.0
  0
LINE
  5
1BF
330
17
100
AcDbEntity
  8
BELLY_PLATE
100
AcDbLine
 10
0.0
 20
-58.6
 30
0.0
 11
5.999998490909
 21
-58.6
 31
0.0
  0
ARC
  5
1C0
330
17
100
AcDbEntity
  8
BELLY_PLATE
100
AcDbCircle
 10
5.999998490909
 20
-62.71792757632
 30
0.0
 40
4.11792757632
100
AcDbArc
 50
51.775466546656304
 51
90.0
  0
ARC
  5
1C1
330
17
100
AcDbEntity
  8
BELLY_PLATE
100
AcDbCircle
 10
12.0
 20
-55.1
 30
0.0
 40
5.579125515581
100
AcDbArc
 50
231.77546654659508
 51
299.0221082475505
  0
LINE
  5
1C2
330
17
100
AcDbEntity
  8
BELLY_PLATE
100
AcDbLine
 10
14.70669637698
 20
-59.97856907724
 30
0.0
 11
17.999212074444
 21
-59.97856907724
 31
0.0
  0
ARC
  5
1C3
330
17
100
AcDbEntity
  8
BELLY_PLATE
100
AcDbCircle
 10
17.999212074444
 20
-57.97856907724
 30
0.0
 40
2.0
100
AcDbArc
 50
270.0
 51
335.6249088825414
  0
LINE
  5
1C4
330
17
100
AcDbEntity
  8
BELLY_PLATE
100
AcDbLine
 10
19.820938411627
 20
-58.80398603394
 30
0.0
 11
24.013598541058
 21
-49.550627087760006
 31
0.0
  0
ARC
  5
1C5
330
17
100
AcDbEntity
  8
BELLY_PLATE
100
AcDbCircle
 10
21.223376697969
 20
-48.28638866992
 30
0.0
 40
3.063272222768
100
AcDbArc
 50
-24.375091117620684
 51
22.962698036291982
  0
LINE
  5
1C6
330
17
100
AcDbEntity
  8
BELLY_PLATE
100
AcDbLine
 10
24.043912291395
 20
-47.09130889142
 30
0.0
 11
20.149426925543
 21
-37.59009270569
 31
0.0
  0
ARC
  5
1C7
330
17
100
AcDbEntity
  8
BELLY_PLATE
100
AcDbCircle
 10
22.0
 20
-36.83155510208
 30
0.0
 40
2.0
100
AcDbArc
 50
180.0
 51
202.28839791567958
  0
LINE
  5
1C8
330
17
100
AcDbEntity
  8
BELLY_PLATE
100
AcDbLine
 10
20.0
 20
-36.83155510208
 30
0.0
 11
20.0
 21
-32.64378238978
 31
0.0
  0
ARC
  5
1C9
330
17
100
AcDbEntity
  8
BELLY_PLATE
100
AcDbCircle
 10
17.908355699005
 20
-32.64378238978
 30
0.0
 40
2.091644300995
100
AcDbArc
 50
0.0
 51
43.75113042989432
  0
LINE
  5
1CA
330
17
100
AcDbEntity
  8
BELLY_PLATE
100
AcDbLine
 10
19.419255626138
 20
-31.19735323767
 30
0.0
 11
17.867054918802
 21
-29.50827016129
 31
0.0
  0
ARC
  5
1CB
330
17
100
AcDbEntity
  8
BELLY_PLATE
100
AcDbCircle
 10
20.30067459971
 20
-27.271869688808003
 30
0.0
 40
3.30514626373
100
AcDbArc
 50
177.01924797326583
 51
222.58178390441418
  0
LINE
  5
1CC
330
17
100
AcDbEntity
  8
BELLY_PLATE
100
AcDbLine
 10
17.0
 20
-27.100000519155003
 30
0.0
 11
17.0
 21
-19.1
 31
0.0
  0
LINE
  5
1CD
330
17
100
AcDbEntity
  8
BELLY_PLATE
100
AcDbLine
 10
17.0
 20
-19.1
 30
0.0
 11
17.0
 21
-11.099999480845002
 31
0.0
  0
ARC
  5
1CE
330
17
100
AcDbEntity
  8
BELLY_PLATE
100
AcDbCircle
 10
20.30067459971
 20
-10.928130311192001
 30
0.0
 40
3.30514626373
100
AcDbArc
 50
137.41821609550922
 51
182.98075202673417
  0
LINE
  5
1CF
330
17
100
AcDbEntity
  8
BELLY_PLATE
100
AcDbLine
 10
17.867054918802
 20
-8.691729838704001
 30
0.0
 11
19.419255626138
 21
-7.0026467623220015
 31
0.0
  0
ARC
  5
1D0
330
17
100
AcDbEntity
  8
BELLY_PLATE
100
AcDbCircle
 10
17.908355699005
 20
-5.556217610212002
 30
0.0
 40
2.091644300995
100
AcDbArc
 50
316.2488695701057
 51
360.0
  0
LINE
  5
1D1
330
17
100
AcDbEntity
  8
BELLY_PLATE
100
AcDbLine
 10
20.0
 20
-5.556217610212002
 30
0.0
 11
20.0
 21
-1.368444897913001
 31
0.0
  0
ARC
  5
1D2
330
17
100
AcDbEntity
  8
BELLY_PLATE
100
AcDbCircle
 10
22.0
 20
-1.368444897913001
 30
0.0
 40
2.0
100
AcDbArc
 50
157.71160208426744
 51
180.0
  0
LINE
  5
1D3
330
17
100
AcDbEntity
  8
BELLY_PLATE
100
AcDbLine
 10
20.149426925543
 20
-0.6099072943010029
 30
0.0
 11
24.043912291395
 21
8.891308891420998
 31
0.0
  0
ARC
  5
1D4
330
17
100
AcDbEntity
  8
BELLY_PLATE
100
AcDbCircle
 10
21.223376697969
 20
10.086388669926997
 30
0.0
 40
3.063272222768
100
AcDbArc
 50
-22.962698036395352
 51
24.37509111753556
  0
LINE
  5
1D5
330
17
100
AcDbEntity
  8
BELLY_PLATE
100
AcDbLine
 10
24.013598541058
 20
11.350627087762
 30
0.0
 11
19.820938411627
 21
20.603986033947997
 31
0.0
  0
ARC
  5
1D6
330
17
100
AcDbEntity
  8
BELLY_PLATE
100
AcDbCircle
 10
17.999212074444
 20
19.778569077244995
 30
0.0
 40
2.0
100
AcDbArc
 50
24.375091117537124
 51
90.0
  0
LINE
  5
1D7
330
17
100
AcDbEntity
  8
BELLY_PLATE
100
AcDbLine
 10
17.999212074444
 20
21.778569077244995
 30
0.0
 11
14.70669637698
 21
21.778569077244995
 31
0.0
  0
ARC
  5
1D8
330
17
100
AcDbEntity
  8
BELLY_PLATE
100
AcDbCircle
 10
12.0
 20
16.9
 30
0.0
 40
5.579125515581
100
AcDbArc
 50
60.97789175247436
 51
128.22453345337954
  0
ARC
  5
1D9
330
17
100
AcDbEntity
  8
BELLY_PLATE
100
AcDbCircle
 10
5.999998490909
 20
24.517927576319998
 30
0.0
 40
4.11792757632
100
AcDbArc
 50
270.0
 51
308.22453345337817
  0
CIRCLE
  5
1DA
330
17
100
AcDbEntity
  8
BELLY_PLATE
100
AcDbCircle
 10
-18.570755
 20
-46.1
 30
0.0
 40
1.5
  0
CIRCLE
  5
1DB
330
17
100
AcDbEntity
  8
BELLY_PLATE
100
AcDbCircle
 10
-12.0
 20
-55.1
 30
0.0
 40
1.5
  0
CIRCLE
  5
1DC
330
17
100
AcDbEntity
  8
BELLY_PLATE
100
AcDbCircle
 10
-15.25
 20
-34.59997924335
 30
0.0
 40
3.0
  0
CIRCLE
  5
1DD
330
17
100
AcDbEntity
  8
BELLY_PLATE
100
AcDbCircle
 10
-10.0
 20
-29.1
 30
0.0
 40
2.0
  0
CIRCLE
  5
1DE
330
17
100
AcDbEntity
  8
BELLY_PLATE
100
AcDbCircle
 10
12.0
 20
-55.1
 30
0.0
 40
1.5
  0
CIRCLE
  5
1DF
330
17
100
AcDbEntity
  8
BELLY_PLATE
100
AcDbCircle
 10
18.570755
 20
-46.1
 30
0.0
 40
1.5
  0
CIRCLE
  5
1E0
330
17
100
AcDbEntity
  8
BELLY_PLATE
100
AcDbCircle
 10
10.0
 20
-29.1
 30
0.0
 40
2.0
  0
CIRCLE
  5
1E1
330
17
100
AcDbEntity
  8
BELLY_PLATE
100
AcDbCircle
 10
15.25
 20
-34.59997924335
 30
0.0
 40
3.0
  0
CIRCLE
  5
1E2
330
17
100
AcDbEntity
  8
BELLY_PLATE
100
AcDbCircle
 10
-15.25
 20
-4.099979243350001
 30
0.0
 40
3.0
  0
CIRCLE
  5
1E3
330
17
100
AcDbEntity
  8
BELLY_PLATE
100
AcDbCircle
 10
-10.0
 20
-9.100000000000001
 30
0.0
 40
2.0
  0
CIRCLE
  5
1E4
330
17
100
AcDbEntity
  8
BELLY_PLATE
100
AcDbCircle
 10
-18.570755
 20
7.899999999999999
 30
0.0
 40
1.5
  0
CIRCLE
  5
1E5
330
17
100
AcDbEntity
  8
BELLY_PLATE
100
AcDbCircle
 10
-12.0
 20
16.9
 30
0.0
 40
1.5
  0
CIRCLE
  5
1E6
330
17
100
AcDbEntity
  8
BELLY_PLATE
100
AcDbCircle
 10
10.0
 20
-9.100000000000001
 30
0.0
 40
2.0
  0
CIRCLE
  5
1E7
330
17
100
AcDbEntity
  8
BELLY_PLATE
100
AcDbCircle
 10
15.25
 20
-4.099979243350001
 30
0.0
 40
3.0
  0
CIRCLE
  5
1E8
330
17
100
AcDbEntity
  8
BELLY_PLATE
100
AcDbCircle
 10
12.0
 20
16.9
 30
0.0
 40
1.5
  0
CIRCLE
  5
1E9
330
17
100
AcDbEntity
  8
BELLY_PLATE
100
AcDbCircle
 10
18.570755
 20
7.899999999999999
 30
0.0
 40
1.5
  0
LINE
  5
1EB
330
17
100
AcDbEntity
  8
CHIN_PLATE
100
AcDbLine
 10
-1.513002229414
 20
80.51050103518101
 30
0.0
 11
-5.296608693261
 21
79.55839257373401
 31
0.0
  0
ARC
  5
1EC
330
17
100
AcDbEntity
  8
CHIN_PLATE
100
AcDbCircle
 10
-5.662657619732
 20
81.01304311026401
 30
0.0
 40
1.5
100
AcDbArc
 50
-146.34019174592618
 51
-75.87532834460217
  0
LINE
  5
1ED
330
17
100
AcDbEntity
  8
CHIN_PLATE
100
AcDbLine
 10
-6.911172312831
 20
80.181652070431
 30
0.0
 11
-7.508211758424
 21
81.07823681150701
 31
0.0
  0
ARC
  5
1EE
330
17
100
AcDbEntity
  8
CHIN_PLATE
100
AcDbCircle
 10
-9.339366641636
 20
79.858863286418
 30
0.0
 40
2.2
100
AcDbArc
 50
33.65980825408474
 51
87.11750034920658
  0
LINE
  5
1EF
330
17
100
AcDbEntity
  8
CHIN_PLATE
100
AcDbLine
 10
-9.228733283272
 20
82.056079766425
 30
0.0
 11
-9.449999999999
 21
82.056079766425
 31
0.0
  0
ARC
  5
1F0
330
17
100
AcDbEntity
  8
CHIN_PLATE
100
AcDbCircle
 10
-9.339366641636
 20
79.858863286418
 30
0.0
 40
2.2
100
AcDbArc
 50
92.88249965076741
 51
96.79506930353755
  0
ARC
  5
1F1
330
17
100
AcDbEntity
  8
CHIN_PLATE
100
AcDbCircle
 10
-8.549366076046
 20
73.22886669738101
 30
0.0
 40
8.876897158432
100
AcDbArc
 50
96.79506930356264
 51
138.52572233744587
  0
ARC
  5
1F2
330
17
100
AcDbEntity
  8
CHIN_PLATE
100
AcDbCircle
 10
4.010960281729
 20
63.85454487382599
 30
0.0
 40
24.530415592872
100
AcDbArc
 50
141.55130408176643
 51
171.40300045492543
  0
ARC
  5
1F3
330
17
100
AcDbEntity
  8
CHIN_PLATE
100
AcDbCircle
 10
-15.7
 20
66.4
 30
0.0
 40
4.680179188697
100
AcDbArc
 50
166.13621062637833
 51
223.66229898237668
  0
LINE
  5
1F4
330
17
100
AcDbEntity
  8
CHIN_PLATE
100
AcDbLine
 10
-19.085742692405
 20
63.168773660180996
 30
0.0
 11
-15.597181573247
 21
60.033254684713
 31
0.0
  0
ARC
  5
1F5
330
17
100
AcDbEntity
  8
CHIN_PLATE
100
AcDbCircle
 10
-13.591766991929
 20
62.264467887667
 30
0.0
 40
3.0
100
AcDbArc
 50
228.05079413546076
 51
294.7363435223038
  0
LINE
  5
1F6
330
17
100
AcDbEntity
  8
CHIN_PLATE
100
AcDbLine
 10
-12.336437184126
 20
59.53973908031
 30
0.0
 11
-1.255329807803
 21
64.644997392771
 31
0.0
  0
ARC
  5
1F7
330
17
100
AcDbEntity
  8
CHIN_PLATE
100
AcDbCircle
 10
1.082e-14
 20
61.920268585414
 30
0.0
 40
3.0
100
AcDbArc
 50
425.2636564776964
 51
474.73634352230397
  0
LINE
  5
1F8
330
17
100
AcDbEntity
  8
CHIN_PLATE
100
AcDbLine
 10
1.255329807803
 20
64.644997392771
 30
0.0
 11
12.33643718412
 21
59.53973908031
 31
0.0
  0
ARC
  5
1F9
330
17
100
AcDbEntity
  8
CHIN_PLATE
100
AcDbCircle
 10
13.59176699192
 20
62.264467887667
 30
0.0
 40
3.0
100
AcDbArc
 50
-114.73634352225179
 51
-48.050794135432454
  0
LINE
  5
1FA
330
17
100
AcDbEntity
  8
CHIN_PLATE
100
AcDbLine
 10
15.59718157324
 20
60.033254684713
 30
0.0
 11
19.0857426924
 21
63.16877366018
 31
0.0
  0
ARC
  5
1FB
330
17
100
AcDbEntity
  8
CHIN_PLATE
100
AcDbCircle
 10
15.7
 20
66.4
 30
0.0
 40
4.680179188697
100
AcDbArc
 50
-43.66229898239433
 51
13.8637893736215
  0
ARC
  5
1FC
330
17
100
AcDbEntity
  8
CHIN_PLATE
100
AcDbCircle
 10
-4.010960281729
 20
63.85454487382599
 30
0.0
 40
24.530415592872
100
AcDbArc
 50
8.59699954509108
 51
38.44869591825352
  0
ARC
  5
1FD
330
17
100
AcDbEntity
  8
CHIN_PLATE
100
AcDbCircle
 10
8.549366076046
 20
73.22886669738101
 30
0.0
 40
8.876897158432
100
AcDbArc
 50
41.4742776625927
 51
83.20493069646244
  0
ARC
  5
1FE
330
17
100
AcDbEntity
  8
CHIN_PLATE
100
AcDbCircle
 10
9.339366641636
 20
79.858863286418
 30
0.0
 40
2.2
100
AcDbArc
 50
83.20493069644274
 51
87.11750034920695
  0
LINE
  5
1FF
330
17
100
AcDbEntity
  8
CHIN_PLATE
100
AcDbLine
 10
9.45
 20
82.056079766425
 30
0.0
 11
9.228733283272
 21
82.056079766425
 31
0.0
  0
ARC
  5
200
330
17
100
AcDbEntity
  8
CHIN_PLATE
100
AcDbCircle
 10
9.339366641636
 20
79.858863286418
 30
0.0
 40
2.2
100
AcDbArc
 50
92.88249965079345
 51
146.34019174593703
  0
LINE
  5
201
330
17
100
AcDbEntity
  8
CHIN_PLATE
100
AcDbLine
 10
7.508211758424
 20
81.07823681150701
 30
0.0
 11
6.911172312831
 21
80.181652070431
 31
0.0
  0
ARC
  5
202
330
17
100
AcDbEntity
  8
CHIN_PLATE
100
AcDbCircle
 10
5.662657619732
 20
81.01304311026401
 30
0.0
 40
1.5
100
AcDbArc
 50
-104.12467165539783
 51
-33.65980825407385
  0
LINE
  5
203
330
17
100
AcDbEntity
  8
CHIN_PLATE
100
AcDbLine
 10
5.296608693261
 20
79.55839257373401
 30
0.0
 11
1.513002229414
 21
80.51050103518101
 31
0.0
  0
ARC
  5
204
330
17
100
AcDbEntity
  8
CHIN_PLATE
100
AcDbCircle
 10
8.6e-15
 20
74.497945484187
 30
0.0
 40
6.2
100
AcDbArc
 50
75.87532834460525
 51
104.12467165536972
  0
CIRCLE
  5
205
330
17
100
AcDbEntity
  8
CHIN_PLATE
100
AcDbCircle
 10
-15.7
 20
66.4
 30
0.0
 40
1.4
  0
CIRCLE
  5
206
330
17
100
AcDbEntity
  8
CHIN_PLATE
100
AcDbCircle
 10
15.7
 20
66.4
 30
0.0
 40
1.4
  0
LINE
  5
207
330
17
100
AcDbEntity
  8
CHIN_PLATE
100
AcDbLine
 10
-4.733302353565
 20
74.68954586209601
 30
0.0
 11
-2.395313117946
 21
75.480086716944
 31
0.0
  0
ARC
  5
208
330
17
100
AcDbEntity
  8
CHIN_PLATE
100
AcDbCircle
 10
-2.075
 20
74.532774990809
 30
0.0
 40
1.0
100
AcDbArc
 50
5.684341886080802e-14
 51
108.68186198264333
  0
LINE
  5
209
330
17
100
AcDbEntity
  8
CHIN_PLATE
100
AcDbLine
 10
-1.075
 20
74.532774990809
 30
0.0
 11
-1.075
 21
68.538677677877
 31
0.0
  0
ARC
  5
20A
330
17
100
AcDbEntity
  8
CHIN_PLATE
100
AcDbCircle
 10
-2.575
 20
68.538677677877
 30
0.0
 40
1.5
100
AcDbArc
 50
281.03624346794436
 51
359.99999999999943
  0
LINE
  5
20B
330
17
100
AcDbEntity
  8
CHIN_PLATE
100
AcDbLine
 10
-2.287855145568
 20
67.06641824674
 30
0.0
 11
-6.527997306438
 21
66.239434239844
 31
0.0
  0
ARC
  5
20C
330
17
100
AcDbEntity
  8
CHIN_PLATE
100
AcDbCircle
 10
-6.81514216087
 20
67.711693670981
 30
0.0
 40
1.5
100
AcDbArc
 50
153.86345134159438
 51
281.0362434679034
  0
LINE
  5
20D
330
17
100
AcDbEntity
  8
CHIN_PLATE
100
AcDbLine
 10
-8.161762298361
 20
68.37246156162301
 30
0.0
 11
-5.310735993947
 21
74.182746063056
 31
0.0
  0
ARC
  5
20E
330
17
100
AcDbEntity
  8
CHIN_PLATE
100
AcDbCircle
 10
-4.412989235619
 20
73.742234135961
 30
0.0
 40
1.0
100
AcDbArc
 50
108.68186198262417
 51
153.8634513415695
  0
LINE
  5
20F
330
17
100
AcDbEntity
  8
CHIN_PLATE
100
AcDbLine
 10
2.395313117946
 20
75.480086716944
 30
0.0
 11
4.733302353565
 21
74.68954586209601
 31
0.0
  0
ARC
  5
210
330
17
100
AcDbEntity
  8
CHIN_PLATE
100
AcDbCircle
 10
4.412989235619
 20
73.742234135961
 30
0.0
 40
1.0
100
AcDbArc
 50
26.136548658405843
 51
71.31813801735713
  0
LINE
  5
211
330
17
100
AcDbEntity
  8
CHIN_PLATE
100
AcDbLine
 10
5.310735993947
 20
74.182746063056
 30
0.0
 11
8.161762298361
 21
68.37246156162301
 31
0.0
  0
ARC
  5
212
330
17
100
AcDbEntity
  8
CHIN_PLATE
100
AcDbCircle
 10
6.81514216087
 20
67.711693670981
 30
0.0
 40
1.5
100
AcDbArc
 50
-101.03624346794442
 51
26.136548658430513
  0
LINE
  5
213
330
17
100
AcDbEntity
  8
CHIN_PLATE
100
AcDbLine
 10
6.527997306438
 20
66.239434239844
 30
0.0
 11
2.287855145568
 21
67.06641824674
 31
0.0
  0
ARC
  5
214
330
17
100
AcDbEntity
  8
CHIN_PLATE
100
AcDbCircle
 10
2.575
 20
68.538677677877
 30
0.0
 40
1.5
100
AcDbArc
 50
180.0
 51
258.96375653209674
  0
LINE
  5
215
330
17
100
AcDbEntity
  8
CHIN_PLATE
100
AcDbLine
 10
1.075
 20
68.538677677877
 30
0.0
 11
1.075
 21
74.532774990809
 31
0.0
  0
ARC
  5
216
330
17
100
AcDbEntity
  8
CHIN_PLATE
100
AcDbCircle
 10
2.075
 20
74.532774990809
 30
0.0
 40
1.0
100
AcDbArc
 50
71.31813801737499
 51
180.0
  0
LINE
  5
218
330
17
100
AcDbEntity
  8
TAIL_PLATE
100
AcDbLine
 10
13.55150413963
 20
-120.38207585597002
 30
0.0
 11
14.57418280398
 21
-115.55080078645
 31
0.0
  0
ARC
  5
219
330
17
100
AcDbEntity
  8
TAIL_PLATE
100
AcDbCircle
 10
13.10669997125
 20
-115.24016573427
 30
0.0
 40
1.5
100
AcDbArc
 50
348.04812487011384
 51
429.99999999996106
  0
LINE
  5
21A
330
17
100
AcDbEntity
  8
TAIL_PLATE
100
AcDbLine
 10
13.61973018624
 20
-113.83062680309001
 30
0.0
 11
6.666887643715
 21
-111.29999907407
 31
0.0
  0
ARC
  5
21B
330
17
100
AcDbEntity
  8
TAIL_PLATE
100
AcDbCircle
 10
6.153857428727
 20
-112.70953800525001
 30
0.0
 40
1.5
100
AcDbArc
 50
69.99999999998383
 51
169.37715667397603
  0
ARC
  5
21C
330
17
100
AcDbEntity
  8
TAIL_PLATE
100
AcDbCircle
 10
2.713840669399
 20
-112.06433672227999
 30
0.0
 40
2.0
100
AcDbArc
 50
287.45626087009583
 51
349.3771566740691
  0
LINE
  5
21D
330
17
100
AcDbEntity
  8
TAIL_PLATE
100
AcDbLine
 10
3.313795973854
 20
-113.97222918064
 30
0.0
 11
0.449966478342
 21
-114.87278816621
 31
0.0
  0
ARC
  5
21E
330
17
100
AcDbEntity
  8
TAIL_PLATE
100
AcDbCircle
 10
-1.527e-14
 20
-113.44186882245
 30
0.0
 40
1.5
100
AcDbArc
 50
-107.45626087023726
 51
-72.54373912976146
  0
LINE
  5
21F
330
17
100
AcDbEntity
  8
TAIL_PLATE
100
AcDbLine
 10
-0.449966478342
 20
-114.87278816621
 30
0.0
 11
-3.313795973854
 21
-113.97222918064
 31
0.0
  0
ARC
  5
220
330
17
100
AcDbEntity
  8
TAIL_PLATE
100
AcDbCircle
 10
-2.713840669399
 20
-112.06433672227999
 30
0.0
 40
2.0
100
AcDbArc
 50
190.62284332593129
 51
252.54373912985943
  0
ARC
  5
221
330
17
100
AcDbEntity
  8
TAIL_PLATE
100
AcDbCircle
 10
-6.153857428727
 20
-112.70953800525001
 30
0.0
 40
1.5
100
AcDbArc
 50
10.622843326023968
 51
110.00000000001617
  0
LINE
  5
222
330
17
100
AcDbEntity
  8
TAIL_PLATE
100
AcDbLine
 10
-6.666887643715
 20
-111.29999907407
 30
0.0
 11
-13.619730186241
 21
-113.83062680309001
 31
0.0
  0
ARC
  5
223
330
17
100
AcDbEntity
  8
TAIL_PLATE
100
AcDbCircle
 10
-13.106699971253
 20
-115.24016573427
 30
0.0
 40
1.5
100
AcDbArc
 50
469.9999999999671
 51
551.951875129894
  0
LINE
  5
224
330
17
100
AcDbEntity
  8
TAIL_PLATE
100
AcDbLine
 10
-14.574182803982
 20
-115.55080078645
 30
0.0
 11
-13.551504139632
 21
-120.38207585597002
 31
0.0
  0
ARC
  5
225
330
17
100
AcDbEntity
  8
TAIL_PLATE
100
AcDbCircle
 10
-10.910035040719
 20
-119.82293276204001
 30
0.0
 40
2.7
100
AcDbArc
 50
191.9518751300147
 51
245.4973405479954
  0
LINE
  5
226
330
17
100
AcDbEntity
  8
TAIL_PLATE
100
AcDbLine
 10
-12.029820834419
 20
-122.27977621986
 30
0.0
 11
-8.829287319139
 21
-123.73852278804
 31
0.0
  0
ARC
  5
227
330
17
100
AcDbEntity
  8
TAIL_PLATE
100
AcDbCircle
 10
-7.70950152544
 20
-121.28167933022002
 30
0.0
 40
2.7
100
AcDbArc
 50
245.4973405480263
 51
323.53076560992815
  0
LINE
  5
228
330
17
100
AcDbEntity
  8
TAIL_PLATE
100
AcDbLine
 10
-5.538225943481
 20
-122.88653519515
 30
0.0
 11
-4.086751195312
 21
-120.92277524175
 31
0.0
  0
ARC
  5
229
330
17
100
AcDbEntity
  8
TAIL_PLATE
100
AcDbCircle
 10
-3.845498352872
 20
-121.10109256007001
 30
0.0
 40
0.3
100
AcDbArc
 50
98.13010235407461
 51
143.53076560992793
  0
LINE
  5
22A
330
17
100
AcDbEntity
  8
TAIL_PLATE
100
AcDbLine
 10
-3.887924759743
 20
-120.80410771197
 30
0.0
 11
1.277e-14
 21
-120.24868988915
 31
0.0
  0
LINE
  5
22B
330
17
100
AcDbEntity
  8
TAIL_PLATE
100
AcDbLine
 10
1.277e-14
 20
-120.24868988915
 30
0.0
 11
4.012158232545
 21
-120.82185535094001
 31
0.0
  0
LINE
  5
22C
330
17
100
AcDbEntity
  8
TAIL_PLATE
100
AcDbLine
 10
4.012158232545
 20
-120.82185535094001
 30
0.0
 11
5.538225943481
 21
-122.88653519515
 31
0.0
  0
ARC
  5
22D
330
17
100
AcDbEntity
  8
TAIL_PLATE
100
AcDbCircle
 10
7.70950152544
 20
-121.28167933022002
 30
0.0
 40
2.7
100
AcDbArc
 50
216.46923439011613
 51
294.5026594520046
  0
LINE
  5
22E
330
17
100
AcDbEntity
  8
TAIL_PLATE
100
AcDbLine
 10
8.829287319139
 20
-123.73852278804
 30
0.0
 11
12.02982083441
 21
-122.27977621986
 31
0.0
  0
ARC
  5
22F
330
17
100
AcDbEntity
  8
TAIL_PLATE
100
AcDbCircle
 10
10.91003504071
 20
-119.82293276204001
 30
0.0
 40
2.7
100
AcDbArc
 50
294.50265945199266
 51
348.0481248699757
  0
CIRCLE
  5
230
330
17
100
AcDbEntity
  8
TAIL_PLATE
100
AcDbCircle
 10
-9.5
 20
-117.01136489601001
 30
0.0
 40
1.4
  0
CIRCLE
  5
231
330
17
100
AcDbEntity
  8
TAIL_PLATE
100
AcDbCircle
 10
9.5
 20
-117.01136489601001
 30
0.0
 40
1.4
  0
ARC
  5
233
330
17
100
AcDbEntity
  8
ARM
100
AcDbCircle
 10
179.850262770725
 20
111.23835998402797
 30
0.0
 40
1.671788374659
100
AcDbArc
 50
70.69998518754501
 51
124.49570168470629
  0
LINE
  5
234
330
17
100
AcDbEntity
  8
ARM
100
AcDbLine
 10
180.40281329802502
 20
112.81619530000799
 30
0.0
 11
182.18479567632502
 21
112.46948903193797
 31
0.0
  0
ARC
  5
235
330
17
100
AcDbEntity
  8
ARM
100
AcDbCircle
 10
182.56506090862501
 20
114.42395598402797
 30
0.0
 40
1.991115946818
100
AcDbArc
 50
-101.01003735179376
 51
-67.3173108277631
  0
LINE
  5
236
330
17
100
AcDbEntity
  8
ARM
100
AcDbLine
 10
183.332889570025
 20
112.58684361394799
 30
0.0
 11
185.80527987792502
 21
113.61619571061797
 31
0.0
  0
ARC
  5
237
330
17
100
AcDbEntity
  8
ARM
100
AcDbCircle
 10
185.036832770725
 20
115.46192098402798
 30
0.0
 40
1.999303063951
100
AcDbArc
 50
-67.39614175599013
 51
-9.362339405943658
  0
LINE
  5
238
330
17
100
AcDbEntity
  8
ARM
100
AcDbLine
 10
187.009503724025
 20
115.13667945625798
 30
0.0
 11
187.565472600225
 21
118.01619530504797
 31
0.0
  0
ARC
  5
239
330
17
100
AcDbEntity
  8
ARM
100
AcDbCircle
 10
190.293246770725
 20
117.48952428823799
 30
0.0
 40
2.778153034874
100
AcDbArc
 50
134.03921574017932
 51
169.07196149770442
  0
ARC
  5
23A
330
17
100
AcDbEntity
  8
ARM
100
AcDbCircle
 10
167.81597165122503
 20
139.02651070178797
 30
0.0
 40
28.353947992186
100
AcDbArc
 50
-43.56216014689767
 51
-16.0902693223274
  0
ARC
  5
23B
330
17
100
AcDbEntity
  8
ARM
100
AcDbCircle
 10
191.19230589522502
 20
132.89336272000799
 30
0.0
 40
4.234272799304
100
AcDbArc
 50
-24.043802159854607
 51
17.853606394567976
  0
ARC
  5
23C
330
17
100
AcDbEntity
  8
ARM
100
AcDbCircle
 10
192.511988083325
 20
130.93864397293797
 30
0.0
 40
4.234272799304
100
AcDbArc
 50
-309.80495809315113
 51
-266.2388603941834
  0
ARC
  5
23D
330
17
100
AcDbEntity
  8
ARM
100
AcDbCircle
 10
189.45120518692502
 20
106.94676079950798
 30
0.0
 40
28.353947992186
100
AcDbArc
 50
84.36717469267278
 51
111.5858837064963
  0
ARC
  5
23E
330
17
100
AcDbEntity
  8
ARM
100
AcDbCircle
 10
177.83495812692502
 20
136.30718398402797
 30
0.0
 40
3.220909811654
100
AcDbArc
 50
-98.50736027100197
 51
-68.41411629369728
  0
LINE
  5
23F
330
17
100
AcDbEntity
  8
ARM
100
AcDbLine
 10
177.358468131925
 20
133.121714269918
 30
0.0
 11
174.479430001225
 21
133.68014886676798
 31
0.0
  0
ARC
  5
240
330
17
100
AcDbEntity
  8
ARM
100
AcDbCircle
 10
174.045243473225
 20
131.728561102818
 30
0.0
 40
1.999303063951
100
AcDbArc
 50
77.4571945450559
 51
135.4909968940471
  0
LINE
  5
241
330
17
100
AcDbEntity
  8
ARM
100
AcDbLine
 10
172.619459878825
 20
133.130115198658
 30
0.0
 11
170.74204680312502
 21
131.22024616743798
 31
0.0
  0
ARC
  5
242
330
17
100
AcDbEntity
  8
ARM
100
AcDbCircle
 10
172.16007004632502
 20
129.82247909257796
 30
0.0
 40
1.991115946818
100
AcDbArc
 50
135.41216596554506
 51
169.10489249076483
  0
LINE
  5
243
330
17
100
AcDbEntity
  8
ARM
100
AcDbLine
 10
170.20484425112502
 20
130.19882308909797
 30
0.0
 11
169.86171316402502
 21
128.416148836808
 31
0.0
  0
ARC
  5
244
330
17
100
AcDbEntity
  8
ARM
100
AcDbCircle
 10
168.19165257572502
 20
128.492135684198
 30
0.0
 40
1.671788374659
100
AcDbArc
 50
-56.40084654661226
 51
-2.6051300468371323
  0
LINE
  5
245
330
17
100
AcDbEntity
  8
ARM
100
AcDbLine
 10
169.11678556052502
 20
127.09965396796798
 30
0.0
 11
167.731652296025
 21
126.17940312629798
 31
0.0
  0
ARC
  5
246
330
17
100
AcDbEntity
  8
ARM
100
AcDbCircle
 10
166.75548364292501
 20
128.024169967698
 30
0.0
 40
2.087120010559
100
AcDbArc
 50
-100.70920544047635
 51
-62.11419548764033
  0
LINE
  5
247
330
17
100
AcDbEntity
  8
ARM
100
AcDbLine
 10
166.367645642425
 20
125.97340142301798
 30
0.0
 11
164.59522175552502
 21
126.30859933606797
 31
0.0
  0
ARC
  5
248
330
17
100
AcDbEntity
  8
ARM
100
AcDbCircle
 10
164.093440300725
 20
124.34685434835797
 30
0.0
 40
2.024901979156
100
AcDbArc
 50
75.65232057392876
 51
112.05560700542816
  0
LINE
  5
249
330
17
100
AcDbEntity
  8
ARM
100
AcDbLine
 10
163.33307690682503
 20
126.22357370254798
 30
0.0
 11
160.718264582425
 21
125.16416779351798
 31
0.0
  0
ARC
  5
24A
330
17
100
AcDbEntity
  8
ARM
100
AcDbCircle
 10
161.699960861025
 20
123.31838026456796
 30
0.0
 40
2.090612155664
100
AcDbArc
 50
118.00662162596996
 51
168.99373356625927
  0
LINE
  5
24B
330
17
100
AcDbEntity
  8
ARM
100
AcDbLine
 10
159.64780277972503
 20
123.71751231642799
 30
0.0
 11
158.783500954125
 21
119.27365979210796
 31
0.0
  0
ARC
  5
24C
330
17
100
AcDbEntity
  8
ARM
100
AcDbCircle
 10
148.47621677072502
 20
121.27836280340799
 30
0.0
 40
10.500425772364
100
AcDbArc
 50
-54.77405694024043
 51
-11.006266433795759
  0
LINE
  5
24D
330
17
100
AcDbEntity
  8
ARM
100
AcDbLine
 10
154.532886019825
 20
112.70073498402797
 30
0.0
 11
20.248237223016005
 21
21.752394496493995
 31
0.0
  0
ARC
  5
24E
330
17
100
AcDbEntity
  8
ARM
100
AcDbCircle
 10
17.686165390562003
 20
25.535277332716994
 30
0.0
 40
4.568852659831
100
AcDbArc
 50
-91.85490765293486
 51
-55.890990527350255
  0
LINE
  5
24F
330
17
100
AcDbEntity
  8
ARM
100
AcDbLine
 10
17.538278067643
 20
20.968818752266994
 30
0.0
 11
14.957052671864005
 21
20.968818752266994
 31
0.0
  0
ARC
  5
250
330
17
100
AcDbEntity
  8
ARM
100
AcDbCircle
 10
12.005413770724992
 20
16.916075063062998
 30
0.0
 40
5.013671669854
100
AcDbArc
 50
53.93391170156093
 51
126.06608829843898
  0
LINE
  5
251
330
17
100
AcDbEntity
  8
ARM
100
AcDbLine
 10
9.053774869586
 20
20.968818752266998
 30
0.0
 11
0.003774869586003149
 21
20.968818752266998
 31
0.0
  0
LINE
  5
252
330
17
100
AcDbEntity
  8
ARM
100
AcDbLine
 10
0.003774869586003149
 20
20.968818752266998
 30
0.0
 11
0.0037748695859960435
 21
13.968818752266998
 31
0.0
  0
LINE
  5
253
330
17
100
AcDbEntity
  8
ARM
100
AcDbLine
 10
0.0037748695859960435
 20
13.968818752266998
 30
0.0
 11
3.5736884923379932
 21
13.968818752266998
 31
0.0
  0
ARC
  5
254
330
17
100
AcDbEntity
  8
ARM
100
AcDbCircle
 10
3.5736884923379932
 20
10.018685984027996
 30
0.0
 40
3.950132768239
100
AcDbArc
 50
44.95519474784609
 51
89.99999999999999
  0
LINE
  5
255
330
17
100
AcDbEntity
  8
ARM
100
AcDbLine
 10
6.369037558321992
 20
12.809666543977997
 30
0.0
 11
15.785122775679994
 21
4.454972984027997
 31
0.0
  0
ARC
  5
256
330
17
100
AcDbEntity
  8
ARM
100
AcDbCircle
 10
18.576461861503994
 20
7.916193591578001
 30
0.0
 40
4.446529206716
100
AcDbArc
 50
-128.88481884846442
 51
1.3253263269330091
  0
ARC
  5
257
330
17
100
AcDbEntity
  8
ARM
100
AcDbCircle
 10
25.782504140276
 20
8.082908510560998
 30
0.0
 40
2.761441325109
100
AcDbArc
 50
-235.66415644388906
 51
-178.67467367305085
  0
LINE
  5
258
330
17
100
AcDbEntity
  8
ARM
100
AcDbLine
 10
24.224933220315997
 20
10.363156528060998
 30
0.0
 11
115.53482423533501
 21
72.73428013313799
 31
0.0
  0
ARC
  5
259
330
17
100
AcDbEntity
  8
ARM
100
AcDbCircle
 10
116.716466979725
 20
70.23705515322798
 30
0.0
 40
2.762682061989
100
AcDbArc
 50
73.009924954201
 51
115.32268562909111
  0
LINE
  5
25A
330
17
100
AcDbEntity
  8
ARM
100
AcDbLine
 10
117.523739382065
 20
72.87916102621799
 30
0.0
 11
124.49120385539501
 21
70.75031303374799
 31
0.0
  0
ARC
  5
25B
330
17
100
AcDbEntity
  8
ARM
100
AcDbCircle
 10
125.075615947865
 20
72.66302380805799
 30
0.0
 40
2.0
100
AcDbArc
 50
-106.99007504582465
 51
-55.8909905272624
  0
LINE
  5
25C
330
17
100
AcDbEntity
  8
ARM
100
AcDbLine
 10
126.197154339765
 20
71.00707947459799
 30
0.0
 11
136.979416852755
 21
78.30969292329799
 31
0.0
  0
ARC
  5
25D
330
17
100
AcDbEntity
  8
ARM
100
AcDbCircle
 10
135.857878460865
 20
79.96563725675799
 30
0.0
 40
2.0
100
AcDbArc
 50
-55.89099052749975
 51
0.32916867731177035
  0
LINE
  5
25E
330
17
100
AcDbEntity
  8
ARM
100
AcDbLine
 10
137.857845455045
 20
79.97712734797798
 30
0.0
 11
137.817694797775
 21
86.96575674877798
 31
0.0
  0
ARC
  5
25F
330
17
100
AcDbEntity
  8
ARM
100
AcDbCircle
 10
140.91748290506501
 20
87.13314064261797
 30
0.0
 40
3.10430405695
100
AcDbArc
 50
-235.84651348270467
 51
-176.90911595327697
  0
LINE
  5
260
330
17
100
AcDbEntity
  8
ARM
100
AcDbLine
 10
139.174690108335
 20
89.70206589369798
 30
0.0
 11
160.14783977072503
 21
104.32022653533798
 31
0.0
  0
ARC
  5
261
330
17
100
AcDbEntity
  8
ARM
100
AcDbCircle
 10
165.900369770725
 20
96.06688498402798
 30
0.0
 40
10.060280719914
100
AcDbArc
 50
79.18870589624021
 51
124.8762676778216
  0
LINE
  5
262
330
17
100
AcDbEntity
  8
ARM
100
AcDbLine
 10
167.78742631022502
 20
105.94859869065797
 30
0.0
 11
172.23289072652503
 21
105.09262677892798
 31
0.0
  0
ARC
  5
263
330
17
100
AcDbEntity
  8
ARM
100
AcDbCircle
 10
172.62817600172502
 20
107.14552898402798
 30
0.0
 40
2.090611851215
100
AcDbArc
 50
-100.89888643285303
 51
-49.91177092563436
  0
LINE
  5
264
330
17
100
AcDbEntity
  8
ARM
100
AcDbLine
 10
173.97445993492502
 20
105.54609862181798
 30
0.0
 11
175.93289055842502
 21
107.57689498402797
 31
0.0
  0
ARC
  5
265
330
17
100
AcDbEntity
  8
ARM
100
AcDbCircle
 10
174.47533477072503
 20
108.98251198402798
 30
0.0
 40
2.024901979156
100
AcDbArc
 50
-43.96075186878343
 51
-7.557465435747247
  0
LINE
  5
266
330
17
100
AcDbEntity
  8
ARM
100
AcDbLine
 10
176.48264733762502
 20
108.71619584912798
 30
0.0
 11
176.832889911425
 21
110.48570827218796
 31
0.0
  0
ARC
  5
267
330
17
100
AcDbEntity
  8
ARM
100
AcDbCircle
 10
178.88028977072503
 20
110.08046297019797
 30
0.0
 40
2.087120010559
100
AcDbArc
 50
130.20905062696113
 51
168.8040605792321
  0
LINE
  5
268
330
17
100
AcDbEntity
  8
ARM
100
AcDbLine
 10
177.532890316925
 20
111.67438412587796
 30
0.0
 11
178.903454770725
 21
112.61619559859798
 31
0.0
  0
CIRCLE
  5
269
330
17
100
AcDbEntity
  8
ARM
100
AcDbCircle
 10
18.576461861503994
 20
7.916193591578001
 30
0.0
 40
1.6
  0
CIRCLE
  5
26A
330
17
100
AcDbEntity
  8
ARM
100
AcDbCircle
 10
12.005413770724992
 20
16.916075063062998
 30
0.0
 40
1.6
  0
CIRCLE
  5
26B
330
17
100
AcDbEntity
  8
ARM
100
AcDbCircle
 10
125.423707695135
 20
75.31431960934799
 30
0.0
 40
2.0
  0
CIRCLE
  5
26C
330
17
100
AcDbEntity
  8
ARM
100
AcDbCircle
 10
132.526863501715
 20
80.12514674871798
 30
0.0
 40
2.0
  0
LINE
  5
26D
330
17
100
AcDbEntity
  8
ARM
100
AcDbLine
 10
170.08687460442502
 20
110.37972121419799
 30
0.0
 11
170.371869161325
 21
111.85239840304797
 31
0.0
  0
ARC
  5
26E
330
17
100
AcDbEntity
  8
ARM
100
AcDbCircle
 10
171.84454635022502
 20
111.56740384613798
 30
0.0
 40
1.5
100
AcDbArc
 50
-10.952572430987004
 51
169.04742756973837
  0
LINE
  5
26F
330
17
100
AcDbEntity
  8
ARM
100
AcDbLine
 10
173.317223539025
 20
111.28240928922799
 30
0.0
 11
173.03222898212502
 21
109.80973210038798
 31
0.0
  0
ARC
  5
270
330
17
100
AcDbEntity
  8
ARM
100
AcDbCircle
 10
171.559551793225
 20
110.09472665729797
 30
0.0
 40
1.5
100
AcDbArc
 50
-190.9525724306123
 51
-10.952572430261085
  0
LINE
  5
271
330
17
100
AcDbEntity
  8
ARM
100
AcDbLine
 10
181.50379021772503
 20
119.37438840527798
 30
0.0
 11
182.976467406625
 21
119.08939384836799
 31
0.0
  0
ARC
  5
272
330
17
100
AcDbEntity
  8
ARM
100
AcDbCircle
 10
182.69147284972502
 20
117.61671665952798
 30
0.0
 40
1.5
100
AcDbArc
 50
-100.95257243032142
 51
79.04742756967855
  0
LINE
  5
273
330
17
100
AcDbEntity
  8
ARM
100
AcDbLine
 10
182.40647829282503
 20
116.14403947068797
 30
0.0
 11
180.93380110392502
 21
116.42903402759796
 31
0.0
  0
ARC
  5
274
330
17
100
AcDbEntity
  8
ARM
100
AcDbCircle
 10
181.218795660825
 20
117.90171121643797
 30
0.0
 40
1.5
100
AcDbArc
 50
-280.9525724303225
 51
-100.95257243032142
  0
LINE
  5
275
330
17
100
AcDbEntity
  8
ARM
100
AcDbLine
 10
164.32255634792503
 20
122.69932490254797
 30
0.0
 11
165.795233536825
 21
122.41433034563798
 31
0.0
  0
ARC
  5
276
330
17
100
AcDbEntity
  8
ARM
100
AcDbCircle
 10
165.51023897992502
 20
120.94165315679797
 30
0.0
 40
1.5
100
AcDbArc
 50
-100.95257243407212
 51
79.04742756967855
  0
LINE
  5
277
330
17
100
AcDbEntity
  8
ARM
100
AcDbLine
 10
165.22524442292502
 20
119.46897596795799
 30
0.0
 11
163.75256723412502
 21
119.75397052486798
 31
0.0
  0
ARC
  5
278
330
17
100
AcDbEntity
  8
ARM
100
AcDbCircle
 10
164.037561791025
 20
121.22664771370799
 30
0.0
 40
1.5
100
AcDbArc
 50
-280.9525724303225
 51
-100.95257243032142
  0
CIRCLE
  5
279
330
17
100
AcDbEntity
  8
ARM
100
AcDbCircle
 10
173.364517320325
 20
119.42168218661797
 30
0.0
 40
3.625
  0
LINE
  5
27A
330
17
100
AcDbEntity
  8
ARM
100
AcDbLine
 10
173.41181110172502
 20
127.56095508401799
 30
0.0
 11
173.696805658625
 21
129.03363227285797
 31
0.0
  0
ARC
  5
27B
330
17
100
AcDbEntity
  8
ARM
100
AcDbCircle
 10
175.16948284742503
 20
128.74863771594798
 30
0.0
 40
1.5
100
AcDbArc
 50
-10.952572430261625
 51
169.047427569013
  0
LINE
  5
27C
330
17
100
AcDbEntity
  8
ARM
100
AcDbLine
 10
176.642160036325
 20
128.46364315903799
 30
0.0
 11
176.35716547942502
 21
126.99096597019798
 31
0.0
  0
ARC
  5
27D
330
17
100
AcDbEntity
  8
ARM
100
AcDbCircle
 10
174.884488290525
 20
127.27596052710797
 30
0.0
 40
1.5
100
AcDbArc
 50
-190.95257243098752
 51
-10.952572430261085
  0
LINE
  5
27E
330
17
100
AcDbEntity
  8
ARM
100
AcDbLine
 10
185.01511780142502
 20
123.60192265603797
 30
0.0
 11
181.72606405762502
 21
124.20111326170797
 31
0.0
  0
ARC
  5
27F
330
17
100
AcDbEntity
  8
ARM
100
AcDbCircle
 10
181.89996025032502
 20
125.18919671158798
 30
0.0
 40
1.00326905153
100
AcDbArc
 50
-191.92368085377302
 51
-99.98146400827562
  0
LINE
  5
280
330
17
100
AcDbEntity
  8
ARM
100
AcDbLine
 10
180.91833805742502
 20
125.39648071993798
 30
0.0
 11
181.589458245725
 21
128.67161454989798
 31
0.0
  0
ARC
  5
281
330
17
100
AcDbEntity
  8
ARM
100
AcDbCircle
 10
183.518077290325
 20
128.14205947179798
 30
0.0
 40
2.0
100
AcDbArc
 50
-231.7869913891406
 51
-195.3537345551352
  0
ARC
  5
282
330
17
100
AcDbEntity
  8
ARM
100
AcDbCircle
 10
190.95585059302502
 20
104.09793135501798
 30
0.0
 40
27.044623714639
100
AcDbArc
 50
94.58958967693425
 51
108.70914634304759
  0
ARC
  5
283
330
17
100
AcDbEntity
  8
ARM
100
AcDbCircle
 10
188.91387006632502
 20
129.928590680108
 30
0.0
 40
1.133834389304
100
AcDbArc
 50
-388.0857157228538
 51
-263.8194291362827
  0
ARC
  5
284
330
17
100
AcDbEntity
  8
ARM
100
AcDbCircle
 10
164.505816241225
 20
141.58489251383799
 30
0.0
 40
28.181270181395
100
AcDbArc
 50
-37.25124011365281
 51
-25.630160605757624
  0
ARC
  5
285
330
17
100
AcDbEntity
  8
ARM
100
AcDbCircle
 10
185.243307160125
 20
125.58886241771799
 30
0.0
 40
2.0
100
AcDbArc
 50
-96.55141030617938
 51
-32.0868689193278
  0
LINE
  5
287
330
17
100
AcDbEntity
  8
ARM_BRACE
100
AcDbLine
 10
131.169699565518
 20
25.317610316027988
 30
0.0
 11
137.84436679441498
 21
85.259494243528
 31
0.0
  0
ARC
  5
288
330
17
100
AcDbEntity
  8
ARM_BRACE
100
AcDbCircle
 10
135.657091915135
 20
85.50286798402797
 30
0.0
 40
2.200773085776
100
AcDbArc
 50
-6.349072056431709
 51
126.43765620077455
  0
LINE
  5
289
330
17
100
AcDbEntity
  8
ARM_BRACE
100
AcDbLine
 10
134.34994768273498
 20
87.27339788512799
 30
0.0
 11
122.65295336994399
 21
79.09700698402798
 31
0.0
  0
ARC
  5
28A
330
17
100
AcDbEntity
  8
ARM_BRACE
100
AcDbCircle
 10
126.03213777072499
 20
74.26280798402797
 30
0.0
 40
5.89816642577
100
AcDbArc
 50
-235.0458200363259
 51
-179.9807501400196
  0
LINE
  5
28B
330
17
100
AcDbEntity
  8
ARM_BRACE
100
AcDbLine
 10
120.133971677842
 20
74.26082635681797
 30
0.0
 11
120.13397167784197
 21
-109.82843638876801
 31
0.0
  0
ARC
  5
28C
330
17
100
AcDbEntity
  8
ARM_BRACE
100
AcDbCircle
 10
127.00859021733197
 20
-109.82843638876801
 30
0.0
 40
6.87461853949
100
AcDbArc
 50
-180.0
 51
-129.89160321634984
  0
LINE
  5
28D
330
17
100
AcDbEntity
  8
ARM_BRACE
100
AcDbLine
 10
122.59964164334997
 20
-115.103050359049
 30
0.0
 11
134.56310324025497
 21
-125.10307827479201
 31
0.0
  0
ARC
  5
28E
330
17
100
AcDbEntity
  8
ARM_BRACE
100
AcDbCircle
 10
135.80450302394496
 20
-123.512559210142
 30
0.0
 40
2.017628389456
100
AcDbArc
 50
-127.97203022625126
 51
6.3228236928662795
  0
LINE
  5
28F
330
17
100
AcDbEntity
  8
ARM_BRACE
100
AcDbLine
 10
137.80985851097498
 20
-123.290357300652
 30
0.0
 11
131.18963506529997
 21
-63.54333963338502
 31
0.0
  0
ARC
  5
290
330
17
100
AcDbEntity
  8
ARM_BRACE
100
AcDbCircle
 10
306.511269180725
 20
-43.387481512529035
 30
0.0
 40
176.47644036958
100
AcDbArc
 50
-179.99992859520324
 51
-173.44178070301984
  0
LINE
  5
291
330
17
100
AcDbEntity
  8
ARM_BRACE
100
AcDbLine
 10
130.03482881135898
 20
-43.38770144608202
 30
0.0
 11
130.034764993795
 21
7.820021461767986
 31
0.0
  0
ARC
  5
292
330
17
100
AcDbEntity
  8
ARM_BRACE
100
AcDbCircle
 10
306.521497205325
 20
5.158280571197963
 30
0.0
 40
176.50680301697
100
AcDbArc
 50
173.44177945394293
 51
179.13594095292058
  0
CIRCLE
  5
293
330
17
100
AcDbEntity
  8
ARM_BRACE
100
AcDbCircle
 10
125.42251277072496
 20
-113.44554501597202
 30
0.0
 40
2.5
  0
CIRCLE
  5
294
330
17
100
AcDbEntity
  8
ARM_BRACE
100
AcDbCircle
 10
132.54412577072497
 20
-118.359431015972
 30
0.0
 40
2.5
  0
LINE
  5
295
330
17
100
AcDbEntity
  8
ARM_BRACE
100
AcDbLine
 10
129.78971986738398
 20
-110.01555841237601
 30
0.0
 11
129.78971986738398
 21
-93.21525053615801
 31
0.0
  0
ARC
  5
296
330
17
100
AcDbEntity
  8
ARM_BRACE
100
AcDbCircle
 10
131.04354779697496
 20
-93.17094887681603
 30
0.0
 40
1.25461034351
100
AcDbArc
 50
-353.2334964545473
 51
-177.97640286936758
  0
LINE
  5
297
330
17
100
AcDbEntity
  8
ARM_BRACE
100
AcDbLine
 10
132.28941922759597
 20
-93.02312637377901
 30
0.0
 11
134.48840228825497
 21
-111.55650333203701
 31
0.0
  0
ARC
  5
298
330
17
100
AcDbEntity
  8
ARM_BRACE
100
AcDbCircle
 10
133.14657313215497
 20
-111.67481002316501
 30
0.0
 40
1.347034504875
100
AcDbArc
 50
-124.58487347476165
 51
5.038637794305856
  0
LINE
  5
299
330
17
100
AcDbEntity
  8
ARM_BRACE
100
AcDbLine
 10
132.38196077072496
 20
-112.783805015972
 30
0.0
 11
130.45550070629798
 21
-111.45557974118
 31
0.0
  0
ARC
  5
29A
330
17
100
AcDbEntity
  8
ARM_BRACE
100
AcDbCircle
 10
131.67992562711896
 20
-110.01555841237601
 30
0.0
 40
1.890205759735
100
AcDbArc
 50
-180.0
 51
-130.37393176452167
  0
CIRCLE
  5
29B
330
17
100
AcDbEntity
  8
ARM_BRACE
100
AcDbCircle
 10
125.43288877072499
 20
75.21619598402799
 30
0.0
 40
2.5
  0
ARC
  5
29C
330
17
100
AcDbEntity
  8
ARM_BRACE
100
AcDbCircle
 10
131.05185473481498
 20
54.61233498402799
 30
0.0
 40
1.254609950823
100
AcDbArc
 50
-182.023613331219
 51
-6.766505390539805
  0
LINE
  5
29D
330
17
100
AcDbEntity
  8
ARM_BRACE
100
AcDbLine
 10
129.798027210193
 20
54.65663698402799
 30
0.0
 11
129.798027210193
 21
71.45694498402798
 31
0.0
  0
ARC
  5
29E
330
17
100
AcDbEntity
  8
ARM_BRACE
100
AcDbCircle
 10
131.688232770725
 20
71.45694498402798
 30
0.0
 40
1.890205560532
100
AcDbArc
 50
130.3739400491259
 51
180.0
  0
LINE
  5
29F
330
17
100
AcDbEntity
  8
ARM_BRACE
100
AcDbLine
 10
130.463807770725
 20
72.89696598402799
 30
0.0
 11
132.390267770725
 21
74.22519110137799
 31
0.0
  0
ARC
  5
2A0
330
17
100
AcDbEntity
  8
ARM_BRACE
100
AcDbCircle
 10
133.15488015296498
 20
73.116195984028
 30
0.0
 40
1.347034619231
100
AcDbArc
 50
-5.038629726556678
 51
124.58487119654546
  0
LINE
  5
2A1
330
17
100
AcDbEntity
  8
ARM_BRACE
100
AcDbLine
 10
134.496709439635
 20
72.99788947179798
 30
0.0
 11
132.29772577072498
 21
54.46451248713799
 31
0.0
  0
CIRCLE
  5
2A2
330
17
100
AcDbEntity
  8
ARM_BRACE
100
AcDbCircle
 10
132.55450177072498
 20
80.13008198402798
 30
0.0
 40
2.5
  0
CIRCLE
  5
2A4
330
17
100
AcDbEntity
  8
STANDOFFS
100
AcDbCircle
 10
15.7
 20
66.4
 30
0.0
 40
3.0
  0
TEXT
  5
2A5
330
17
100
AcDbEntity
  8
STANDOFFS
100
AcDbText
 10
19.2
 20
67.4
 30
0.0
 40
2.5
  1
S1
 11
19.2
 21
67.4
 31
0.0
100
AcDbText
  0
CIRCLE
  5
2A6
330
17
100
AcDbEntity
  8
STANDOFFS
100
AcDbCircle
 10
-15.7
 20
66.4
 30
0.0
 40
3.0
  0
TEXT
  5
2A7
330
17
100
AcDbEntity
  8
STANDOFFS
100
AcDbText
 10
-12.2
 20
67.4
 30
0.0
 40
2.5
  1
S2
 11
-12.2
 21
67.4
 31
0.0
100
AcDbText
  0
CIRCLE
  5
2A8
330
17
100
AcDbEntity
  8
STANDOFFS
100
AcDbCircle
 10
12.0
 20
16.97
 30
0.0
 40
3.0
  0
TEXT
  5
2A9
330
17
100
AcDbEntity
  8
STANDOFFS
100
AcDbText
 10
15.5
 20
17.97
 30
0.0
 40
2.5
  1
S3
 11
15.5
 21
17.97
 31
0.0
100
AcDbText
  0
CIRCLE
  5
2AA
330
17
100
AcDbEntity
  8
STANDOFFS
100
AcDbCircle
 10
-12.0
 20
16.97
 30
0.0
 40
3.0
  0
TEXT
  5
2AB
330
17
100
AcDbEntity
  8
STANDOFFS
100
AcDbText
 10
-8.5
 20
17.97
 30
0.0
 40
2.5
  1
S4
 11
-8.5
 21
17.97
 31
0.0
100
AcDbText
  0
CIRCLE
  5
2AC
330
17
100
AcDbEntity
  8
STANDOFFS
100
AcDbCircle
 10
12.0
 20
-55.03
 30
0.0
 40
3.0
  0
TEXT
  5
2AD
330
17
100
AcDbEntity
  8
STANDOFFS
100
AcDbText
 10
15.5
 20
-54.03
 30
0.0
 40
2.5
  1
S5
 11
15.5
 21
-54.03
 31
0.0
100
AcDbText
  0
CIRCLE
  5
2AE
330
17
100
AcDbEntity
  8
STANDOFFS
100
AcDbCircle
 10
-12.0
 20
-55.03
 30
0.0
 40
3.0
  0
TEXT
  5
2AF
330
17
100
AcDbEntity
  8
STANDOFFS
100
AcDbText
 10
-8.5
 20
-54.03
 30
0.0
 40
2.5
  1
S6
 11
-8.5
 21
-54.03
 31
0.0
100
AcDbText
  0
CIRCLE
  5
2B0
330
17
100
AcDbEntity
  8
STANDOFFS
100
AcDbCircle
 10
9.5
 20
-117.05
 30
0.0
 40
3.0
  0
TEXT
  5
2B1
330
17
100
AcDbEntity
  8
STANDOFFS
100
AcDbText
 10
13.0
 20
-116.05
 30
0.0
 40
2.5
  1
S7
 11
13.0
 21
-116.05
 31
0.0
100
AcDbText
  0
CIRCLE
  5
2B2
330
17
100
AcDbEntity
  8
STANDOFFS
100
AcDbCircle
 10
-9.5
 20
-117.05
 30
0.0
 40
3.0
  0
TEXT
  5
2B3
330
17
100
AcDbEntity
  8
STANDOFFS
100
AcDbText
 10
-6.0
 20
-116.05
 30
0.0
 40
2.5
  1
S8
 11
-6.0
 21
-116.05
 31
0.0
100
AcDbText
  0
ENDSEC
  0
SECTION
  2
OBJECTS
  0
DICTIONARY
  5
A
330
0
100
AcDbDictionary
281
1
  3
ACAD_COLOR
350
B
  3
ACAD_GROUP
350
C
  3
ACAD_LAYOUT
350
D
  3
ACAD_MATERIAL
350
E
  3
ACAD_MLEADERSTYLE
350
F
  3
ACAD_MLINESTYLE
350
10
  3
ACAD_PLOTSETTINGS
350
11
  3
ACAD_PLOTSTYLENAME
350
12
  3
ACAD_SCALELIST
350
14
  3
ACAD_TABLESTYLE
350
15
  3
ACAD_VISUALSTYLE
350
16
  3
EZDXF_META
350
2D
  0
DICTIONARY
  5
B
330
A
100
AcDbDictionary
281
1
  0
DICTIONARY
  5
C
330
A
100
AcDbDictionary
281
1
  0
DICTIONARY
  5
D
330
A
100
AcDbDictionary
281
1
  3
Model
350
1A
  3
Layout1
350
1E
  0
DICTIONARY
  5
E
330
A
100
AcDbDictionary
281
1
  3
ByBlock
350
1F
  3
ByLayer
350
20
  3
Global
350
21
  0
DICTIONARY
  5
F
330
A
100
AcDbDictionary
281
1
  3
Standard
350
2C
  0
DICTIONARY
  5
10
330
A
100
AcDbDictionary
281
1
  3
Standard
350
22
  0
DICTIONARY
  5
11
330
A
100
AcDbDictionary
281
1
  0
ACDBDICTIONARYWDFLT
  5
12
330
A
100
AcDbDictionary
281
1
  3
Normal
350
13
100
AcDbDictionaryWithDefault
340
13
  0
ACDBPLACEHOLDER
  5
13
330
12
  0
DICTIONARY
  5
14
330
A
100
AcDbDictionary
281
1
  0
DICTIONARY
  5
15
330
A
100
AcDbDictionary
281
1
  0
DICTIONARY
  5
16
330
A
100
AcDbDictionary
281
1
  3
2dWireframe
350
5A
  3
Basic
350
5B
  3
Brighten
350
5C
  3
ColorChange
350
5D
  3
Conceptual
350
5E
  3
Dim
350
5F
  3
EdgeColorOff
350
60
  3
Facepattern
350
61
  3
Flat
350
62
  3
FlatWithEdges
350
63
  3
Gouraud
350
64
  3
GouraudWithEdges
350
65
  3
Hidden
350
66
  3
JitterOff
350
67
  3
Linepattern
350
68
  3
Modeling
350
69
  3
OverhangOff
350
6A
  3
Realistic
350
6B
  3
Shaded
350
6C
  3
Shaded with edges
350
6D
  3
Shades of Gray
350
6E
  3
Sketchy
350
6F
  3
Thicken
350
70
  3
Wireframe
350
71
  3
X-Ray
350
72
  0
LAYOUT
  5
1A
330
D
100
AcDbPlotSettings
  1

  4
A3
  6

 40
7.5
 41
20.0
 42
7.5
 43
20.0
 44
420.0
 45
297.0
 46
0.0
 47
0.0
 48
0.0
 49
0.0
140
0.0
141
0.0
142
1.0
143
1.0
 70
1024
 72
1
 73
0
 74
5
  7

 75
16
 76
0
 77
2
 78
300
147
1.0
148
0.0
149
0.0
100
AcDbLayout
  1
Model
 70
1
 71
0
 10
0.0
 20
0.0
 11
420.0
 21
297.0
 12
0.0
 22
0.0
 32
0.0
 14
1e+20
 24
1e+20
 34
1e+20
 15
-1e+20
 25
-1e+20
 35
-1e+20
146
0.0
 13
0.0
 23
0.0
 33
0.0
 16
1.0
 26
0.0
 36
0.0
 17
0.0
 27
1.0
 37
0.0
 76
1
330
17
  0
LAYOUT
  5
1E
330
D
100
AcDbPlotSettings
  1

  4
A3
  6

 40
7.5
 41
20.0
 42
7.5
 43
20.0
 44
420.0
 45
297.0
 46
0.0
 47
0.0
 48
0.0
 49
0.0
140
0.0
141
0.0
142
1.0
143
1.0
 70
0
 72
1
 73
0
 74
5
  7

 75
16
 76
0
 77
2
 78
300
147
1.0
148
0.0
149
0.0
100
AcDbLayout
  1
Layout1
 70
1
 71
1
 10
0.0
 20
0.0
 11
420.0
 21
297.0
 12
0.0
 22
0.0
 32
0.0
 14
1e+20
 24
1e+20
 34
1e+20
 15
-1e+20
 25
-1e+20
 35
-1e+20
146
0.0
 13
0.0
 23
0.0
 33
0.0
 16
1.0
 26
0.0
 36
0.0
 17
0.0
 27
1.0
 37
0.0
 76
1
330
1B
  0
MATERIAL
  5
1F
102
{ACAD_REACTORS
330
E
102
}
330
E
100
AcDbMaterial
  1
ByBlock
  2

 70
0
 40
1.0
 71
1
 41
1.0
 91
-1023410177
 42
1.0
 72
1
  3

 73
1
 74
1
 75
1
 44
0.5
 73
0
 45
1.0
 46
1.0
 77
1
  4

 78
1
 79
1
170
1
 48
1.0
171
1
  6

172
1
173
1
174
1
140
1.0
141
1.0
175
1
  7

176
1
177
1
178
1
143
1.0
179
1
  8

270
1
271
1
272
1
145
1.0
146
1.0
273
1
  9

274
1
275
1
276
1
 42
1.0
 72
1
  3

 73
1
 74
1
 75
1
 94
63
  0
MATERIAL
  5
20
102
{ACAD_REACTORS
330
E
102
}
330
E
100
AcDbMaterial
  1
ByLayer
  2

 70
0
 40
1.0
 71
1
 41
1.0
 91
-1023410177
 42
1.0
 72
1
  3

 73
1
 74
1
 75
1
 44
0.5
 73
0
 45
1.0
 46
1.0
 77
1
  4

 78
1
 79
1
170
1
 48
1.0
171
1
  6

172
1
173
1
174
1
140
1.0
141
1.0
175
1
  7

176
1
177
1
178
1
143
1.0
179
1
  8

270
1
271
1
272
1
145
1.0
146
1.0
273
1
  9

274
1
275
1
276
1
 42
1.0
 72
1
  3

 73
1
 74
1
 75
1
 94
63
  0
MATERIAL
  5
21
102
{ACAD_REACTORS
330
E
102
}
330
E
100
AcDbMaterial
  1
Global
  2

 70
0
 40
1.0
 71
1
 41
1.0
 91
-1023410177
 42
1.0
 72
1
  3

 73
1
 74
1
 75
1
 44
0.5
 73
0
 45
1.0
 46
1.0
 77
1
  4

 78
1
 79
1
170
1
 48
1.0
171
1
  6

172
1
173
1
174
1
140
1.0
141
1.0
175
1
  7

176
1
177
1
178
1
143
1.0
179
1
  8

270
1
271
1
272
1
145
1.0
146
1.0
273
1
  9

274
1
275
1
276
1
 42
1.0
 72
1
  3

 73
1
 74
1
 75
1
 94
63
  0
MLINESTYLE
  5
22
102
{ACAD_REACTORS
330
10
102
}
330
10
100
AcDbMlineStyle
  2
Standard
 70
0
  3

 62
256
 51
90.0
 52
90.0
 71
2
 49
0.5
 62
256
  6
BYLAYER
 49
-0.5
 62
256
  6
BYLAYER
  0
MLEADERSTYLE
  5
2C
102
{ACAD_REACTORS
330
F
102
}
330
F
100
AcDbMLeaderStyle
179
2
170
2
171
1
172
0
 90
2
 40
0.0
 41
0.0
173
1
 91
-1056964608
 92
-2
290
1
 42
2.0
291
1
 43
8.0
  3
Standard
 44
4.0
300

342
29
174
1
175
1
176
0
178
1
 93
-1056964608
 45
4.0
292
0
297
0
 46
4.0
 94
-1056964608
 47
1.0
 49
1.0
140
1.0
294
1
141
0.0
177
0
142
1.0
295
0
296
0
143
3.75
271
0
272
9
273
9
  0
DICTIONARY
  5
2D
330
A
100
AcDbDictionary
280
1
281
1
  3
CREATED_BY_EZDXF
350
2E
  3
WRITTEN_BY_EZDXF
350
2B6
  0
DICTIONARYVAR
  5
2E
330
2D
100
DictionaryVariables
280
0
  1
1.4.4 @ 2026-10-09T09:01:34.312788+00:00
  0
VISUALSTYLE
  5
5A
102
{ACAD_REACTORS
330
16
102
}
330
16
100
AcDbVisualStyle
  2
2dWireframe
 70
4
177
3
291
0
 70
58
 90
2
176
1
 90
2
176
1
 90
0
176
1
 90
0
176
1
 40
0.6
176
1
 40
30.0
176
1
 62
7
420
16777215
176
1
 90
1
176
1
 90
4
176
1
 62
7
176
1
 62
257
176
1
 90
1
176
1
 90
1
176
1
 40
1.0
176
1
 90
8
176
1
 62
7
176
1
 40
1.0
176
1
 90
1
176
1
 90
6
176
1
 90
2
176
1
 62
7
176
1
 90
5
176
1
 90
0
176
1
 90
0
176
1
290
0
176
1
 90
1
176
1
 40
0.0
176
1
 90
0
176
1
290
1
176
1
290
1
176
1
290
0
176
1
290
0
176
1
290
0
176
1
290
0
176
1
290
0
176
1
290
0
176
1
290
0
176
1
 90
50
176
1
 40
0.0
176
1
 40
1.0
176
1
 90
0
176
1
 62
18
420
0
176
1
 90
50
176
1
 90
3
176
1
 62
5
420
255
176
1
290
0
176
1
 90
50
176
1
 90
50
176
1
 90
50
176
1
290
0
176
1
 90
50
176
1
 62
256
176
0
 40
1.0
176
0
 90
2
176
1
  1
strokes_ogs.tif
176
1
290
0
176
1
 40
1.0
176
1
 40
1.0
176
1
  0
VISUALSTYLE
  5
5B
102
{ACAD_REACTORS
330
16
102
}
330
16
100
AcDbVisualStyle
  2
Basic
 70
7
177
3
291
1
 70
58
 90
2
176
1
 90
2
176
1
 90
0
176
1
 90
1
176
1
 40
0.6
176
1
 40
30.0
176
1
 62
7
420
16777215
176
1
 90
1
176
1
 90
4
176
1
 62
7
176
1
 62
257
176
1
 90
1
176
1
 90
1
176
1
 40
1.0
176
1
 90
8
176
1
 62
7
176
1
 40
1.0
176
1
 90
1
176
1
 90
6
176
1
 90
2
176
1
 62
7
176
1
 90
5
176
1
 90
0
176
1
 90
0
176
1
290
0
176
1
 90
1
176
1
 40
0.0
176
1
 90
0
176
1
290
0
176
1
290
1
176
1
290
1
176
1
290
0
176
1
290
0
176
1
290
0
176
1
290
0
176
1
290
0
176
1
290
0
176
1
 90
50
176
1
 40
0.0
176
1
 40
1.0
176
1
 90
0
176
1
 62
18
420
0
176
1
 90
50
176
1
 90
3
176
1
 62
5
420
255
176
1
290
0
176
1
 90
50
176
1
 90
50
176
1
 90
50
176
1
290
0
176
1
 90
50
176
1
 62
256
176
0
 40
1.0
176
0
 90
2
176
1
  1
strokes_ogs.tif
176
1
290
0
176
1
 40
1.0
176
1
 40
1.0
176
1
  0
VISUALSTYLE
  5
5C
102
{ACAD_REACTORS
330
16
102
}
330
16
100
AcDbVisualStyle
  2
Brighten
 70
12
177
3
291
1
 70
58
 90
2
176
1
 90
2
176
1
 90
0
176
1
 90
2
176
1
 40
0.6
176
1
 40
30.0
176
1
 62
7
420
16777215
176
1
 90
1
176
1
 90
4
176
1
 62
7
176
1
 62
257
176
1
 90
1
176
1
 90
1
176
1
 40
1.0
176
1
 90
8
176
1
 62
7
176
1
 40
1.0
176
1
 90
1
176
1
 90
6
176
1
 90
2
176
1
 62
7
176
1
 90
5
176
1
 90
0
176
1
 90
0
176
1
290
0
176
1
 90
1
176
1
 40
0.0
176
1
 90
0
176
1
290
0
176
1
290
1
176
1
290
1
176
1
290
0
176
1
290
0
176
1
290
0
176
1
290
0
176
1
290
0
176
1
290
0
176
1
 90
50
176
1
 40
0.0
176
1
 40
1.0
176
1
 90
0
176
1
 62
18
420
0
176
1
 90
50
176
1
 90
3
176
1
 62
5
420
255
176
1
290
0
176
1
 90
50
176
1
 90
50
176
1
 90
50
176
1
290
0
176
1
 90
50
176
1
 62
256
176
0
 40
1.0
176
0
 90
2
176
1
  1
strokes_ogs.tif
176
1
290
0
176
1
 40
1.0
176
1
 40
1.0
176
1
  0
VISUALSTYLE
  5
5D
102
{ACAD_REACTORS
330
16
102
}
330
16
100
AcDbVisualStyle
  2
ColorChange
 70
16
177
3
291
1
 70
58
 90
2
176
1
 90
2
176
1
 90
0
176
1
 90
2
176
1
 40
0.6
176
1
 40
30.0
176
1
 62
7
420
16777215
176
1
 90
1
176
1
 90
4
176
1
 62
7
176
1
 62
257
176
1
 90
1
176
1
 90
1
176
1
 40
1.0
176
1
 90
8
176
1
 62
7
176
1
 40
1.0
176
1
 90
1
176
1
 90
6
176
1
 90
2
176
1
 62
7
176
1
 90
5
176
1
 90
0
176
1
 90
0
176
1
290
0
176
1
 90
1
176
1
 40
0.0
176
1
 90
0
176
1
290
0
176
1
290
1
176
1
290
1
176
1
290
0
176
1
290
0
176
1
290
0
176
1
290
0
176
1
290
0
176
1
290
0
176
1
 90
50
176
1
 40
0.0
176
1
 40
1.0
176
1
 90
0
176
1
 62
18
420
0
176
1
 90
50
176
1
 90
3
176
1
 62
5
420
255
176
1
290
0
176
1
 90
50
176
1
 90
50
176
1
 90
50
176
1
290
0
176
1
 90
50
176
1
 62
256
176
0
 40
1.0
176
0
 90
2
176
1
  1
strokes_ogs.tif
176
1
290
0
176
1
 40
1.0
176
1
 40
1.0
176
1
  0
VISUALSTYLE
  5
5E
102
{ACAD_REACTORS
330
16
102
}
330
16
100
AcDbVisualStyle
  2
Conceptual
 70
9
177
3
291
0
 70
58
 90
2
176
1
 90
2
176
1
 90
0
176
1
 90
3
176
1
 40
0.6
176
1
 40
30.0
176
1
 62
7
420
16777215
176
1
 90
1
176
1
 90
4
176
1
 62
7
176
1
 62
257
176
1
 90
1
176
1
 90
1
176
1
 40
1.0
176
1
 90
8
176
1
 62
7
176
1
 40
1.0
176
1
 90
1
176
1
 90
6
176
1
 90
2
176
1
 62
7
176
1
 90
5
176
1
 90
0
176
1
 90
0
176
1
290
0
176
1
 90
1
176
1
 40
0.0
176
1
 90
0
176
1
290
0
176
1
290
1
176
1
290
1
176
1
290
0
176
1
290
0
176
1
290
0
176
1
290
0
176
1
290
0
176
1
290
0
176
1
 90
50
176
1
 40
0.0
176
1
 40
1.0
176
1
 90
0
176
1
 62
18
420
0
176
1
 90
50
176
1
 90
3
176
1
 62
5
420
255
176
1
290
0
176
1
 90
50
176
1
 90
50
176
1
 90
50
176
1
290
0
176
1
 90
50
176
1
 62
256
176
0
 40
1.0
176
0
 90
2
176
1
  1
strokes_ogs.tif
176
1
290
0
176
1
 40
1.0
176
1
 40
1.0
176
1
  0
VISUALSTYLE
  5
5F
102
{ACAD_REACTORS
330
16
102
}
330
16
100
AcDbVisualStyle
  2
Dim
 70
11
177
3
291
1
 70
58
 90
2
176
1
 90
2
176
1
 90
0
176
1
 90
2
176
1
 40
0.6
176
1
 40
30.0
176
1
 62
7
420
16777215
176
1
 90
1
176
1
 90
4
176
1
 62
7
176
1
 62
257
176
1
 90
1
176
1
 90
1
176
1
 40
1.0
176
1
 90
8
176
1
 62
7
176
1
 40
1.0
176
1
 90
1
176
1
 90
6
176
1
 90
2
176
1
 62
7
176
1
 90
5
176
1
 90
0
176
1
 90
0
176
1
290
0
176
1
 90
1
176
1
 40
0.0
176
1
 90
0
176
1
290
0
176
1
290
1
176
1
290
1
176
1
290
0
176
1
290
0
176
1
290
0
176
1
290
0
176
1
290
0
176
1
290
0
176
1
 90
50
176
1
 40
0.0
176
1
 40
1.0
176
1
 90
0
176
1
 62
18
420
0
176
1
 90
50
176
1
 90
3
176
1
 62
5
420
255
176
1
290
0
176
1
 90
50
176
1
 90
50
176
1
 90
50
176
1
290
0
176
1
 90
50
176
1
 62
256
176
0
 40
1.0
176
0
 90
2
176
1
  1
strokes_ogs.tif
176
1
290
0
176
1
 40
1.0
176
1
 40
1.0
176
1
  0
VISUALSTYLE
  5
60
102
{ACAD_REACTORS
330
16
102
}
330
16
100
AcDbVisualStyle
  2
EdgeColorOff
 70
22
177
3
291
1
 70
58
 90
2
176
1
 90
2
176
1
 90
0
176
1
 90
2
176
1
 40
0.6
176
1
 40
30.0
176
1
 62
7
420
16777215
176
1
 90
1
176
1
 90
4
176
1
 62
7
176
1
 62
257
176
1
 90
1
176
1
 90
1
176
1
 40
1.0
176
1
 90
8
176
1
 62
7
176
1
 40
1.0
176
1
 90
1
176
1
 90
6
176
1
 90
2
176
1
 62
7
176
1
 90
5
176
1
 90
0
176
1
 90
0
176
1
290
0
176
1
 90
1
176
1
 40
0.0
176
1
 90
0
176
1
290
0
176
1
290
1
176
1
290
1
176
1
290
0
176
1
290
0
176
1
290
0
176
1
290
0
176
1
290
0
176
1
290
0
176
1
 90
50
176
1
 40
0.0
176
1
 40
1.0
176
1
 90
0
176
1
 62
18
420
0
176
1
 90
50
176
1
 90
3
176
1
 62
5
420
255
176
1
290
0
176
1
 90
50
176
1
 90
50
176
1
 90
50
176
1
290
0
176
1
 90
50
176
1
 62
256
176
0
 40
1.0
176
0
 90
2
176
1
  1
strokes_ogs.tif
176
1
290
0
176
1
 40
1.0
176
1
 40
1.0
176
1
  0
VISUALSTYLE
  5
61
102
{ACAD_REACTORS
330
16
102
}
330
16
100
AcDbVisualStyle
  2
Facepattern
 70
15
177
3
291
1
 70
58
 90
2
176
1
 90
2
176
1
 90
0
176
1
 90
2
176
1
 40
0.6
176
1
 40
30.0
176
1
 62
7
420
16777215
176
1
 90
1
176
1
 90
4
176
1
 62
7
176
1
 62
257
176
1
 90
1
176
1
 90
1
176
1
 40
1.0
176
1
 90
8
176
1
 62
7
176
1
 40
1.0
176
1
 90
1
176
1
 90
6
176
1
 90
2
176
1
 62
7
176
1
 90
5
176
1
 90
0
176
1
 90
0
176
1
290
0
176
1
 90
1
176
1
 40
0.0
176
1
 90
0
176
1
290
0
176
1
290
1
176
1
290
1
176
1
290
0
176
1
290
0
176
1
290
0
176
1
290
0
176
1
290
0
176
1
290
0
176
1
 90
50
176
1
 40
0.0
176
1
 40
1.0
176
1
 90
0
176
1
 62
18
420
0
176
1
 90
50
176
1
 90
3
176
1
 62
5
420
255
176
1
290
0
176
1
 90
50
176
1
 90
50
176
1
 90
50
176
1
290
0
176
1
 90
50
176
1
 62
256
176
0
 40
1.0
176
0
 90
2
176
1
  1
strokes_ogs.tif
176
1
290
0
176
1
 40
1.0
176
1
 40
1.0
176
1
  0
VISUALSTYLE
  5
62
102
{ACAD_REACTORS
330
16
102
}
330
16
100
AcDbVisualStyle
  2
Flat
 70
0
177
3
291
1
 70
58
 90
2
176
1
 90
2
176
1
 90
0
176
1
 90
2
176
1
 40
0.6
176
1
 40
30.0
176
1
 62
7
420
16777215
176
1
 90
1
176
1
 90
4
176
1
 62
7
176
1
 62
257
176
1
 90
1
176
1
 90
1
176
1
 40
1.0
176
1
 90
8
176
1
 62
7
176
1
 40
1.0
176
1
 90
1
176
1
 90
6
176
1
 90
2
176
1
 62
7
176
1
 90
5
176
1
 90
0
176
1
 90
0
176
1
290
0
176
1
 90
1
176
1
 40
0.0
176
1
 90
0
176
1
290
0
176
1
290
1
176
1
290
1
176
1
290
0
176
1
290
0
176
1
290
0
176
1
290
0
176
1
290
0
176
1
290
0
176
1
 90
50
176
1
 40
0.0
176
1
 40
1.0
176
1
 90
0
176
1
 62
18
420
0
176
1
 90
50
176
1
 90
3
176
1
 62
5
420
255
176
1
290
0
176
1
 90
50
176
1
 90
50
176
1
 90
50
176
1
290
0
176
1
 90
50
176
1
 62
256
176
0
 40
1.0
176
0
 90
2
176
1
  1
strokes_ogs.tif
176
1
290
0
176
1
 40
1.0
176
1
 40
1.0
176
1
  0
VISUALSTYLE
  5
63
102
{ACAD_REACTORS
330
16
102
}
330
16
100
AcDbVisualStyle
  2
FlatWithEdges
 70
1
177
3
291
1
 70
58
 90
2
176
1
 90
2
176
1
 90
0
176
1
 90
2
176
1
 40
0.6
176
1
 40
30.0
176
1
 62
7
420
16777215
176
1
 90
1
176
1
 90
4
176
1
 62
7
176
1
 62
257
176
1
 90
1
176
1
 90
1
176
1
 40
1.0
176
1
 90
8
176
1
 62
7
176
1
 40
1.0
176
1
 90
1
176
1
 90
6
176
1
 90
2
176
1
 62
7
176
1
 90
5
176
1
 90
0
176
1
 90
0
176
1
290
0
176
1
 90
1
176
1
 40
0.0
176
1
 90
0
176
1
290
0
176
1
290
1
176
1
290
1
176
1
290
0
176
1
290
0
176
1
290
0
176
1
290
0
176
1
290
0
176
1
290
0
176
1
 90
50
176
1
 40
0.0
176
1
 40
1.0
176
1
 90
0
176
1
 62
18
420
0
176
1
 90
50
176
1
 90
3
176
1
 62
5
420
255
176
1
290
0
176
1
 90
50
176
1
 90
50
176
1
 90
50
176
1
290
0
176
1
 90
50
176
1
 62
256
176
0
 40
1.0
176
0
 90
2
176
1
  1
strokes_ogs.tif
176
1
290
0
176
1
 40
1.0
176
1
 40
1.0
176
1
  0
VISUALSTYLE
  5
64
102
{ACAD_REACTORS
330
16
102
}
330
16
100
AcDbVisualStyle
  2
Gouraud
 70
2
177
3
291
1
 70
58
 90
2
176
1
 90
2
176
1
 90
0
176
1
 90
2
176
1
 40
0.6
176
1
 40
30.0
176
1
 62
7
420
16777215
176
1
 90
1
176
1
 90
4
176
1
 62
7
176
1
 62
257
176
1
 90
1
176
1
 90
1
176
1
 40
1.0
176
1
 90
8
176
1
 62
7
176
1
 40
1.0
176
1
 90
1
176
1
 90
6
176
1
 90
2
176
1
 62
7
176
1
 90
5
176
1
 90
0
176
1
 90
0
176
1
290
0
176
1
 90
1
176
1
 40
0.0
176
1
 90
0
176
1
290
0
176
1
290
1
176
1
290
1
176
1
290
0
176
1
290
0
176
1
290
0
176
1
290
0
176
1
290
0
176
1
290
0
176
1
 90
50
176
1
 40
0.0
176
1
 40
1.0
176
1
 90
0
176
1
 62
18
420
0
176
1
 90
50
176
1
 90
3
176
1
 62
5
420
255
176
1
290
0
176
1
 90
50
176
1
 90
50
176
1
 90
50
176
1
290
0
176
1
 90
50
176
1
 62
256
176
0
 40
1.0
176
0
 90
2
176
1
  1
strokes_ogs.tif
176
1
290
0
176
1
 40
1.0
176
1
 40
1.0
176
1
  0
VISUALSTYLE
  5
65
102
{ACAD_REACTORS
330
16
102
}
330
16
100
AcDbVisualStyle
  2
GouraudWithEdges
 70
3
177
3
291
1
 70
58
 90
2
176
1
 90
2
176
1
 90
0
176
1
 90
2
176
1
 40
0.6
176
1
 40
30.0
176
1
 62
7
420
16777215
176
1
 90
1
176
1
 90
4
176
1
 62
7
176
1
 62
257
176
1
 90
1
176
1
 90
1
176
1
 40
1.0
176
1
 90
8
176
1
 62
7
176
1
 40
1.0
176
1
 90
1
176
1
 90
6
176
1
 90
2
176
1
 62
7
176
1
 90
5
176
1
 90
0
176
1
 90
0
176
1
290
0
176
1
 90
1
176
1
 40
0.0
176
1
 90
0
176
1
290
0
176
1
290
1
176
1
290
1
176
1
290
0
176
1
290
0
176
1
290
0
176
1
290
0
176
1
290
0
176
1
290
0
176
1
 90
50
176
1
 40
0.0
176
1
 40
1.0
176
1
 90
0
176
1
 62
18
420
0
176
1
 90
50
176
1
 90
3
176
1
 62
5
420
255
176
1
290
0
176
1
 90
50
176
1
 90
50
176
1
 90
50
176
1
290
0
176
1
 90
50
176
1
 62
256
176
0
 40
1.0
176
0
 90
2
176
1
  1
strokes_ogs.tif
176
1
290
0
176
1
 40
1.0
176
1
 40
1.0
176
1
  0
VISUALSTYLE
  5
66
102
{ACAD_REACTORS
330
16
102
}
330
16
100
AcDbVisualStyle
  2
Hidden
 70
6
177
3
291
0
 70
58
 90
2
176
1
 90
2
176
1
 90
0
176
1
 90
1
176
1
 40
0.6
176
1
 40
30.0
176
1
 62
7
420
16777215
176
1
 90
1
176
1
 90
4
176
1
 62
7
176
1
 62
257
176
1
 90
1
176
1
 90
1
176
1
 40
1.0
176
1
 90
8
176
1
 62
7
176
1
 40
1.0
176
1
 90
1
176
1
 90
6
176
1
 90
2
176
1
 62
7
176
1
 90
5
176
1
 90
0
176
1
 90
0
176
1
290
0
176
1
 90
1
176
1
 40
0.0
176
1
 90
0
176
1
290
0
176
1
290
1
176
1
290
1
176
1
290
0
176
1
290
0
176
1
290
0
176
1
290
0
176
1
290
0
176
1
290
0
176
1
 90
50
176
1
 40
0.0
176
1
 40
1.0
176
1
 90
0
176
1
 62
18
420
0
176
1
 90
50
176
1
 90
3
176
1
 62
5
420
255
176
1
290
0
176
1
 90
50
176
1
 90
50
176
1
 90
50
176
1
290
0
176
1
 90
50
176
1
 62
256
176
0
 40
1.0
176
0
 90
2
176
1
  1
strokes_ogs.tif
176
1
290
0
176
1
 40
1.0
176
1
 40
1.0
176
1
  0
VISUALSTYLE
  5
67
102
{ACAD_REACTORS
330
16
102
}
330
16
100
AcDbVisualStyle
  2
JitterOff
 70
20
177
3
291
1
 70
58
 90
2
176
1
 90
2
176
1
 90
0
176
1
 90
2
176
1
 40
0.6
176
1
 40
30.0
176
1
 62
7
420
16777215
176
1
 90
1
176
1
 90
4
176
1
 62
7
176
1
 62
257
176
1
 90
1
176
1
 90
1
176
1
 40
1.0
176
1
 90
8
176
1
 62
7
176
1
 40
1.0
176
1
 90
1
176
1
 90
6
176
1
 90
2
176
1
 62
7
176
1
 90
5
176
1
 90
0
176
1
 90
0
176
1
290
0
176
1
 90
1
176
1
 40
0.0
176
1
 90
0
176
1
290
0
176
1
290
1
176
1
290
1
176
1
290
0
176
1
290
0
176
1
290
0
176
1
290
0
176
1
290
0
176
1
290
0
176
1
 90
50
176
1
 40
0.0
176
1
 40
1.0
176
1
 90
0
176
1
 62
18
420
0
176
1
 90
50
176
1
 90
3
176
1
 62
5
420
255
176
1
290
0
176
1
 90
50
176
1
 90
50
176
1
 90
50
176
1
290
0
176
1
 90
50
176
1
 62
256
176
0
 40
1.0
176
0
 90
2
176
1
  1
strokes_ogs.tif
176
1
290
0
176
1
 40
1.0
176
1
 40
1.0
176
1
  0
VISUALSTYLE
  5
68
102
{ACAD_REACTORS
330
16
102
}
330
16
100
AcDbVisualStyle
  2
Linepattern
 70
14
177
3
291
1
 70
58
 90
2
176
1
 90
2
176
1
 90
0
176
1
 90
2
176
1
 40
0.6
176
1
 40
30.0
176
1
 62
7
420
16777215
176
1
 90
1
176
1
 90
4
176
1
 62
7
176
1
 62
257
176
1
 90
1
176
1
 90
1
176
1
 40
1.0
176
1
 90
8
176
1
 62
7
176
1
 40
1.0
176
1
 90
1
176
1
 90
6
176
1
 90
2
176
1
 62
7
176
1
 90
5
176
1
 90
0
176
1
 90
0
176
1
290
0
176
1
 90
1
176
1
 40
0.0
176
1
 90
0
176
1
290
0
176
1
290
1
176
1
290
1
176
1
290
0
176
1
290
0
176
1
290
0
176
1
290
0
176
1
290
0
176
1
290
0
176
1
 90
50
176
1
 40
0.0
176
1
 40
1.0
176
1
 90
0
176
1
 62
18
420
0
176
1
 90
50
176
1
 90
3
176
1
 62
5
420
255
176
1
290
0
176
1
 90
50
176
1
 90
50
176
1
 90
50
176
1
290
0
176
1
 90
50
176
1
 62
256
176
0
 40
1.0
176
0
 90
2
176
1
  1
strokes_ogs.tif
176
1
290
0
176
1
 40
1.0
176
1
 40
1.0
176
1
  0
VISUALSTYLE
  5
69
102
{ACAD_REACTORS
330
16
102
}
330
16
100
AcDbVisualStyle
  2
Modeling
 70
10
177
3
291
0
 70
58
 90
2
176
1
 90
2
176
1
 90
0
176
1
 90
2
176
1
 40
0.6
176
1
 40
30.0
176
1
 62
7
420
16777215
176
1
 90
1
176
1
 90
4
176
1
 62
7
176
1
 62
257
176
1
 90
1
176
1
 90
1
176
1
 40
1.0
176
1
 90
8
176
1
 62
7
176
1
 40
1.0
176
1
 90
1
176
1
 90
6
176
1
 90
2
176
1
 62
7
176
1
 90
5
176
1
 90
0
176
1
 90
0
176
1
290
0
176
1
 90
1
176
1
 40
0.0
176
1
 90
0
176
1
290
0
176
1
290
1
176
1
290
1
176
1
290
0
176
1
290
0
176
1
290
0
176
1
290
0
176
1
290
0
176
1
290
0
176
1
 90
50
176
1
 40
0.0
176
1
 40
1.0
176
1
 90
0
176
1
 62
18
420
0
176
1
 90
50
176
1
 90
3
176
1
 62
5
420
255
176
1
290
0
176
1
 90
50
176
1
 90
50
176
1
 90
50
176
1
290
0
176
1
 90
50
176
1
 62
256
176
0
 40
1.0
176
0
 90
2
176
1
  1
strokes_ogs.tif
176
1
290
0
176
1
 40
1.0
176
1
 40
1.0
176
1
  0
VISUALSTYLE
  5
6A
102
{ACAD_REACTORS
330
16
102
}
330
16
100
AcDbVisualStyle
  2
OverhangOff
 70
21
177
3
291
1
 70
58
 90
2
176
1
 90
2
176
1
 90
0
176
1
 90
2
176
1
 40
0.6
176
1
 40
30.0
176
1
 62
7
420
16777215
176
1
 90
1
176
1
 90
4
176
1
 62
7
176
1
 62
257
176
1
 90
1
176
1
 90
1
176
1
 40
1.0
176
1
 90
8
176
1
 62
7
176
1
 40
1.0
176
1
 90
1
176
1
 90
6
176
1
 90
2
176
1
 62
7
176
1
 90
5
176
1
 90
0
176
1
 90
0
176
1
290
0
176
1
 90
1
176
1
 40
0.0
176
1
 90
0
176
1
290
0
176
1
290
1
176
1
290
1
176
1
290
0
176
1
290
0
176
1
290
0
176
1
290
0
176
1
290
0
176
1
290
0
176
1
 90
50
176
1
 40
0.0
176
1
 40
1.0
176
1
 90
0
176
1
 62
18
420
0
176
1
 90
50
176
1
 90
3
176
1
 62
5
420
255
176
1
290
0
176
1
 90
50
176
1
 90
50
176
1
 90
50
176
1
290
0
176
1
 90
50
176
1
 62
256
176
0
 40
1.0
176
0
 90
2
176
1
  1
strokes_ogs.tif
176
1
290
0
176
1
 40
1.0
176
1
 40
1.0
176
1
  0
VISUALSTYLE
  5
6B
102
{ACAD_REACTORS
330
16
102
}
330
16
100
AcDbVisualStyle
  2
Realistic
 70
8
177
3
291
0
 70
58
 90
2
176
1
 90
2
176
1
 90
0
176
1
 90
2
176
1
 40
0.6
176
1
 40
30.0
176
1
 62
7
420
16777215
176
1
 90
1
176
1
 90
4
176
1
 62
7
176
1
 62
257
176
1
 90
1
176
1
 90
1
176
1
 40
1.0
176
1
 90
8
176
1
 62
7
176
1
 40
1.0
176
1
 90
1
176
1
 90
6
176
1
 90
2
176
1
 62
7
176
1
 90
5
176
1
 90
0
176
1
 90
0
176
1
290
0
176
1
 90
1
176
1
 40
0.0
176
1
 90
0
176
1
290
0
176
1
290
1
176
1
290
1
176
1
290
0
176
1
290
0
176
1
290
0
176
1
290
0
176
1
290
0
176
1
290
0
176
1
 90
50
176
1
 40
0.0
176
1
 40
1.0
176
1
 90
0
176
1
 62
18
420
0
176
1
 90
50
176
1
 90
3
176
1
 62
5
420
255
176
1
290
0
176
1
 90
50
176
1
 90
50
176
1
 90
50
176
1
290
0
176
1
 90
50
176
1
 62
256
176
0
 40
1.0
176
0
 90
2
176
1
  1
strokes_ogs.tif
176
1
290
0
176
1
 40
1.0
176
1
 40
1.0
176
1
  0
VISUALSTYLE
  5
6C
102
{ACAD_REACTORS
330
16
102
}
330
16
100
AcDbVisualStyle
  2
Shaded
 70
27
177
3
291
0
 70
58
 90
2
176
1
 90
2
176
1
 90
0
176
1
 90
2
176
1
 40
0.6
176
1
 40
30.0
176
1
 62
7
420
16777215
176
1
 90
1
176
1
 90
4
176
1
 62
7
176
1
 62
257
176
1
 90
1
176
1
 90
1
176
1
 40
1.0
176
1
 90
8
176
1
 62
7
176
1
 40
1.0
176
1
 90
1
176
1
 90
6
176
1
 90
2
176
1
 62
7
176
1
 90
5
176
1
 90
0
176
1
 90
0
176
1
290
0
176
1
 90
1
176
1
 40
0.0
176
1
 90
0
176
1
290
0
176
1
290
1
176
1
290
1
176
1
290
0
176
1
290
0
176
1
290
0
176
1
290
0
176
1
290
0
176
1
290
0
176
1
 90
50
176
1
 40
0.0
176
1
 40
1.0
176
1
 90
0
176
1
 62
18
420
0
176
1
 90
50
176
1
 90
3
176
1
 62
5
420
255
176
1
290
0
176
1
 90
50
176
1
 90
50
176
1
 90
50
176
1
290
0
176
1
 90
50
176
1
 62
256
176
0
 40
1.0
176
0
 90
2
176
1
  1
strokes_ogs.tif
176
1
290
0
176
1
 40
1.0
176
1
 40
1.0
176
1
  0
VISUALSTYLE
  5
6D
102
{ACAD_REACTORS
330
16
102
}
330
16
100
AcDbVisualStyle
  2
Shaded with edges
 70
26
177
3
291
0
 70
58
 90
2
176
1
 90
2
176
1
 90
0
176
1
 90
2
176
1
 40
0.6
176
1
 40
30.0
176
1
 62
7
420
16777215
176
1
 90
1
176
1
 90
4
176
1
 62
7
176
1
 62
257
176
1
 90
1
176
1
 90
1
176
1
 40
1.0
176
1
 90
8
176
1
 62
7
176
1
 40
1.0
176
1
 90
1
176
1
 90
6
176
1
 90
2
176
1
 62
7
176
1
 90
5
176
1
 90
0
176
1
 90
0
176
1
290
0
176
1
 90
1
176
1
 40
0.0
176
1
 90
0
176
1
290
0
176
1
290
1
176
1
290
1
176
1
290
0
176
1
290
0
176
1
290
0
176
1
290
0
176
1
290
0
176
1
290
0
176
1
 90
50
176
1
 40
0.0
176
1
 40
1.0
176
1
 90
0
176
1
 62
18
420
0
176
1
 90
50
176
1
 90
3
176
1
 62
5
420
255
176
1
290
0
176
1
 90
50
176
1
 90
50
176
1
 90
50
176
1
290
0
176
1
 90
50
176
1
 62
256
176
0
 40
1.0
176
0
 90
2
176
1
  1
strokes_ogs.tif
176
1
290
0
176
1
 40
1.0
176
1
 40
1.0
176
1
  0
VISUALSTYLE
  5
6E
102
{ACAD_REACTORS
330
16
102
}
330
16
100
AcDbVisualStyle
  2
Shades of Gray
 70
23
177
3
291
0
 70
58
 90
2
176
1
 90
2
176
1
 90
0
176
1
 90
2
176
1
 40
0.6
176
1
 40
30.0
176
1
 62
7
420
16777215
176
1
 90
1
176
1
 90
4
176
1
 62
7
176
1
 62
257
176
1
 90
1
176
1
 90
1
176
1
 40
1.0
176
1
 90
8
176
1
 62
7
176
1
 40
1.0
176
1
 90
1
176
1
 90
6
176
1
 90
2
176
1
 62
7
176
1
 90
5
176
1
 90
0
176
1
 90
0
176
1
290
0
176
1
 90
1
176
1
 40
0.0
176
1
 90
0
176
1
290
0
176
1
290
1
176
1
290
1
176
1
290
0
176
1
290
0
176
1
290
0
176
1
290
0
176
1
290
0
176
1
290
0
176
1
 90
50
176
1
 40
0.0
176
1
 40
1.0
176
1
 90
0
176
1
 62
18
420
0
176
1
 90
50
176
1
 90
3
176
1
 62
5
420
255
176
1
290
0
176
1
 90
50
176
1
 90
50
176
1
 90
50
176
1
290
0
176
1
 90
50
176
1
 62
256
176
0
 40
1.0
176
0
 90
2
176
1
  1
strokes_ogs.tif
176
1
290
0
176
1
 40
1.0
176
1
 40
1.0
176
1
  0
VISUALSTYLE
  5
6F
102
{ACAD_REACTORS
330
16
102
}
330
16
100
AcDbVisualStyle
  2
Sketchy
 70
24
177
3
291
0
 70
58
 90
2
176
1
 90
2
176
1
 90
0
176
1
 90
1
176
1
 40
0.6
176
1
 40
30.0
176
1
 62
7
420
16777215
176
1
 90
1
176
1
 90
4
176
1
 62
7
176
1
 62
257
176
1
 90
1
176
1
 90
1
176
1
 40
1.0
176
1
 90
8
176
1
 62
7
176
1
 40
1.0
176
1
 90
1
176
1
 90
6
176
1
 90
2
176
1
 62
7
176
1
 90
5
176
1
 90
0
176
1
 90
0
176
1
290
0
176
1
 90
1
176
1
 40
0.0
176
1
 90
0
176
1
290
0
176
1
290
1
176
1
290
1
176
1
290
0
176
1
290
0
176
1
290
0
176
1
290
0
176
1
290
0
176
1
290
0
176
1
 90
50
176
1
 40
0.0
176
1
 40
1.0
176
1
 90
0
176
1
 62
18
420
0
176
1
 90
50
176
1
 90
3
176
1
 62
5
420
255
176
1
290
0
176
1
 90
50
176
1
 90
50
176
1
 90
50
176
1
290
0
176
1
 90
50
176
1
 62
256
176
0
 40
1.0
176
0
 90
2
176
1
  1
strokes_ogs.tif
176
1
290
0
176
1
 40
1.0
176
1
 40
1.0
176
1
  0
VISUALSTYLE
  5
70
102
{ACAD_REACTORS
330
16
102
}
330
16
100
AcDbVisualStyle
  2
Thicken
 70
13
177
3
291
1
 70
58
 90
2
176
1
 90
2
176
1
 90
0
176
1
 90
2
176
1
 40
0.6
176
1
 40
30.0
176
1
 62
7
420
16777215
176
1
 90
1
176
1
 90
4
176
1
 62
7
176
1
 62
257
176
1
 90
1
176
1
 90
1
176
1
 40
1.0
176
1
 90
8
176
1
 62
7
176
1
 40
1.0
176
1
 90
1
176
1
 90
6
176
1
 90
2
176
1
 62
7
176
1
 90
5
176
1
 90
0
176
1
 90
0
176
1
290
0
176
1
 90
1
176
1
 40
0.0
176
1
 90
0
176
1
290
0
176
1
290
1
176
1
290
1
176
1
290
0
176
1
290
0
176
1
290
0
176
1
290
0
176
1
290
0
176
1
290
0
176
1
 90
50
176
1
 40
0.0
176
1
 40
1.0
176
1
 90
0
176
1
 62
18
420
0
176
1
 90
50
176
1
 90
3
176
1
 62
5
420
255
176
1
290
0
176
1
 90
50
176
1
 90
50
176
1
 90
50
176
1
290
0
176
1
 90
50
176
1
 62
256
176
0
 40
1.0
176
0
 90
2
176
1
  1
strokes_ogs.tif
176
1
290
0
176
1
 40
1.0
176
1
 40
1.0
176
1
  0
VISUALSTYLE
  5
71
102
{ACAD_REACTORS
330
16
102
}
330
16
100
AcDbVisualStyle
  2
Wireframe
 70
5
177
3
291
0
 70
58
 90
2
176
1
 90
2
176
1
 90
0
176
1
 90
0
176
1
 40
0.6
176
1
 40
30.0
176
1
 62
7
420
16777215
176
1
 90
1
176
1
 90
4
176
1
 62
7
176
1
 62
257
176
1
 90
1
176
1
 90
1
176
1
 40
1.0
176
1
 90
8
176
1
 62
7
176
1
 40
1.0
176
1
 90
1
176
1
 90
6
176
1
 90
2
176
1
 62
7
176
1
 90
5
176
1
 90
0
176
1
 90
0
176
1
290
0
176
1
 90
1
176
1
 40
0.0
176
1
 90
0
176
1
290
0
176
1
290
1
176
1
290
1
176
1
290
0
176
1
290
0
176
1
290
0
176
1
290
0
176
1
290
0
176
1
290
0
176
1
 90
50
176
1
 40
0.0
176
1
 40
1.0
176
1
 90
0
176
1
 62
18
420
0
176
1
 90
50
176
1
 90
3
176
1
 62
5
420
255
176
1
290
0
176
1
 90
50
176
1
 90
50
176
1
 90
50
176
1
290
0
176
1
 90
50
176
1
 62
256
176
0
 40
1.0
176
0
 90
2
176
1
  1
strokes_ogs.tif
176
1
290
0
176
1
 40
1.0
176
1
 40
1.0
176
1
  0
VISUALSTYLE
  5
72
102
{ACAD_REACTORS
330
16
102
}
330
16
100
AcDbVisualStyle
  2
X-Ray
 70
25
177
3
291
0
 70
58
 90
2
176
1
 90
2
176
1
 90
0
176
1
 90
2
176
1
 40
0.5
176
1
 40
30.0
176
1
 62
7
420
16777215
176
1
 90
1
176
1
 90
4
176
1
 62
7
176
1
 62
257
176
1
 90
1
176
1
 90
1
176
1
 40
1.0
176
1
 90
8
176
1
 62
7
176
1
 40
1.0
176
1
 90
1
176
1
 90
6
176
1
 90
2
176
1
 62
7
176
1
 90
5
176
1
 90
0
176
1
 90
0
176
1
290
0
176
1
 90
1
176
1
 40
0.0
176
1
 90
0
176
1
290
0
176
1
290
1
176
1
290
1
176
1
290
0
176
1
290
0
176
1
290
0
176
1
290
0
176
1
290
0
176
1
290
0
176
1
 90
50
176
1
 40
0.0
176
1
 40
1.0
176
1
 90
0
176
1
 62
18
420
0
176
1
 90
50
176
1
 90
3
176
1
 62
5
420
255
176
1
290
0
176
1
 90
50
176
1
 90
50
176
1
 90
50
176
1
290
0
176
1
 90
50
176
1
 62
256
176
0
 40
1.0
176
0
 90
2
176
1
  1
strokes_ogs.tif
176
1
290
0
176
1
 40
1.0
176
1
 40
1.0
176
1
  0
DICTIONARYVAR
  5
2B6
330
2D
100
DictionaryVariables
280
0
  1
1.4.4 @ 2026-10-09T09:01:34.372716+00:00
  0
ENDSEC
  0
EOF
